<mxfile host="Electron" modified="2024-03-12T15:08:00.042Z" agent="Mozilla/5.0 (Windows NT 10.0; Win64; x64) AppleWebKit/537.36 (KHTML, like Gecko) draw.io/24.0.4 Chrome/120.0.6099.109 Electron/28.1.0 Safari/537.36" etag="y6WuEInR6ntOSJR7xXPS" version="24.0.4" type="device" pages="3">
  <diagram id="zxGfycyyinysYW4NQ2B1" name="Genti 1.0">
    <mxGraphModel dx="5379" dy="3394" grid="1" gridSize="10" guides="1" tooltips="1" connect="1" arrows="1" fold="1" page="1" pageScale="1" pageWidth="827" pageHeight="1169" math="0" shadow="0">
      <root>
        <mxCell id="0" />
        <mxCell id="1" parent="0" />
        <mxCell id="yKrpJMPBM3yrQ6L8E5i--3" value="" style="rounded=0;whiteSpace=wrap;html=1;strokeWidth=11;fontStyle=1" parent="1" vertex="1">
          <mxGeometry x="-1040" y="-1152" width="5430" height="2540" as="geometry" />
        </mxCell>
        <mxCell id="iBmOrdFq_I3-XjCz09oH-4" value="" style="html=1;overflow=block;blockSpacing=1;whiteSpace=wrap;shape=image;fontSize=13;spacing=0;strokeColor=none;strokeOpacity=100;rounded=1;absoluteArcSize=1;arcSize=9;strokeWidth=0;image=https://images.lucid.app/images/d68b13a3-bec8-44b8-8eaa-b46678c2a4ff/content;imageAspect=0;lucidId=6ru2hxvKtcHX;" parent="1" vertex="1">
          <mxGeometry x="824" y="-825" width="312" height="240" as="geometry" />
        </mxCell>
        <mxCell id="RIdAFQ6ZEUcjRRq-e_PQ-4" style="edgeStyle=orthogonalEdgeStyle;rounded=0;orthogonalLoop=1;jettySize=auto;html=1;strokeWidth=10;entryX=0;entryY=0.5;entryDx=0;entryDy=0;" parent="1" target="iBmOrdFq_I3-XjCz09oH-4" edge="1">
          <mxGeometry relative="1" as="geometry">
            <mxPoint x="180" y="-705" as="sourcePoint" />
            <mxPoint x="176.9" y="-705.7" as="targetPoint" />
            <Array as="points" />
          </mxGeometry>
        </mxCell>
        <mxCell id="iBmOrdFq_I3-XjCz09oH-11" value="" style="group;dropTarget=0;pointerEvents=0;" parent="1" vertex="1">
          <mxGeometry x="-90" y="-840" width="240" height="300" as="geometry" />
        </mxCell>
        <mxCell id="iBmOrdFq_I3-XjCz09oH-12" value="" style="html=1;overflow=block;blockSpacing=1;whiteSpace=wrap;shape=image;fontSize=13;spacing=0;strokeColor=none;strokeOpacity=100;rounded=1;absoluteArcSize=1;arcSize=9;strokeWidth=0;image=https://images.lucid.app/images/0af273d8-1448-4cfe-b426-09d257c038fe/content;imageAspect=0;lucidId=aru2NShyhoyL;" parent="iBmOrdFq_I3-XjCz09oH-11" vertex="1">
          <mxGeometry width="240" height="240" as="geometry" />
        </mxCell>
        <mxCell id="iBmOrdFq_I3-XjCz09oH-13" value="&lt;font style=&quot;font-size: 52px;&quot;&gt;&lt;b&gt;Github&lt;/b&gt;&lt;/font&gt;" style="html=1;overflow=block;blockSpacing=1;whiteSpace=wrap;fontSize=33.3;fontFamily=Liberation Serif;fontColor=#3a414a;spacing=0;strokeColor=#3a414a;strokeOpacity=100;rounded=1;absoluteArcSize=1;arcSize=9;strokeWidth=0.8;fillColor=none;lucidId=IBu21l8HUH8o;" parent="iBmOrdFq_I3-XjCz09oH-11" vertex="1">
          <mxGeometry x="30" y="240" width="180" height="60" as="geometry" />
        </mxCell>
        <mxCell id="iBmOrdFq_I3-XjCz09oH-5" value="&lt;b&gt;백엔드&lt;/b&gt;" style="html=1;overflow=block;blockSpacing=1;whiteSpace=wrap;fontSize=66.7;fontFamily=Liberation Serif;fontColor=#3a414a;spacing=0;strokeColor=#3a414a;strokeOpacity=100;rounded=1;absoluteArcSize=1;arcSize=9;strokeWidth=0.8;fillColor=none;lucidId=.uu2e8xy5YTz;" parent="1" vertex="1">
          <mxGeometry x="-900" y="-525" width="360" height="120" as="geometry" />
        </mxCell>
        <mxCell id="iBmOrdFq_I3-XjCz09oH-3" value="" style="html=1;overflow=block;blockSpacing=1;whiteSpace=wrap;shape=image;fontSize=13;spacing=0;strokeColor=none;strokeOpacity=100;rounded=1;absoluteArcSize=1;arcSize=9;strokeWidth=0;image=https://images.lucid.app/images/671d4ec5-193c-47dd-9c6d-79d779d1ad9c/content;imageAspect=0;lucidId=7pu23KLl_zKk;" parent="1" vertex="1">
          <mxGeometry x="1564" y="-870" width="415" height="329" as="geometry" />
        </mxCell>
        <mxCell id="iBmOrdFq_I3-XjCz09oH-2" value="" style="html=1;overflow=block;blockSpacing=1;whiteSpace=wrap;shape=image;fontSize=13;spacing=0;strokeColor=none;strokeOpacity=100;rounded=1;absoluteArcSize=1;arcSize=9;strokeWidth=0;image=https://images.lucid.app/images/c6d3b605-9022-4411-abd4-ea62a47a1ccc/content;imageAspect=0;lucidId=2nu20YMX9p9A;" parent="1" vertex="1">
          <mxGeometry x="-880" y="-885.5" width="360" height="360" as="geometry" />
        </mxCell>
        <mxCell id="RIdAFQ6ZEUcjRRq-e_PQ-3" style="edgeStyle=orthogonalEdgeStyle;rounded=0;orthogonalLoop=1;jettySize=auto;html=1;strokeWidth=10;" parent="1" edge="1">
          <mxGeometry relative="1" as="geometry">
            <mxPoint x="-140" y="-705.63" as="targetPoint" />
            <mxPoint x="-490" y="-706.1633333333335" as="sourcePoint" />
          </mxGeometry>
        </mxCell>
        <mxCell id="FvvUnZhEkorayf8Jf28f-107" value="" style="endArrow=classic;html=1;rounded=0;strokeWidth=10;" parent="1" edge="1">
          <mxGeometry width="50" height="50" relative="1" as="geometry">
            <mxPoint x="978" y="-480" as="sourcePoint" />
            <mxPoint x="978.47" y="-177" as="targetPoint" />
          </mxGeometry>
        </mxCell>
        <mxCell id="5TNmEjjNw1LSNoUuKL9D-57" value="" style="group;strokeWidth=11;" parent="1" connectable="0" vertex="1">
          <mxGeometry x="1840" y="90" width="1382.19" height="780" as="geometry" />
        </mxCell>
        <mxCell id="FvvUnZhEkorayf8Jf28f-62" value="" style="rounded=1;whiteSpace=wrap;html=1;fillColor=none;arcSize=2;container=0;strokeWidth=10;" parent="5TNmEjjNw1LSNoUuKL9D-57" vertex="1">
          <mxGeometry x="102.19" y="156.52" width="1280" height="623.48" as="geometry" />
        </mxCell>
        <mxCell id="FvvUnZhEkorayf8Jf28f-124" value="" style="group" parent="5TNmEjjNw1LSNoUuKL9D-57" connectable="0" vertex="1">
          <mxGeometry x="350" y="200" width="570" height="430" as="geometry" />
        </mxCell>
        <mxCell id="FvvUnZhEkorayf8Jf28f-51" value="" style="rounded=1;whiteSpace=wrap;html=1;fillColor=none;arcSize=2;container=0;strokeWidth=9;" parent="FvvUnZhEkorayf8Jf28f-124" vertex="1">
          <mxGeometry x="46.91" y="57.86" width="523.09" height="372.14" as="geometry" />
        </mxCell>
        <mxCell id="2NCGDv2LHcwtiQBlpGoc-2" value="" style="shape=image;verticalLabelPosition=bottom;labelBackgroundColor=default;verticalAlign=top;aspect=fixed;imageAspect=0;image=data:image/webp,UklGRoYeAABXRUJQVlA4THoeAAAvV8O/EIegkI0kaE7g/GXO67/VMNq2TVq0U/c/GloUtG3k5Caz489n/RtkG+n8aQ7pEPoEH0Bi64HDjwCYCRDiQUGEfBTo1bXlwScL2rZtBbGjsw+IiMDh/3836eSmoDZH+yWi/xMg295ryWmMAa8OYxw51yaPeivngJ/HI1d7wtp1KBw+nrc9WVaSwvHH1Z4pKwf8P5ztcboPPIXh6g9SPxWP4nE/RPeB5zFke35KwEOZ+qNjWfFgpvrYWFY8nKM+M1nxgKb+vJSAhzTZs1IHnlPND4olPKuhPiWX4nE9+hPSBp5YvZ6PjKd29GejRTy3ej0Zl+LRPeypsANPr9ZnogU8wPmJKHiGhz0OCU9xaM+CRTzHej8JLeBRLs9BUzzM6SkoeJ7TM1DwRA97AAqe6WjuV/BUR3O+guc6musVPNnR8wqe7eR3TR8uJK9rise7+JxFPOC3yw084docLuMZj+ZuFU958jbTxwzF2Qaec+2uduFJH57W9VHD5WgHnnXtbnbjaT/cLDxuqE6W8bxHHzN94HC5WMITr+ZgDc/86WDjoUN3r4KnfniXhccO1bkynvvgW10fPGTXOvDkqzlWxbOfHCs+fGhuVfD0D68yffxwO1XG8x/MpTregNmlxitAu0NVvAOTQ4WXAKo7XXgLRm8yfQ2gONOJ96CaKzW8CbMrjVcBuiPdeBcejhReBqhulPE2DF7U9XWAy4kS3odqLlTxRjxdaLwS0B2o4J04/MfCSwG3+2S8FYP3dLwXs/McLwY116l4MybXia8GVMe58G4cfmP6ckBxmxNvx2BO0/F+zE4zXhDaXabiDXm4THhFoDpMxjsy+ovpSwLFXRLekmrO0vCePJ1lvCjQXeXGm3J4ioVXBaqjZLwrg590fVngcpOEt6Wak1S8L5OTxBcGmosUvDGHh5i+MnA7SMY7M/hHx1szu8fx2tDuHBXvzeQc4cWB6hoX3pzDM0xfHSiOceLdqeYWHW/P7Bbj9YHuFDfen4dThBcIqktkvEGjR5i+QnA5RMI7VM0dKt6ipzuM1wi6MxS8R4cvWHiR4HaFDPcM47fRRYIndHWNke8uf9hrHt6B7AgH/PK4TX7yTr6h5gYVXhkukx+3KzgGkhtEpwhF/nEJfoHmBAUuqVk+MKtbDB8wdYnR5SP78AoUFzjhkZd87OUVwRygwyG1ygc39QlkBxgOEZt8dI8+oX37Kvwxmny4RZdA2r7gD9Hk4y26BOrmXXBH7TKhBZeIe2fqD02mbOoRKFuX4I5FJi0uobZxDe54yLTJI5A3briD2jwWPAJ92264Y5GJb5cY2xbcYcjUwyNQNy3DHetc1SXCnnV1hyGTD4/AtWUJ7njPVl1CbcMq3DHI9MEjcG7Y8Ic83+USaNtV4I99vu4TY7dM/SHKAqNL4N6sDH88V5B9IuxVh0PeK6g+gbxVh0fYCsQp1DaqwiFVlhh8AmmjokeMNQynQN2mCx6Z1pC9YuySqUtk10LZpBPvm2Bb1OFYt1sgb9HwrOoX6Bt0451zbFB46aBuT8ZbJ+6O6WsHZXMS3jtqW9Pw4sG5NePVg74xBe+esS8WXj6o25Lx9gm70vX1g7wpCe8ftS2peGR0HPnXMfYAaUsifeO8ahURqfU6xxaF8zb5015S4A9tQwqo13TLX99J90bPJj/ZkrI39sOUuVHkh++xL6HIj1tW7nBvRwbvo8o/rGNPtMg/tazUBduMDtrDLf+4hg05Tf51H8whb8ag7TT553buht7yiRdz2reignS95SNv3YrY5TNb4A1pKwJpscuHtrgRw+RT7eANdSMucJ7kcy1uQ5JPvngb+2BKmRb5ZIubEOWzm7KGsg0nGA9NPtvCFkT7MLHImtomNDA+TD696QZol89PpCFvwmDslAnvDbhlxkIa+hbcILzIlIm+Q+ZsytmxBYEvbTKnKXlqk0iPlKFuQAbdscushbxLprWDssCfKV3DZN5BXZCZE2O46EtgO8nMlboylVyMqZFXwXaWuQNxanNJIQwneYOtIpMX4pLM3pQvdOoKuNYisxtxbTppytdgzgJX2mT+g7YgC7RIF27iMqjWJgsstKUViEW6Am8dVIcmK+y0lSWIRbaQaTuoiiZrDKy1NYgdbKmRVsF0NFnkYE2WmchCIi0yFU1WmUmL65BEFiplBURHk2VepI2FSCJrMGZKVDRZZ90/SVyhEHaC52iyfXkpkrgKRlcHz9HEmSRRhUzX4CmaOMC5GElUaSerguZo4gFjNXIwhYOsQJN2WeztBBaZQqUqg2VtstpMWliOWGQqMmXKkjZZ7kka1iMWiUIhKoHlJusdrNX1iClRajQ1sFxkwWDtWpA05QmZpsFSkQVX2o4VSVOe0Em6QXKSFWfaYCuSQtTgyAJJSZYceStLksITKkUZHEdbUgNvx5ok8RQY6spRMFnySRz6muSgCRdBCRRrkyWbMpcWZZEmNXoqOL5lzRnMoa9JurKERM/g6JI1m3KXFiWNJjRyCihOsugT3KEuSgpNgxtTiqIsuoG9uCpJLOGmJoNhtUVZpA/nqiSyFJjpoLjKohP4Q1mVKUnIxBwUXbLogh3QtihpLGmnpYLhQxZdsAXQtii5SEKiJTAUbFFNNwHaFiUHSaikXGC4yZoLFsgCtC3KAkmDE1OGLlnzhY0AypqkkYRCyQmCD1myHdgLJFuSXCQFI6SD4GBLagG7gdiWJAdHyIQMhqqsuGCVVEDLkkw5QqfjBsFZVpywJcC5IqkkHXQEgqIs2CJ2BcMWJCdHqGRk8Kt9QU2xLwhtQRI5ilyYEnTJeguWyge0LKhxhIuKBH6HrPfE5gDXeiRzpEZEBb/al2MJ+4O0HokU4SRiEHTLai1ihzBsOY0jdBoK+B2y2haxR4i2GskcDRYs8KN9NU2xS4htNRIpQiUhg99LFtsU+wRtq2kcBQ668jNksUWxU9C2GMkUIVNwgN++mII1EwNti7FAkRoBFfxmWWvBdkHbWqRShERA5CfIWgs2DHqvRQ6K0L5eAb91LQVbBrS1dKVofDtTfg5ZasGuaVuKXBShfLkMerUvpWDboG0pEigK9tU6+M2y0oKNg7alVIqQv9rgJ8hKG7YO2lYiB0Xav1gFv/dKmm4etK+kU4T0xQI/QxbaFLuHaAuRTBHq17rAb1uIBewfoi3ElKL4rUz5SbJOi/AApIVIoQjlSyXQq30hB3wAaSESKFL7Sg38ZllnghegLKRShPyVBj9q6yjwA9R1yKAI/Qvd4PeSZVZ4grZ1VI6OLxT4CbLMpq6AaMuQQRHq18ngtyzDInwBxzoaR+HbdOUnyDIPeAPyMiRRhOvLJPBblnHBH3Avo3Ok9lUq+A2yygqP0L4KSRTh/CqDoLIKU5dAXEbnCO2LFPAbZJUDPoFzFZI4Gt/DAkFlFRlegXsVnSPcXyOD3yCLbPALtUXI4Ch8iw6CyyIsOAbGKipHyF/iIEhtEQmegWsRMjhS+woVBGdZ4w3f0LaImyOkrxAJUluDqXMgLkICR6hf4ALBSdZ4wDuQF1FIGuszZaiv4YZ/oK1BlCOU5Z0g+JAlmnrIWEQmKdjiOhiua0jwEFxr6CQhL24wFGSJFT6ifQmSSEJfWgXDZQ3BSXCsobJ0LC0wpLaEDC/BvQSJJKEuLIPhU1bY1U+CLaGwFNdlSlFfwgE/QV6CKUkoy0pgeMgKKzwFfQWSWFJbVAPFZQnBV44lNJZwLmpQpLLCC76CugKJLKEvqYDitAJTbxlLKDSNFVngqK0gw1tQVmA0oS4og+IoC+zqL2EFkmgK6+nK0bWCBH/BtYKbJlzLSeC4L6DDY9QWIEqT2mIqOD5kgcllkFdw0oS0mEhSWUCHz6gtoPGEtpQCkm0ByWmQFyCBp7ESU5IOmb/Da9QWcPKEeyEZJN8LSG6DvIBGVLBldJCsMn+H36jNJ4En5GUcLKUFJMdBWcBJlPZFVLBc5jP1nLCARhTSIgJNNl+G56DMJ4Eo1CVcYPmQ+dV34gJOpsYKTGkq8xX4Dup8jSmUBZyg2eaL3pPmE2VKbboGmqNMX+E96PMlppCnGzxd8yX/yfMVqtAnu8Fzm87gP2E+4+qYLPAUZPrLgVCmk0EV6lQZPKf5ggcd82WuwkymRJXpKjwIfbrGFa6JEoi26ZIP5elEuVKbpoLoKLOb+lCY7+AK5zSDqXO6Ah9Cna6QhT5JAdP3dIcXpek6W2MOC1TJ7B1epNNJIAv3FBlMj+kuN8I9XWIrzNBBdZ4u+lGarrCFPMHB1T1bhx/pdI0utY+r4NpmuxwJ92yibCF9XOQqyuyHJ6XpDrrQPqyA6zSbwZN0uszX+CxTsspsxZVQZ6t8oXzUCbLbbMmXztmEsGAf1EG2yuzqS2G6yBfyBw22xmwVvoQ+WyJM+8dUsJ1ny950zXYRhuNjAl33bNGbjtkqY6gfcoHuPpnBm3Q2oSx+hilfMvntTqizRcZQPiKB7jHb6U95tkSZ2gc08H3OFv1pzJYpQ/6AQdg1mcGfMFvlDP2f3SC8TnZ7VJ2skzb+lQXGbLLsUddkQhrqP8ogXGXy4VHHbIO08G+6MjZmg0eF2RJpuP5JAuPnZM2l0CfLrKn9gwrK82TFp+7JKms4/8HgrE52+lSerNGG9mMFnLfJhk+NyYS38VOmpMnk8CmdLdCG+4cyOA+TdaeCTTZ4Cz/TlbQx2e1VdbLEG/KPJJCeJstedU2WiVP7gQ7W82SHV52TFeKQfyDRdk02vGpMVplT+ysD7XUyeJVO1pjD9Vd508ytMJlQF/5KeZO5q1/VfcP9FwWbVvzqnixSN/5i8BYmy36VJxvUof9RB+9jsuRX587lP8rbNvxqTJa5C38UiEuTxVcK2h80EJ8ng19h684/OF9HN3nhD+K2Nc+yuSp5aP/RwXydq3pW3br8H+V/J/E/jn27POueS9iD/U73LXtW3rv7Nw3Ut3fS+ZuLO3knxd+kjTs869w7/CZs3PCssXlVRAxvpEFfFpH6v5RDRPL/UqKIpP+lQETG/1OaCP6fcov9TyVL/Z9Kkvt/KkPyo3Q9CPFhyg8C5PjfyngKxhrSk9CepfEkVH0KsAbdB+wAHoO2gg4mj+279y5Tca2gUJG3L9PX9uFYQXqV1H3QFej/E3DPd4PK69mrXKT5Ehd1rvoE3BsBm830XZJ3Is+WwWV79owMtblMyZC578dHyECeK2Mn8hNwTKZkqM1kSkZ4fsZkgwwcMyWQOV5GuOepYPOYbDwBOlmmQ20WC3Tk/bsDe9gMjFkO0HlNFnegjr2rfCDNcYLPOhkegTpXIwRlhgJCuwMceyeMoHxeAaMyd9sCyfRdkwVGUD6tgNE4WX0G8mSDEpyflUHpMVnZgSCVvjRZ5gSHfY4lcJonyzswNmBMVkhBqJ/SIki9J0s7kEToC5NVVoDTPsEyaG2TjR3IIsoeJhNeEMq/KwG8yuRhB26RQV+bLPIChPJvSgCxYzbsYBU56auTHcwAIfef6jmA2jRZ2wIRuejLk2VuAMTc/q5dEexek9UdCCJS6Tsnq/T8Os5c/zOfAwzXyfIOHCIi9I3JhCLCZfK0A/mXyJ7OFj1qzDZ2oP6S2INNljzqnA07aL8U+upkxaPuyfoORPm10XdN1j3KJqs7kH4jyt45mQR/CjJ53oHyu8TemC35U5ot7UD/XWEPsxV/KrPFDYjy+05fn6z7k82GDTz/QyJ792QSvCnK5HUH6n9d7OXZkjeds10boPLfnb0x2+1Ndba0AekPJJKns5kzqcweN+D+k4s8tMnk8KVjNgP/Qf60s1dmu3ypzFY34PwjGeSl2bov2Wx5A/qfFfLibBI9Kcrsg78hfxm4g82WPemaTvkrf5PJu2drntRna6Bf5W+NvHM2CX4UZfaLv/xXkriL02U/uqY76FP7u84dbLbuR306pS/LDybu7tkketGQ2RvYV/uJrtSd011eVKa76Mvyo5m6OJ15kU13sKf2M6bMwWaTw4eSTK/sFfnhQl2Z7vahe7oK8of8+GAuTSfqQUGmz+zVn6vM6XynB+X5InlJ/mEiDm267kF9ug7utf+LrsTl6WT4zyHTF/Ky/NNMXJzv9p8638FdkH9rgTf06SR4T5D5lbv7H8lNXJnv8p4y3w3qh/zzwdsxn6nvqM2XuGv/rvEGm05O38kyv1KX5AMTb2W+7js2XwPzap9gStsxnyTPSTL/Sd0lH3nRBpuve05fQGAuyIcG2sp8cvhNkvkbmK+fUmk7FlD9pi8gMTfkYwdrsPlkeE2SBSpz/XM6bWUB1Wv6Am4Qf8oHn6yNBcjwmSQLTMSpfZIpaegLaD7TF2BKXJGPLqxdC5DkMUkWWMB7lA+PpIUVdI/pKxjE1U+rpKEtQE5/ybLADt4P+fiDtLQCU29RW0HmTfvnddLUFiDZWy5ZYeAty4SZM5QVSPCVICu8QXuwGSxwFpdw+0pdwsFbkSkLZ2grkOEpQ1bYQfuQSQdnaQndU/oSMm91lsqZ2gok+0mWJQbakkybKMO1BAteEmwJBayrzWNKWViCVC+pssRBW5aJM2W4lyCHjxyyxAbWg0wdKBtrMPUQtTUk2u65bsrQliC3h9yyxA7Wh0w+KEtrkMM/Dlljpq3N1ihDX4Opd6itwZS1U6Y/KctrkNs7blljBulq85kyprYGOXzjkEUG1i5Z4MUY8iIseEawRRSQHmSJgTG1NUj1jCqLDKzVNVTGkBch2S+yLLKA9EMWORgLq5DhFUNWGVjrq+iMoazC1CfUVlFAepZlZsbCKqT6RJVVBtLU1mFKGMoqJHtEllUWkF5koYUxtVXI4Q+HLDOQFmWpkTDkZVjwhmDLKCC9rqUyprYKaeoL2mSZgbQki02EIS9Dbl+4ZZkXONe+mq6EaV+GZE/IskxT0rIsNxOGtA5JfpBknRmcB1uPBcLQ1yHRC6Kssytptyy4MDYWYtEHoi0kgfMhSx6Eoa5DmnqAdllnA+ltTY2xuBBpun/aZKGDtCSLToThWojU/Wuy0Bucq63KlDC1hUjZvSILtUBalmVnwnCuRMreFVlpBudBFh4IQ1uJlJ0rstIO0uvKKmNjKVL2rchSB2lDlj4IQ1mK5F0rstQbpPe1dcbUliJpz4os1QJppyz+JAxpLVJ2rMhaT3CutjpTwlDXImW/iqy1gfRLln8xFmwtUnaryGIjaVG+YCQMeTFS9qrIYjNIr9+gMoa2GCm6T1plsV1JO+QrHozF1UjTXdImqx0gvX+HzhjyaqSFPYpNVnuB9CxfMjOGthqxuEPRZLVdSQv2LUwZi8sRO/YnyXoHSC/yNQtjOJcjcu5OlvVmkD7kiw7GUNcjZWu0yHobWK/fpFIWbD3SdF9Ck/VaZC3JV02M4ViQWNyVYbLgE6Rr/y5dGUNZkMi5J1lWfIP1LF82U6ZtRVJ0P/SWFZuyFuTrBsYQlyQt7kbssuQB1u/vc1OGc0ki515kWXMG60O+8KAM95rk1n0IVdZcQXv7Ro0zbWsSG7twmKzZlLZTvnKiDNHWJHLpDugtqx5gXe07mVKGtCrpg79hsuoTtF/ypS/OcK1K5FLutMiyC2gP8rUDZ2jLkj6YO0yW3ZS3+r0qaWrLErmVtXDLui2A9iFffHCGaOsSOznLJgsf4L1/s04a0sJE2uBrNFn5Cd6zfPVMGq6ViRTlKtyy9ALe1b6bKWkoSxPLypNmk6U3EF/kyxfWtC1NpCeWksnamxIX5etH0qB9bSJ9MHR0WbxFEF+/X2UN0RYnUgc7o8rqLYL4Qwg8WENcnkgdzIwq608gXjsDXVlDWp9IHayMKl8wgfksFGbakL6ASE2MpCrfsID5YBxYoA3lG4j0pFxo6vIVC6gvQmLhDeUriFgOPIRs8h0LqB9C4+AN5TuISBkcjCLfsil3jYdKHOq3EOmnfjs9u3zNpqA+CZGJOG1fQ0TK8c1GkS/aFNSrMWHKG7R9EZF+xe8Uri7ftCm4z0JlJg7avomI9DN8m3A2+a5NwX0QMgNx0PZdRKSd8XuEs8m3bQrybzZu5qDt24hIv8Y3iFeT79sU5A+hczAHbd9HROxOYWWaisk3bgr2Ox+dOmj7Rr/2ksKK9LiafOmmYP8UQk/qoO1L/dpLiisJ6WryvZuCfTVGTKmD1u/1q9V8hPnCyNXkqzcF/ZdQenEHlK/2+1ryCHPoOK9q8vWbgv4opAbyUL7f71vNeYxPiePMdxUSi4L/ykplD4WE/+61lpzzMX6Nvwvjt2fOV61NuCzYwENoPdhD4oLtgh3svHT6kPwmYQezEJvpwzCnSdhBNWZM6UM0j7GILSxCbeEP2vylRWzhEHIjf9DbW5piDys7dQOAy1cKNjEJvWkHkDzlxCZq56frDiCal9jALmYhOG8BtPlIC9jFYAxZ2AKgeEhRbOMtFN+bgGTucWIfh5A8NgGx+4YNbGRjqe0C9PaMqtjIJDSnXQBOv8jYSTWeTLcBsfuEDWzlJUTnfYDeHnErtjII1WEfgGTeYCc2s3JVdwKh+kKL2MwhZI+dALInZGxnZ6vvBWLzgh6xnafQfe4FkH3gUmynGl+mm4HY9q8PbGgRwstuAHn3MnY0CuVxOxDrzrWILa2c1f0ATts1O7Gnh5B+bAj03rM7YFM7a31HgNH3qw/sahba85YA2fbKMrY1GG8W9gRadqoE7GsR4sumAKPuUh3Y2CHUj10BUt+hnrC1lbu6L0C23bGMvU1CftoYaLadsazYWzX2um4MEMq+FMXuZqE/bw0Qyp6UgO0NsoFhb4BQ9qMEbPC9A/fuAKHsRQnY4SFbOLYHCMV2wa6APW570DYI0Gw7YFmxyads4rlDgKbOXk/YZrVdMN0iAEdlrh7Y6Eu28dolIBbSrATsdJCNDNsE6Nn56kmx13Un6kYBGIWrMrDbh2zl2CpAz85SS4r97nvRNwtALMaPXRE7nmUz83YBOG5qrBzYc7XdMN0wQNPNyp0Uu15kO8uWAdB083Enxb5H2dC4aQA03caDlQN7X3ek7tuvx9UZaNfA7ifZ0rR1AOJ5fzW7U8D+a9+Trpv367jad6p5wAezbGp2AAB6XPW71DzghsF2xYIL/Hbk275Bv88BVyyyrcUPfg1HrrYuq/kI8MYhGztc4bfhyHdbTbvzCHDJtjPNH34fj3zXBVgt+YjwyyRbm5ziP8eRc632eVZrzmPAO9X2xtQ1/lvHSDlftdb2c63WeuWcxlB4aZbNzS7yg+OP4bVBtje4jAvX/blfOkM2eLxz+g71V84pW3y+cNT2yPR9c8kmX6+bKNsc3zZ1n+rL5pCNPt41faf6qybLVucXTbC9Mn3PFNns8poZst3jLVP3q75kkmx4esVo37Gub5gsW55fMEH23ML75d40uV8vQ7Z9vF3avrWXS5KNT68WtZ0zfbNcsvXXiyXI5of3St29+loZsv3jrdL3r79Usjjg+UpR8wDTN0oRFywvlChOGN8n1Qvq6+QQNzxeJtr9oOu7JIsj5ldJME+w8CYp4orlRTLEGcd7pHpDfY0kccf0ElHzB9N3SBaHzK+QIC4Z3iC3T9wvkCFOOd4f3Sva6+MUtzxfHmp+YfruuMQxr1dHENcMb47qG/XFcYhzHu+N7h39tZHFPfNLQ80/TN8ZRRy0vDKGuGh8Y1QfqS+MJE6aXhfavaTr2yKLm+aXRTA/sfCuuMVR71fFEFcdb4rmK+1FkcRZ02tCzVtM3xJZ3DW/JII4bHhHVI+pr4ghLjveEN1n+gviFKc9Xw9qXmP6dijittfLIYrjxndD9Zz6ajjEdY83Q/ed/mLI4rz5tRDMeyy8FYq4b3kpDHHg8U6oHlRfCUlcOL0Q1Hyo6/sgixPn10EQNw5vg9uP7pfBEEce74LmSe1VcIorny8CNV8yfQ9c4szXayCIO4e3QPWn+hIY4tDjHdA9qr8Csrh0fgGo+ZTp81fEqcvjF8Wt49NX/ao+fEkc+3j0tHtW1ycvi2vnBy+Yb1l47oo4d3nshrj3eOqaf7WHLomDp0dOzcNMn7gsLp4fuCBOHp6328vq4zbEzY+HTbufdX3Wsjj69ahFcfXxoGnzNdPn7BJnvx+zQ9z9fMiC+ZuMR0ybOLzFJ+wWl2/6fF3i9O3xSuL25eFK4vjl0YrmeVIerGji++WxiibeXx6qaOL/5ZEaJk9geaCSPIS3Pk1JHsOmz1KRB9Hig6S3PIqWHqPQ5Gm8HqLD5Hms+gRleSRtPD5a5am8Hp7D5Lls8cHRS57N/NiMLk9ni4+MXvKEZn1eDpNntB8PS6jynNbwoGiWZ7XoU5JMnlbL+oSkLk+sZX06Upen1rI+GanLk2tXeCg0dXl8y3ggwmXyCPdTn4Xjlge5HI9BvLo8zFaOByCcTR5pK0k9b1xdnuyWh3pcPG+TB7yVczhaPHKVR73XK6cxoluFMY6ca5N9Bw==;container=0;" parent="FvvUnZhEkorayf8Jf28f-124" vertex="1">
          <mxGeometry x="149" y="180" width="135.07" height="121.2" as="geometry" />
        </mxCell>
        <mxCell id="FvvUnZhEkorayf8Jf28f-126" value="" style="endArrow=classic;html=1;rounded=0;strokeWidth=7;" parent="FvvUnZhEkorayf8Jf28f-124" edge="1">
          <mxGeometry width="50" height="50" relative="1" as="geometry">
            <mxPoint x="-30" y="151.8818620992534" as="sourcePoint" />
            <mxPoint x="40" y="151.8818620992534" as="targetPoint" />
          </mxGeometry>
        </mxCell>
        <mxCell id="KclHnpviEIRePQRrepYE-3" value="" style="html=1;overflow=block;blockSpacing=1;whiteSpace=wrap;shape=image;fontSize=13;spacing=0;strokeColor=none;strokeOpacity=100;rounded=1;absoluteArcSize=1;arcSize=9;strokeWidth=0;image=https://images.lucid.app/images/50555fcb-d07c-4787-b75e-063fa6ec9eae/content;imageAspect=0;lucidId=lQu2O-T0L5wI;" parent="FvvUnZhEkorayf8Jf28f-124" vertex="1">
          <mxGeometry x="-10" y="20" width="120" height="110" as="geometry" />
        </mxCell>
        <mxCell id="zl9-KqxkNswsD9SVo5LH-1" value="" style="shape=image;verticalLabelPosition=bottom;labelBackgroundColor=default;verticalAlign=top;aspect=fixed;imageAspect=0;image=data:image/png,iVBORw0KGgoAAAANSUhEUgAAAL4AAAEJCAMAAAAdEm3WAAAAdVBMVEVrs0T///9jsDfG4LppskFmsTx3uVRnsT6GwGmhzI1hrzOs05vc7NZeri+QxXZksDru9urP5cXj8N242amn0JOAvWH1+vKXyH/s9eix1aDV6My/3LGJwW35/Piey4jo8+N6ulnR5shZrCZxtk3D37e22KZSqRce/npPAAAKk0lEQVR4nO2dbZuqLBDHkTBaSu35abPaY3t//494o7X2JCjOEHJd/t+c86LWHwTDgDMDCexpPRufV7v92uIjiKW/ux0cWURDxhIaka/Z1NJjbOCfBkeeo5ObWEgjdhycLDwKG3/+vaGP6I9NSDbfc+THYeJPFrGIKH8lv4vTSMSLCeIjsfAnv4dIJBr0sgmJiA6/WE1AwE/341Uz9McmjMb71Dn++md5luhvQ71eTDbhvPwBWlUA/nT2NYxoG/R7E2g0BFnVlvjSrGdVBqZFE6RJyo6D7cfwT5cNwUF/bALZXFosDIb480UsVySOiF42QVpVHpsuDM3x08lvnAidWYeLU5HEJla1GX663x2EkW0ENCER4rBraFXr8dfGZh2nCatxA19Vj7+efUl0zFnaXCyUC8PXTN8ENf50cBziGpg2TZALw3GgXhiq8aVtRDLrcBULg8qqvuNLl5fYsY3tVSwMVVb1CT+VLi/rGvqf8oWBSXc7rcTPbWP4YQNjLmmSwsPu3oQCX9rGEe08+p9kE+joZlVJOluuRCuX16WkVRWr5Swll3++of+JJf8uZEBdY7QXHfT47tTju1SP71I9vkv1+C7V47tUj+9SPb5L9fgu1eO7VI/vUj2+S/X4LtXju1SP71I9vkv1+C7V47tUj+9SPb5LWcZnhez9fWv4jFNBGcnO54wwISzF2NjBZ4kgm+/99ha2km4n35vMRtSHDfyQjhYVwaSn36EIkR+Fj5+ES2U48vxIcRuAjR/ynTZwcbpEbQAuPhOb2sDRaSzw5gAqfkj2dfC59lmC9URMfBE3TOZIY4H0SER88dsMPtcCiR8Nn4lBc/ogmOFMACx8ljQa9ndNUAKMsfCFcR7WBGP8IOFHM1N6OX6iruCLb3P6IPiG9z8Kfhi3oQ+CGGz/MfAZa5m8lxLo9MXAjwyNzl176PBHwG87dHJtgP4bAn6k89LS9Vo3stbA7ofjh0s13ezAkoQcNFZ1Cet+OH6k7N35UHBOE87FWZmMCOx+MH54VJHtpVsjt42/55BwoZzdR1D3g/EjVYrkSdInxcCKOWFUtYGcgLofis8yVbeuJPQ1rSeVhHyl+hzI9kPxE5WTn3tk/Dawzkzj0+0gSy8UP1JNytyk8MO9g8Ox4oNziOcDxaeqMbHKx4QoRvw+B2Qj1Scd4vONCirL8Zncu6fXv6+eJDEgWyzHF8xU968vtPjS4rDw2jtsqPrk4t59xiBiQGarkaFWJb/anh9e+lT9O+3L0cOyoaGyQYtKAbOyv5QzN/h+GZLqnfyptPy0xZ6tBf4dLVJ+Jn22hyxUe253/Babthb443KhVxqe161gdFF/suyMZGfO0gK/dBOZ7svxw/ChypEfPKy7icZ5VX7Z/Culm6U2J8XH/kYFi5R+Xa7hH77a/VMLhH/Wfm6W3AyKfjd5/jD+V6PBI5356/DhNbvJcvCEX+YsoKkbaj83jRrhlzZK6Rdp1AJ/UT5QbTgLjaMm+J82nA/LVk1hoLGox9/Clq398ctQdyer9mQ2n+U1+PezWr7Zjc203JJLFBrq7s5QzWpU6Depxb/c1wduSvJvAnKYa03d/l8tPmSzLmD4jNXg5/5kDT4k5gGIXzt3c89Zjz+FHDVA8ett3Yjp8V8964/iM+UByE2XusFzhhyUQPHrRs/6v5qpCxo7cPw6H/0r0eODjnng+ETo8YNQjw97vwXHVx823Lo/1OGDJi4GPuMQfODbFTg+SbRu7klreZbAd4sI+CTSFHNcU0YS5Ub3BH01h4HPlceXUqMkXCnPSEA2HwufUJ3xXKn3w0vwk1HwSaRx+1Pli8cfeFADDj7jLWqZnhBCQXDwCSPGFXGn4IgAPHzCM0P+dYZRBA4Ln3BiVEh2S1BK2KHhExYaBFRNkCKy8fAJEzXez10LrEhURPw8kLPRBEg3WGGcuPgkDBuck104XhQzLr78e+eak7LJCjGEGR1fzoDhQP0eaIYKbwE/fxlKlpVGaLIkuPBW8Ivcj7z07cM8Xs+/Y2Ih+8MKPrnWjQ2Hh/i4XB7jUUYt5d7Ywi/EeHHmyu2lPlnFt68e36V6fJeS+DOf8ee+4+99xj8RlCQSR4q2BBSJ6FjRmpx8xg8INIbepSR+4C8+IxLfX8vDRhJ/6Gn5/SLGm4CicN0qGUt86Bsad6IXiQ98u+dQYiLx994a/mgr8bfeWs6oiGXzFT8PIyUIL/gcKY/lIg9hpZ4pDyaS+L5uF/M4RgJM3nGoPAg2D0P1c+4WkVw5/muiiR8qQp5z/F8v3YYi7yfH93O7W6TaFiHYPuJfgxgL/I2Hg/8aBFjg+2j5r9Hr17vmPDSd18yNa/rByDu35xa8fsVfeGc6b+mSV3z/fP5bwt4td2Xl2egJN0/4vm14/1Jtb/ie2Z4y4e3vX79Oe8rQ3T98v84byjznMu0s82jy3usOlPiwRIDPSsze8Nf+jJ6HTNX7/2DFWj6ph4yTO/7cG9sp1hX43mx5H1MNH/DBhbo+JLGtxPfE8QkfszEe8f1Yup5KczxlS/vQ/c+ZPE/4PnS/OCnxPej+5DnD+RkfVqjrE6JTDX4Qd3zppS9Jbi/4226PfkZSLX7H3/K+VSl6xYfX+LSo9+p0b1UyBh0ePu9lLd6LfIw667kl72Uh3vE7G171Nm8r8YNxR898REViSVWFmG5G+FQWva3C7+bLoqSqpkJlfR54Ji2+qgvTVZcX6t7wUdRLrsbv3It2VVk9RXEnrPsJsBT9VHOqalONOuV6UlXBPBX+2s4tQe3Elfn6yspgXdq5CGUdGnVhs11nhr/mcgVNXbZDR4a/cuDr8UFVr/CkLkFdg3/65xqd6Aup1hT1G3Rg+qrr3dbiX4sKuqXXp1/XlFSE384Bk6ipfVVXEfLsdOuoLWLbBD91aX5CXemfRvjBNnLGz7Wlepvhu3vnVbU1N8d39dKIVe4OzfFRLmcypxdNas40qkV7ccCvqxhliB8sPs7f8CajhpWAP+09qzaHLfE/7D40vj6tcR3mT/I3v/yteRnpz/FXHWaC8YPdZ+YvU99oAcL/jP1h1OTSQ6Ma5N/2+VlidGWjWQn1AXaBoFcZ1nczrQC/p1b5edbAzwHgB3Nmcf8Snk1rGxrX359m1o5/6MH4xkbz6wPSlaWXF+IzV2cEeGXtnuhbXD3RCt/GAmZ4vzAIH9+AcmZ8Qy8AP5hwVAOUnA0NJhA/mJ4RD7BE3XEOOj7iBGZR40qeiPjSg0OZADxsfcMtCD+YhAgTgBqvtFj4wRS+gukvs7KLHwRL2ArQ0tqj4UsXFDCAkqxF+WxUfMgAAg4cFPzchWhlgXibG54s4AeTrMUSJlYtF9onYeAH6cb0B2CR6mpbM6HgB8EsNNrE0KHqVmRDIeEHa4MfgEVtXPtKYeHLH4A3nAE0a+ccVwkPv+EMQOz6ABU/CH5I7Q9Az0ij/ipU/NyJ0P4AvHmV+2ZCxg/mZ/U2gEUxhq1/FDZ+fjWtwoYm7Af9Yfj4ChvKoqPxIVS9LOBLL2L4OoKYWKFO2T9Zwc8rDzzZIMoQ3LMqWcIP0mVUbgQSJAenQrbw5UYgvjaA/ztCdrN62cOXRnQUMY5vLB9lE19uJUexlRlb6n/RF5yhOeXhswAAAABJRU5ErkJggg==;" parent="FvvUnZhEkorayf8Jf28f-124" vertex="1">
          <mxGeometry x="390" y="156.31" width="108.17" height="150.87" as="geometry" />
        </mxCell>
        <mxCell id="FvvUnZhEkorayf8Jf28f-123" value="" style="rounded=1;whiteSpace=wrap;html=1;fillColor=none;arcSize=2;container=0;strokeWidth=8;" parent="5TNmEjjNw1LSNoUuKL9D-57" vertex="1">
          <mxGeometry x="1023.19" y="273.9130434782609" width="260" height="190.8695652173913" as="geometry" />
        </mxCell>
        <mxCell id="cIVPygsxnitpnjpmNiHX-4" value="" style="html=1;overflow=block;blockSpacing=1;whiteSpace=wrap;shape=image;fontSize=13;spacing=0;strokeColor=none;strokeOpacity=100;rounded=1;absoluteArcSize=1;arcSize=9;strokeWidth=0;image=https://images.lucid.app/images/50555fcb-d07c-4787-b75e-063fa6ec9eae/content;imageAspect=0;lucidId=lQu2O-T0L5wI;" parent="5TNmEjjNw1LSNoUuKL9D-57" vertex="1">
          <mxGeometry x="973" y="226.08695652173915" width="111.04" height="95.21739130434783" as="geometry" />
        </mxCell>
        <mxCell id="iBmOrdFq_I3-XjCz09oH-24" value="" style="html=1;overflow=block;blockSpacing=1;whiteSpace=wrap;shape=image;fontSize=13;spacing=0;strokeColor=none;strokeOpacity=100;rounded=1;absoluteArcSize=1;arcSize=9;strokeWidth=0;image=https://images.lucid.app/images/78777008-c90f-472e-80c9-89578df3496e/content;imageAspect=0;lucidId=jLu2Ma6TIswx;" parent="5TNmEjjNw1LSNoUuKL9D-57" vertex="1">
          <mxGeometry x="1090" y="313.0434782608697" width="130" height="118.9304347826087" as="geometry" />
        </mxCell>
        <mxCell id="sFFRV2_pZUIe4wjo2QSo-16" value="" style="html=1;overflow=block;blockSpacing=1;whiteSpace=wrap;shape=image;fontSize=13;spacing=0;strokeColor=none;strokeOpacity=100;rounded=1;absoluteArcSize=1;arcSize=9;strokeWidth=0;image=https://images.lucid.app/images/f3c67eb4-e00f-4c75-8e77-e367727872bb/content;imageAspect=0;lucidId=jIu2dff6w-XZ;container=0;" parent="5TNmEjjNw1LSNoUuKL9D-57" vertex="1">
          <mxGeometry y="50" width="200" height="214.35" as="geometry" />
        </mxCell>
        <mxCell id="5TNmEjjNw1LSNoUuKL9D-45" value="" style="shape=image;verticalLabelPosition=bottom;labelBackgroundColor=default;verticalAlign=top;aspect=fixed;imageAspect=0;image=data:image/png,iVBORw0KGgoAAAANSUhEUgAAANEAAADyCAMAAADk3NBFAAAAnFBMVEUAljn///8AlTVCqWIAkCYAjh/B4csAkzAAlDMAjyIAkSsAjyUAjRz5/fvA4Mn1+/fo6Oigz63J5NGLi4vX691Trm2DwpV2vIoon02u17rw+fOTyqPU6tvO59aZzailpaXz8/OWlpY0o1ZktXzm9OtVr29uuYMWm0Tg8Oa4uLja2tqt1rk4pFmWy6VGqWQAhwDExMSsrKzR0dGHh4c56wiyAAAKGElEQVR4nOWde3uiOhDGkwgNRLy2BS9trVov1dbT7fn+3+2Adq0XEiY3JJz3eXaf7h8r/IR5OzOECcJ1E7r1CRhXOUQPvTiJew+lHKsEok5MQ0YpZSGNO/YPZ5+oxxj6K8Z61o9nm+hu4KFTeYO+5SPaJXp7DAk6F/Ef36we0yZRK/YDdK3Aj1sWj2qRaItYDs8+nNDQ3mGtET3NmhyeTM3Zk60DWyIazaPLALoIp2g+snNoO0RjRoU8mSgbWzm2DaL2ihdAF+G0als4unmi9ceVY3NvvfBjbfz4polGSa5j8xT4ielwMkzUo8UBdC5KDSdGRonaK68Y4UreymhiZJBovfOhAXQuEi0MJkbGiDpJKBNA56KeucTIFNFpzaAiRk0lRmaI+gNRygNTOHs2ci4miN7migF0LuIbSYwMEMWerGPzZCQx0iYaUr0AOhdD2omRJtHzR2iQJ1O402wZaRGNzATQuYIw0eoY6RCNQ1MBdC7qvdyECFozqMgb3JVO9LAD1wwqIqFyYqRG1JGrGVSU1hlq4aRE1AMU3fpianWGAlF/oFIzqEipAStNlNMmtSeVcJIkasWR7QA6F5VuwMoRbYk9x+ZJtgErQyRuk9pT80OmAQsnKmyT2pNUAxZMNDZWM6hIos4AErW5zxnKErgBCyJ6aJTo2DyRsAFqwAKIRknJjs1TEEEasMVEPaNFqp4giVERUV+pTWpPxYmRmGj9aKFI1RPxH8XhJCJqxRptUnuioTAxEhBtg+oE0LkY2SoQPRtok9pTc8BtwHKIDLVJ7Yn4c06dkU9025QHJurlJ0Z5RMMb1AwqYiQvMbomSlOeW58qWGHjugF7SdRZVtKxeQrC5WXH6ILoxYEAOtdVA/aM6K5iKQ9M3uqOQ7Qus8tjUiQ8TYyORC37bVJ7CvykdUlUpZpBRb91xoHoodIpD0zNwcMvUa/iKQ9MxO/9JYqjW5+MIUXxgWhYF6AUaZgRjdy2hHPRUUqU1ImIJRi1XEwT+PJaqF0zojaKXUtNxaIxmrub++QpmKOd1i9XElAaGP31TPQ+j+xQQ/n/E9Zks0WyfBwwz1BZxULUWM5nrKn8caShTuStxseS+G04p572pWLo86cq6C9VvyJ1Inr5dLSz1V0U4I1PWqXrhVrurEzUnOc0arda9x67eNg69lU+RZXIi695suuk+MVmCq/68y8qPSlFIjrPBUr1qfTFpgpzWm9LhUuuSET4zwa2aol87nfUUcg41Yg80ZKJrVL/0sttYr/II6kRMQFQtjJS+gN5t7FCFq1ExI+igxby3yzvqi+kUzQlosL3jj+kI/ra6A6Sv+2UiLyipRIjJPuZPsdq5EsdNaLCVbEPsh7ucz7oripEuC3p4dUnwmO55MEBIjyXimkXiPBMxnidIOrIGJ4TRPhB4mzcIJIxPEeIJDI8V4jwEmp4zhCBMzx3iKCG5w4RXsNCySEi3AYlrS4RwTo6ThGBDM8tIojhOUYEMDzHiPC68L5zjQjfFWV4zhHhlwIPd4+oyPCqSiRaKb8TGl5ViXYCotZKdJyqEv2T/1TpoDfRyVWVyPdF/eO+IB2qLBGKRC8H9fhI1SVCTPTSNH9NVYWJyEpkeA2e4VWYCFElw6syEfISAdKac4aVJkJiw8vP8KpNhHyh4eVmeBUnKjC8vJOsOpHY8PIyvKoTiQ0P5xhe5YnEhvd2/Yu2+kQFhnflDg4QiTO87SWSC0RyhucEkZThOUGEaENA1FqdPXh2gwixpQDp7ewiOUKEQpHhPZ9meK4QIV/UBzs1PGeIkCcadxH/nq47RGLDezzGkjtEYsPDR8NziEhseCNK3CNCoWiS6HPoIBGKAIbnFhHE8BwjIivRGNH9WmrHiBD9EBDhQeAeUbHhOUckNrwn30EicYY3jBwk4r5HsFf8j4NEBIkMj9cNqzKROMPj0VaaSGx4ThKh8LNuRCiS3nmh6kSIye5IVXkiseG5SFSQ4blIJGt4t37rDbJsWM7wXCBCvozhOUEkzvCcJJIxPDeIZAzPESLECl7jdo8IhdCh984QgTM8B37DHj8DtrWWQ0RAw3PnrkMoGNSNCGZ4ThGhJsDw3CLaD22sFxGKCg2vLCLOdzuSHUJDSNEWHyURMU6JA3xT9ESFhtcrZ3JLwOmAbuWn6rCFmEh+AKLaBKQo/5G+/HCf1PBEL49gXNIEJM7AoJyljQAJV9ooXHXV2Wh5F2muNrwu4iN1ypuNRnOWod6p7oDgc2+8RXlEOfeKvNEd5e3yTXypMoVReWri5Rfb15kBGeQ91GwtlD5SfbKldzpsvxVrjnD3VtuL0BwStbDUmD4ahMuf5cLrT/1dUYhHk/Zxre76RXmbCJ15qoh63moxn9GmmXHa1GvS3TxJFtknqo+tbehN8SUB1fnv159HdYcCk10NJy3Xbxp2/SaWd2pG1Knh5H88qlMg7XdnqN8OGnXa5SRrmB12ornZfsMmRaLjTjQYP9Vit6DDyPO67uiEa7jrFq7fzmiZ6rZ7Xaa67TCIa7gLZObkNdupM5M7u6nmPSX5f+x4i2u4KzGu387Rmeq2uzeu4Q7sOEuMKhdOxH8ULzkUE1UvMfJWolEWEKKszqiOk//WDDpEeJRE1QinIEqKlgvAiPZbmN8+nEjYAK3ZBRFh3Ea3dnK2Aq4yBBLdOjGiDLoQFE6ER/ObdYxINC8KoO73pitLlCZGs9skRs2PJ/GJvb7fT97fJ/dfskRpYnSDOoNd7mV4pe79V+sANn2VJUoTo5KdnPrClOcA1P374/dUmiitM8rsGJFwIRoNddB0k0JNp9PJBuOvd3miNDHS3cASLG9WlPKk2kwOl6n1lV2r6asCUbbsrQwnh6Q8qd6//95495vsX0pEuGO/ARv4CewdmGk3I0otYZP99f2uRpTWGTur4QQKoB+ilKM7nUymk/QHvFEmShOjlT0n9wbwqeiT/TXadLuT9/Rf31/qRNluQHbCiXqgAPrRMY72t96fjQ4RHi0tlLhBCAygH3Wn6Z9/M2dI/3q9V3HvUz19mG7AhjvYay+/+vOFX7+yGEr/mnzrEmE8NPoojSHpd89Tb/g6wv1RyBmuFRurMyRqhjNNsnQBt76nmTcYIDLVgCV+Yc3A02aSZkHTP/v8zgQRxn0DiVE4K6gZxHp9/fnBDFGWGOmFEwuK33SByRRRmhhpNGCpV1gzgGWMKEuMFMOJROCUByCDRFlipBJO3gBQM8BllEhloQewZoDLMBEeydUZ4JoBLtNEaTjBG7DEh7VJpWSeCF5ngNukUrJBlNYZgLJdNeUpkh2i4gYsoE2qKEtEaZ0hbMA29VIekawRpXUG93lGcZtUQxaJcCvOdfKguE2qI5tEuQ1Y4j8aTHlyZJfougFrOOXJkW2i8zqD5b94alT2iXBnTENGKWUhHZtOeXJUAlGq/kucxC+277eDyiEqU/Uj+g8Z08IYu4agGAAAAABJRU5ErkJggg==;" parent="5TNmEjjNw1LSNoUuKL9D-57" vertex="1">
          <mxGeometry x="200" y="288.47826086956525" width="97.62608695652175" height="113.04347826086958" as="geometry" />
        </mxCell>
        <mxCell id="5TNmEjjNw1LSNoUuKL9D-56" value="&lt;font style=&quot;font-size: 100px;&quot;&gt;GenTI&lt;/font&gt;" style="text;html=1;align=center;verticalAlign=middle;resizable=0;points=[];autosize=1;strokeColor=none;fillColor=none;" parent="5TNmEjjNw1LSNoUuKL9D-57" vertex="1">
          <mxGeometry x="557.19" y="36.95652173913044" width="300" height="130" as="geometry" />
        </mxCell>
        <mxCell id="a92Ev_D0MIeYBMAe9tEo-6" value="g" style="group" parent="1" connectable="0" vertex="1">
          <mxGeometry x="3520" y="220" width="600" height="490" as="geometry" />
        </mxCell>
        <mxCell id="FvvUnZhEkorayf8Jf28f-132" value="" style="rounded=1;whiteSpace=wrap;html=1;fillColor=none;arcSize=2;strokeWidth=10;" parent="a92Ev_D0MIeYBMAe9tEo-6" vertex="1">
          <mxGeometry x="110" y="120" width="490" height="370" as="geometry" />
        </mxCell>
        <mxCell id="FvvUnZhEkorayf8Jf28f-131" value="" style="html=1;overflow=block;blockSpacing=1;whiteSpace=wrap;shape=image;fontSize=13;spacing=0;strokeColor=none;strokeOpacity=100;rounded=1;absoluteArcSize=1;arcSize=9;strokeWidth=0;image=https://images.lucid.app/images/e6834f6b-b0ea-4aa5-b8e7-f24d1d440c8c/content;imageAspect=0;lucidId=sTu2K.Aaf2LC;movable=1;resizable=1;rotatable=1;deletable=1;editable=1;locked=0;connectable=1;" parent="a92Ev_D0MIeYBMAe9tEo-6" vertex="1">
          <mxGeometry width="210" height="222.61" as="geometry" />
        </mxCell>
        <mxCell id="lMfvkDm7O5ewdK1zKt-M-4" value="" style="shape=image;verticalLabelPosition=bottom;labelBackgroundColor=default;verticalAlign=top;aspect=fixed;imageAspect=0;image=data:image/png,iVBORw0KGgoAAAANSUhEUgAAAgAAAAIACAYAAAD0eNT6AAAACXBIWXMAAA7DAAAOwwHHb6hkAAAAGXRFWHRTb2Z0d2FyZQB3d3cuaW5rc2NhcGUub3Jnm+48GgAAGwdJREFUeJzt3XvYbVVdL/Dvfjf3u4JcNAUUUBJQT5ZJJmTej2WmKaZ11PIWaql5OZr3o0WZCiqkkqaGEh1NovPktUjMEFOJRFOUA6ggl4037pf3PX8M9tmbvd93rTnHXGvNdfl8nmc8D8/Du+b8zbHnmvO35hzjNxIAAAAAAAAAAAAAAAAAAAAAAAAAAAAAAAAAAAAAAAAAAAAAAAAAAAAAAAAAAAAAAAAAAAAAAAAAAAAAAAAAAAAAAAAAAAAAAAAAAAAAAAAAAAAAAAAAAAAAAAAAAAAAAAAAAAAAAAAAAAAAAAAAAAAAAAAAAAAAAAAAAAAAAAAAAAAAAAAAAAAAAAAAAAAAAAAAAAAAAAAAAAAAAAAAAAAAAAAAAAAAAAAAAAAAAAAAAAAAAAAAAAAAAAAAAAAAAAAAAAAAAAAAAAAAAAAAAAAAAAAAAAAAAAAAAAAAAAAAAAAAAAAAAAAAAAAAAAAAAAAAAAAAAAAAAAAAAAAAAAAAAAAAAAAAAAAAAAAAAAAAAAAAAAAAAAAAAAAAAAAAAAAAAAAAAAAAAAAAAAAAAAAAAAAAAAAAAAAAAAAAAAAAAAAAAAAAAAAAAAAAAAAAAAAAAAAAAAAAAAAAAAAAAAAAAAAAAAAAAAAAAAAAAAAAAAAAAAAAAAAAAAAAAAAAAAAAAAAAAAAAAAAAAAAAAAAAAAAAAAAAAAAAAAAAAAAAAAAAAAAAAAAAAAAAAAAAAAAAAAAAAAAAAGB16/sOAGhsjyT3SnJYkp2SXJfkpl4jAmbWugnua9uUi9cBSQ5Msl+SnZNsP8EYatyS5OokG5JcluT8JN9IcnOfQd3moUme1XcQY/STJNcmuSqlz7+W0v/LfQY1YdsmeVqS30ly/9w+ab85yT8neVeSj048sumwSzZdVw5IsleSXZNs019InXwvyevX+H/7JTm+5fY+luRDnSJic/slOTzJwUn23Kxt12dQFb6atc+zkVhKcnSSP07y2ZRfKytz0m5M8uUkf5pyE+4riXn2gBjntV2V5LQkj8v0J49d3S/JBWnWL59Nsn8/YU7Ujkl+PcnbU76Dt6T/c3KU7bEDjv3giu39cZNOZU0HJnluktOTXJn+z49RtFuTPGCUnbS5+yU5IcmlU3Cgk2o/SvLuJA8cQf+1sYgJwObtyiSvSnKHrh05hR6Z9knz91N+ncybdSn9cUqSH6f/825c7bQh/SABmIw9khyb5Nz0f06Mo7V9ijTUuiT/PclnpuDg+m7nJnlCyhOQcVv0BGBjuzrJ72V+xrQclpJU1vTFxUn2nnzIY7FDkt9Nee3T9zk27rYhyb5D+kMCMF53TXJSymvHvs+HcbWLU16bjczPJzl7Cg5s2tp/piRF4yQBuH37fGb/Mfg2KY+2u/TD30w86tFal+SJSS5K/+fUpNrTG/SLBGA87pTy1PqG9H8ejLuN7J60Z5IPpgzI6vugprl9JMlPVfbxMBKArduGJA/r0qk9e2lG0w+/MunAR+TQlPEMfZ9Hk2yfSrMB2RKA0XtK5ufd/rD24RH1WR6WMlq17wOalfajJE+q6unBJACrtxuTHNOhX/tyUEY3WPaSJLtNNvxO1qW8xpmnwcJN2jVJ7t6wjyQAo7NXkn9I///+k2obMoJXg+tSTii/+uvaOzPakesSgLXbLUl+rb5rJ25dRj+G5h0TPYJ6u6SMsu77nOmjvahFP0kARuP+Ke/C+/63n2R7WtdO2yFllGrfBzLr7cwku7fr+jVJAAa361PGqMyCp2f0x39rkiMneRAV7pzuYx5mtZ2TdgNXJQDdHZNyXej7336S7dPpWPNn1yRnTcGBzEs7N6WgRFcSgOHtoiR3rOzfSdkn5RHdOI7//ExvvYSDU15V9H2O9NFuSnJERX+13Y8EYJNnZP7qRgxr1ya5x1od0mSq2k5JzkjyoAZ/SzP3SXncu2ffgSyA/VOKxkyz4zO+JOWnk7x8TNvu4oCUXyZ37TmOvhyX5Ly+g1ggz05ycuZnqnBTr0vy7doPb5vkE+k/i5nXdnZKOeRangA0bw+p7ONxe0zGf+w3pCQC02K/JN9K/+dEX+3rqXsq4wlAncdm8X75r6S8WutUEvuEMQS1nOQ/kvx5yhSM+6ZcEKa1lvK2KSNGj0gpP/umlGlKozqhTk/9+5maBOCoyn1N2k4pF7xHpgxm61pZ8t8nG34ju2Zyj8D/NZMpTjXMtkk+l9Ee29VJTk3ywpRE76CUvp03EoD2fjajLexzQcqThKemjC86KLM126axp2a0X9JLkrw6yd0meRBjtHdKucivpXvfvKQyhnlOALa0Y5KXpb5C3kqSR0086sHentF+x4a1YydzWAON6phvSvK3KWtxLMpjXQlAO3tkNAn21SnrvjSdrjnzDsrosqbvJnlmpvcXflfrkvxqymO9LhezmnUEFikB2OjQNF8gZ8t2Rg/xruWBKaP02x7DcpITKz63kpI8jasoVROPWyOuNu3WJO/PAl2MNyMBaOfD6XaubUhJmru8pp0565L8U7p/UZdTBjfN46O41WybMtjqxtT11/lpnyQtYgKQlNKdF6b9sd+U6aiTv13Kcpw158l7b9vGpyo///fjPrg17JHur3G+lskvuDVNJADNPTndzrVTU2bnLJzfTfeb/1UZfx38aXW/1N2cVpK8ouW+FjUBSMqqdzVPqZrUXB+3V6fu/Lg8m2aOHJz6+cxPHPPxreY9lbFubH+VUotkkUkAmtkl9ZVqr0vyG5MPeTrsnLKkaJcv6sVJ7jnpwKfM3qlbIOm6JHdpsZ9FTgCS5I1pf/wf7CXSTQ5N/aIjT91iW6+p3M73M9naCIen7nXHxvbSCcY6zSQAzfyv1J1nV2axnzB1XojkoizuvN4t7ZbkC2nfh23Wal70BGD3tF8f/pu9RFospb6g1idW2d72Sb5Rub2/HMPxreUjlTGuJPn9CcY57SQAw+2buvUkLk1ySA/xTo1dUh7d135Rr4pf/lu6Y9oPWLsuzasELnoCkLQvT31z+huQ+pyGMa52TqxVzeuXU7c2x3ImUxvhvpXxLeLNaxgJwHBvSPs+uiGzUzJ8bJ6Z+pv/cpJHTz7kmXDvJD9Ju/58Q8NtSwDqaugf1EOcd0nyw4pYV1KmPw7ywcrtXpAyvXKcTq6M7R/SsX75HJIADLZT6n7EPq2HWKfOOalPAN7WQ7yz5Hlp15+XpNncZglAcnTa98HP9BDn31XEuZJSNGvbIdveO2Wucs32jxvR8a1mt7RPfleSXJEFHYE9hARgsJofA3/dS6RT5j6pv/l/J4sz1a/WUpLPp12/PqLBdiUAyb3Svg8ePOEYH18R40rKwLkHNNzHsyr3cXPKzJVxqI1pGmZqTCMJwGAfT7u+uSbtBl3PnY2lQR/bYRuvS8nyWdty2i/I8oRxBDKHapZWvmHkUaxtj9QvRnRiykDSJk5O8m8V+9gmZYpep5rha6i5rpybUugH2tgrZTxMG3+SMl1w4bX9dbqxXZzhjyfZ5DNp17fDeAKQ/Hra98GhE4zv3RXxraQ8WWtbY/yIlF/0Nfv7w8rjW8sOqavTcMyI45gnngCs7X+kXb/8MGXMwEJbShmp/nOVnz855YJDMye1+Nu7ZbI3qlnV9nH+Skp56kk4KqWwVo0XpExxbOO81I/HeV1GW173wWl/gf1eypRBaOsXWv79aSmzaxbaUpL7p24xjZWU6lw0d3qSH7T4+7Yn9aLZuA5DG5dmMq+sdkj59V8zkv1jKYMGa7w2ZRBpWzsleVdGN/K+6diFzZ0WPyio0/Za6TVTynu/Iyo/e17KY0qauzlloMqTG/79YWOMZR48KcmBLT/z5XEEsopXpa6wyI+TPL/Dfq+97fOnV3z2oUl+O6O5OB5e8ZmPjmC/LJ7dUgYDN3VDkl9M8qDxhDO1PpRV7tnvT907wz+bSMjz5xlp3sefHrKtRR4DsHOSb6X98f/BBGI7ImXhoZrv1fNGFEPttMOrMpoFk/6r5X6vz/yuGDoqxgCsrssstkVpZ2XToP//byn17/2+Uvm5Rdem3w4eWxSzbV3K66e1quMN8o+jDWUr61NG1dcMjv1Cysj/UXhByjSntvZMu3LUq1mX9teVL6ckTdDWAX0HMOVuTJmSu7zl/1hKmT5R4/wuES2wr6VkZE3sOfxPFs62Sf4iddMkv5hSO3+cnp+6QbU3Z40vaaXvpCwWVOOYdFvNc7e0T4Au6LA/FtsBfQcw5d6Y5Our/Y+l1N9kvl8dzmK7MaVqWxM7Z/ylWmfJIUk+lXKjrPGeEcaymv3TvIzzlt6SMq5mlE5ImVdf48TUF/iquabUDFyERCG6Qb6aAdU+l1JXSCVpfhNja1e1+Nvaf595sT5l3MK7U07moyq3890kHxhVUGs4KWVRrbYuTPL6EceSJLekLEBU81Thbim/HGrUnLOKiVHL2JHV3ZoyDXnNV2vb3PZHNZo+xmZrbfrulrFFcXv7pVTGmpYnDjumlOk8MKWaXlevT3n6Mi5PSfKoys8+N+Obk/yFlOl9z6347LEpI4fPbvm5mnN2Uuc580cCsLp3ZEgl0W1SsoOai/428aWt1eaEHedNa3OXpfyCPT2jGQU+Tc5J8pdj3P5eSd5a+dlTknxyhLGs5hVJHpeyVnobSymvTX4m7Qbo1czln5bEk9njPrS1i5P80bA/Wkr9DWbebhKT1KbvJpUAJOWX3pEZ/0C5SbouZerlqAbXreYtSe5U8bkNSV404lhW88MkL6787GEZvhzxlmrO2Zr+g8Tr6NU8Nw1mAS0lubxyB/tXfm7R7ZXm74mvzuSnRn07JQk4a8L7HZdjM94ZKw9P8luVn31JytK3k/ChlAGUNV6ZdoVWLk/7V4R3bfn3sNGGvgOYMqek4XTnpSQXVe6ktoLgomtTIe3/ji2Kwa5O8rAkp/a0/1F5Y8ZbrnrnlCmJNc7M5EtpH5u6lRC3T3kVsFUhkTVcl/aJzX1a/j1sZEbaJlelRbGzpdTfZB5Y+blF16bfLhpXEA3cmOQ3UwYGzqK3p5TjHafXpX0p4qTchJ+TyQ+kvSD1leEelHbTLy9quf27p74mCYtNTZpNXpgWs8y2SX3nPTRlilbtLIJF9YgWf9v3ib2S5H+mJInvzHjWjB+1lZQbf+0Utqbun/qywm9Kf+MsjktJ7O5Z8dk/SXJGmq2hfn7aLQi0lPLdOKUiLhbbd1PGuTSdLXRTSrGueZx6emHbDxyW+vrCR48i4gWyb0rC1LR/Hz5ke5NcC+BRKQvV9F3TelC7MsmjK4+vjW1SSjrXxHh++p+29JCUQZE18X+s4T5+p2Lb/7vzkc03awGs7cy065en9xLlFFpKWaK25mLwwR7inWWvSPO+vSWlpOogk14M6L4pv/76vMmv1U5JqWUwCS+rjHE507MC2QdS39dNyjDfq2K7N6X9VMVFIgFY26vSrl/O7CXKKVW7ctiNSe7cQ7yzaPuUteib9u3AAg636WM1wLumlKzt60a/Zftk2q8F3sVBKYPcamJ91wTjHGbvlNHTNcdxaZI7DNn+utQli7WllBeBBGBtP5d2/bKc5N69RDqFfjP1F+BpuqhNsxelXb/+YYNt9rUc8G4pN94+bvgbb0BvTXkiMUnrknymMubLsukd5YEpc3T76r9RtCbrKrytYrs/jpoAa5EArG19ysyTNn3z8V4inUK7pv5XzS2Z/IV41twpZWpd0z5dTrM6C30lAElZ7e29FftfrV2eUn9gtfaVlJvuiSnT2A5LuRH34RmpP8YnbbGtF3bY1jS05QwfA3Rk5bZPHrLdRSUBGOytad8/j+kl0in0odRfDM5NecTN6tq+Yjmz4Xb7TAA2elXqB5RtbBekXaGZPuyT+kfm/2eV7a1Pec0ziZv1uNo3M7iE77qUf9u2211OqUPB7UkABjs8ddeeYWOtFsLPptvF4O2TD3kmHJv2ffnYhtuehgQgSZ6aMh6ky/nzg0z3Rf9vUndc12TtpzmHpwx8G+dNetztTUP6reb8X0kp7vJTQ7a9aCQAw/1b2vfRGWle5Gqu/Uu6XQyeN/mQp9rDUxZGadOH/5XmJ+O0JABJ8ktp95pjtXZz6latG7dfSf0xDav1/4YO256GdlMGV/HbOfVPTr4Yv842JwEY7jGpO9eGJbIL4WHpdjHYuP4wyS+nbqDXb7fYxzQlAEny0ylFg7reVE7I9BQd2jXJJak7ji9l+HFsn+TrlduflnZOyiuNtfxRh22fleZrZ8w7CcBw65L8e9r303IarJ63CM5It4vBcpKXp7+BWtPgSUmuT92FtM2jqGlLAJIyj/uLFXFt2T6eZPcxx9rEO1IX/y0py+g28aC0KxA1jW3Qk44dU0oD1277S0nu0qwr55oEoJkuP2RPyuBkdu4dku7vc1eSnJbhc4XnzfZJ3py6QXHLaT+ffRoTgKQ89v37iti2bOcnuccE4l3Lkam/Mb+l5b7eWbmfaWnXZPC6CMd03P73Mt1jRCZBAtDch1N/rn08C746ZZdHdpu3S1Oqhi3C04BfTLlh1fbViRX7nNYEIClZdO2v583blUkePKGYN7ddkq9WxLuS5OK0f2y9W5LvVO5vWtonBhzfunRPCpdTfqEt6qJBEoDm9k19hduVlHoUz8+CDg5cn+RzGd2F4eyUGu3z2JkPSPfXJl9LslPFvqc5AdjoRen+ePvGTL5296s7xFs7t7jLYMNpab814Pj2Thnd33UfP0jymixewSAJQDtPSPdz7byU+h87TDj23h2Y+tG7a7ULk7w2ZSW1WX4qcM8kL079gjCbt+uS3K8yjllIAJLk8akvNLV5Oy6TSSIPTVmytybG0zru+9TK/U5LuzKDb8yPTBkfMYp9XZ/yqPfxKYM1550EoL0TMrrz+k9TVsGt+bE2lYbdhB+cUvJ1HEV+rk4pIPTVlEpwjdcw7sHuKY+U7pVS9XBU6x8sJ3liko9Ufv7ZSf6i5WeOTpnuOWkPTHJ6uv9qOz2l7sA1nSNa3VKSz6ZufYEfpsyEuKzD/vdJ8voOnx+lhya5e8XnTkn5N1rLC5IcXxXR2m5NeQX3HykDDi/L7C5Vfn1WX2jt4JTiS238XUqStAjOTnmNtrntU15NjfKHz00pA7a/lVJ++PKM73o0To2WQ35Kuld601ZvL23yDzDArDwB2OigJN9YI6427dyMb5DOczvE9ewxxdSXo1L/3X/UkG0fX7ndRWgvX6PPap4ALEq7MGXw8Wp2T7lm9B3jtLXGdXueldmfpjRt7bVNO3+AWUsAkmTPjGZ8yWUp4y9G6S5JflQZz+cyn2Nc/jp1/XFRBg+EXEpZSKzv7+G0ta9k7doREoDVW5PS0fulFFnrO9Zpaf+alterJ6d9VTtt67acZiv9NTGLCUBSHsudku59eUMGP2puq8uy2PO6tOg+qR9N/dYh216X5M8rtz2P7dYkPz+gvyQAq7f3Duizzd0xyeenIN6+W/X16tHpXu51kdu1Ka9URmVWE4CkXPyPS/c+XU55mtJ1UGmXEcPzvob976euX25JWad9mBfHj4uVlGRoEAnA1u2ylBt7U7ukLM7Vd9x9tte26K+t3CNloE3fBzFr7dsZ/bLJs5wAbPScjObif2oGr0w3yB1SalbU7Pcbmf8pQtuk/h3qeSlLRw/zSymDqfr+nvbVBr3D3kgCsHX7jSF9tpqlJK/M6GajzFI7PyMY1L9TSsW7RezAtm05ZX3zPap6erB5SACS8mTpJ+ne119IedfX1nsq97eccuNaBL+Q+gGBr2y4jzun/jXMrLdHNOiffaYgzmlqH23QZ4MclTKSv+/jmFS7NaW66cjcP6OZCz+v7ZtJHlLdu8PNSwKQJP8t9b/CN2/fSbu6Cken/sb2vrpDnVnvS10/XZ9SO6OpJ6SU/u37+zup9oGG/bKU0RRSmof2g4xmOvaOKdNua+t+zFJ7xwj6aytLKQMEjbDc1C5JmTnR5NFnF/OUACTJ3ZL8Z7r3/zVJfq3B/nZI/bTEK1JmNCySvVM/Buhf0m6cxk4pg2WvrNzfrLQr0q608ZunIOZpaM9s0WdN3D3lSe1NU3Bs42iXZMzFstanJAL/nMWtG3BOyok5jsJJq5m3BCApc3Y/ne7/FrcmedmQfb2pw/YHlbydZ7+X+j57VsX+dk3yB+m2zsY0t7aDgvdM/fLU89L+KeOrJHtAkrelFKbr+zhH2WrLk1c5JGVk9Jcy/8nA+Un+LMl9RtJz7cxjApCUJyfvy2j+ff4qqydkR6Q+2//kSI92tqxP3XrrKymVErs8tj0y5THmtyv3P23tHyv74d5Z3CTg2pSCYuO2XcqrqNMy+zPfTh1x37Syb8qvpTenXDhn+d3eFSnZ5/EpC0TsP8J+qjGvCUBSMvzXZDQJ5Fm5fQni9SlPa2q2dV36XaJ4Gjwg9YXBug7c2uiQlBkkJ6UUYZq1i/Q1Kb82a+2dsoT0j6fgWCbZXtKhz2qtT6nP8JIk70/5YTuKQcuTaBtSBo+uqq8FedanPMraK/VTtyblxpTHQRtSpqtNkzulvDdv45tpWAN6Shya0Sy+cUU21QnfMaVmf40fJ7lgBPHMununfvrjuRlPnf7tUq4pe97239PsRykj0LvaPuU7sihLJJ+ZMvtsGuyQTefbWtUb+7YhpSonAAAAAAAAAAAAAAAAAAAAAAAAAAAAAAAAAAAAAAAAAAAAAAAAAAAAAAAAAAAAAAAAAAAAAAAAAAAAAAAAAAAAAAAAAAAAAAAAAAAAAAAAAAAAAAAAAAAAAAAAAAAAAAAAAAAAAAAAAAAAAAAAAAAAAAAAAAAAAAAAAAAAAAAAAAAAAAAAAAAAAAAAAAAAAAAAAAAAAAAAAAAAAAAAAAAAAAAAAAAAAAAAAAAAAAAAAAAAAAAAAAAAAAAAAAAAAAAAAAAAAAAAAAAAAAAAAAAAAAAAAAAAAAAAAAAAAAAAAAAAAAAAAAAAAAAAAAAAAAAAAAAAAAAAAAAAAAAAAAAAAAAAAAAAAAAAAAAAAAAAAAAAAAAAAAAAAAAAAAAAAAAAAAAAAAAAAAAAAAAAAAAAAAAAAAAAAAAAAAAAAAAAAAAAAAAAAAAAAAAAAAAAAAAAAAAAAAAAAAAAAAAAAAAAAAAAAAAAAAAAAAAAAAAAAAAAAAAAAAAAAAAAAAAAAAAAAAAAAAAAAAAAAAAAAAAAAAAAAAAAAAAAAAAAAAAAAAAAAAAAAAAAAAAAAAAAAAAAAAAAAAAAAADQyv8DdkwdBnpRmXwAAAAASUVORK5CYII=;" parent="a92Ev_D0MIeYBMAe9tEo-6" vertex="1">
          <mxGeometry x="200" y="134" width="342" height="342" as="geometry" />
        </mxCell>
        <mxCell id="lMfvkDm7O5ewdK1zKt-M-25" value="" style="endArrow=classic;startArrow=classic;html=1;rounded=0;strokeWidth=11;" parent="a92Ev_D0MIeYBMAe9tEo-6" edge="1">
          <mxGeometry width="50" height="50" relative="1" as="geometry">
            <mxPoint x="-280" y="270" as="sourcePoint" />
            <mxPoint x="50" y="270" as="targetPoint" />
          </mxGeometry>
        </mxCell>
        <mxCell id="RIdAFQ6ZEUcjRRq-e_PQ-5" style="edgeStyle=orthogonalEdgeStyle;rounded=0;orthogonalLoop=1;jettySize=auto;html=1;exitX=1;exitY=0.5;exitDx=0;exitDy=0;strokeWidth=10;" parent="1" source="iBmOrdFq_I3-XjCz09oH-4" edge="1">
          <mxGeometry relative="1" as="geometry">
            <mxPoint x="1094" y="-706.4988888888887" as="sourcePoint" />
            <mxPoint x="1520.9" y="-706.12" as="targetPoint" />
            <Array as="points">
              <mxPoint x="1224" y="-707" />
            </Array>
          </mxGeometry>
        </mxCell>
        <mxCell id="lMfvkDm7O5ewdK1zKt-M-8" value="" style="shape=image;verticalLabelPosition=bottom;labelBackgroundColor=default;verticalAlign=top;aspect=fixed;imageAspect=0;image=data:image/png,iVBORw0KGgoAAAANSUhEUgAAAgAAAAIACAMAAADDpiTIAAAAA3NCSVQICAjb4U/gAAAACXBIWXMAATcvAAE3LwE2dZYYAAAAGXRFWHRTb2Z0d2FyZQB3d3cuaW5rc2NhcGUub3Jnm+48GgAAAwBQTFRF////AAAAAAAAAAAAAAAAAAAAAAAAAAAAAAAAAAAAAAAAAAAAAAAAAAAAAAAAAAAAAAAAAAAAAAAAAAAAAAAAAAAAAAAAAAAAAAAAAAAAAAAAAAAAAAAAAAAAAAAAAAAAAAAAAAAAAAAAAAAAAAAAAAAAAAAAAAAAAAAAAAAAAAAAAAAAAAAAAAAAAAAAAAAAAAAAAAAAAAAAAAAAAAAAAAAAAAAAAAAAAAAAAAAAAAAAAAAAAAAAAAAAAAAAAAAAAAAAAAAAAAAAAAAAAAAAAAAAAAAAAAAAAAAAAAAAAAAAAAAAAAAAAAAAAAAAAAAAAAAAAAAAAAAAAAAAAAAAAAAAAAAAAAAAAAAAAAAAAAAAAAAAAAAAAAAAAAAAAAAAAAAAAAAAAAAAAAAAAAAAAAAAAAAAAAAAAAAAAAAAAAAAAAAAAAAAAAAAAAAAAAAAAAAAAAAAAAAAAAAAAAAAAAAAAAAAAAAAAAAAAAAAAAAAAAAAAAAAAAAAAAAAAAAAAAAAAAAAAAAAAAAAAAAAAAAAAAAAAAAAAAAAAAAAAAAAAAAAAAAAAAAAAAAAAAAAAAAAAAAAAAAAAAAAAAAAAAAAAAAAAAAAAAAAAAAAAAAAAAAAAAAAAAAAAAAAAAAAAAAAAAAAAAAAAAAAAAAAAAAAAAAAAAAAAAAAAAAAAAAAAAAAAAAAAAAAAAAAAAAAAAAAAAAAAAAAAAAAAAAAAAAAAAAAAAAAAAAAAAAAAAAAAAAAAAAAAAAAAAAAAAAAAAAAAAAAAAAAAAAAAAAAAAAAAAAAAAAAAAAAAAAAAAAAAAAAAAAAAAAAAAAAAAAAAAAAAAAAAAAAAAAAAAAAAAAAAAAAAAAAAAAAAAAAAAAAAAAAAAAAAAAAAAAAAAAAAAAAAAAAAAAAAAAAAAAAAAAAAAAAAAAAAAAAAAAAAAAAAAAAAAAAAAAAAAAAAAAAAAAAAAAAAAAAAAAAAAAAAAAAAAAAAAAAAAAAAAAAAAAAAAAAAAAAAAAAAAAAAAAACyO34QAAAP90Uk5TAAECAwQFBgcICQoLDA0ODxAREhMUFRYXGBkaGxwdHh8gISIjJCUmJygpKissLS4vMDEyMzQ1Njc4OTo7PD0+P0BBQkNERUZHSElKS0xNTk9QUVJTVFVWV1hZWltcXV5fYGFiY2RlZmdoaWprbG1ub3BxcnN0dXZ3eHl6e3x9fn+AgYKDhIWGh4iJiouMjY6PkJGSk5SVlpeYmZqbnJ2en6ChoqOkpaanqKmqq6ytrq+wsbKztLW2t7i5uru8vb6/wMHCw8TFxsfIycrLzM3Oz9DR0tPU1dbX2Nna29zd3t/g4eLj5OXm5+jp6uvs7e7v8PHy8/T19vf4+fr7/P3+6wjZNQAAEfVJREFUGBntwQmc13P+B/DX3DPNTCchRzkqKZS7WKWtLaUVuSmRozYUWnJk3Ve1my6ELVm7lvwNi7KiXUcMKiIWlVRDJ9U0U9PM/F7/xz727/HHdszM7/v5ft+f7+/1fALiTqMuw6bOryB5JCTF7H/6bc8v4w86QlJIbs8JS/gTnSGpYr/Bfyvjz3WHpIL0E+/9mNvTGxJ/+936NXfgNEjMZfWbWc0dOhsSa63uX82d6Q+Jr+z+/+QuDILEVc7Q5dylIZB4yhtWwhoYDomj/GtXsUaug8RPwfVrWEM3Q+ImZ+R61tj1kJjp+QVr4SJIrDR/jrXSGxIjOTeXs3aOhsRHr8WsreaQuGjxPGsvDxITF5Wy9jZB4qHRM6yLxZBYOGkF62QuJAay7qtm3RRB/Nd6HutqCsR7l5Wxzu6EeC7zQSZhMMRv9WcxGcdCvLbfQiajMhfis6O+ZVIWQHx2WhmT8yjEY9dWM0mDIf4azaQdBfHWrUxaRTbEVyOYvHkQXw1hAB6GeGpAggG4FOKnM6oYhA4QL/XaxiCsSof46LAyBmIKxEdNljIYJ0M8lDGbwdiYDfHQ7xmQv0A81J9BOQvin6O2MCBbCyHeabqcQXkJ4p2MfzIwl0C8cyMDU90U4psjtjEwcyC+yfuUwekH8c14BmdZBsQz3RMMzgiIZxqXMDibG0I881cGaCLEM+cxQIlWEL8UfssAvQjxzH0MUneIXw6qYIA+gXjmBQZpIMQvPRikj9IhXsn8lEHqDvHLcAZpJsQvu3/PAFW1g/hlIoM0BeKX3csZoNI9IX65jUEaBfFLvXUM0Mp6EL8MZZD6Q/ySsYQBegnimTMZoO+aQTzzHgN0AcQznRmg5yC+eZHBWdsU4plmCQbnTIhvhjE4T0G8M5eBWdUE4pv9EgxK5UkQ74xgYK6G+Od9BuVJiH8OYFAW5EH8cwMDsq4FxEMfMhhV3SAeas2A/Bbio2sYjL9AvPRXBmJODsRLyxiEhQ0gXtqDQfi6GcRPv2YA1reBeOouJq+8E8RXs5m0qlMhvkrfyKRdBvHWIUxWYijEXxcxSdWXQDz2EJNT1R/is7lMSuXZEK8tYzIq+kL8VsEkbOkF8VsTJqG0G8Rzh7LuFreD+O5XrLNXGkG8N5B1NToD4r8bWDfl50HiYALrZFkHSCzMYF3M2R0SD3NZe1tGZkJiYhlr7fWWkNj4jrX03cWQGFnL2vnrHpA4WcXaWN4HEi8lrLmt4wohMbOcNbXhnj0hsfMVa+ab6+pDYmgxa+LzS3IgsfQ5d+29fumQmFrEXfjk7mMh8bWQO1H5+vADILG2gDuy4S/nNoTE3QfcjtVvTbvpl1mQFFDMH1vz9rSbzz6iPiR1pGdm5+TlFzZo1Hi3poUQEREREamr7BYnnHHeBQMGXnzJZUOGXnnV+V3bNIQkoaBZ84MOPrTDMZ06d+vatgmsSjuw56BbHn5xwZoE/8uWpW/PmHDjRd2aQmqu8NA+V46Z8cE6/kTF18VFD/3u8l+3zYAZ6W3OHztnA2ug5G+3n9Ycsiv7nDn27fXcubK5Ey8+PAtRO2Tg+Lc2s1bWzx593sHpkO3K7XTtMytZU1vff2jQ/ohKswHTv2EdbZ47/pQ8yE8dfmtxBWtt8YOnN0LYCvs8sIhJ2vLy0BaQ/5N+wtilrKvq4ju7ZCM0bW56q5LBWHR/50xI9slTVjFJm5/qm4MQdLjjUwZqw9MXNkVKO+rRjQzExmk9M+FSWscxS+lA4p1LC5CiCi6dxwCtfahLOhzpNLGEzmx6qANS0OGTNzFo34w7DsFrdfsSOvbeoHyklKwB79CNr+5tjyA1veo9hmHjpMOQMrIvX0aH/nXrwQhGvXNfrmRo3hmYh1SQM3QFXZt3eQGSld798VKGa/1vcxF3ecNKGIZNkw9DMjqM/YYRWHlpJuIs55pVDM3b/XNRN/uN/IRR+fysNMTW6UsYqnVjWqLW8vr/I8EozeuBeDp8DkOXeLVfJmrjyMkbGLk5xyF+mk6pZiS+uX1f1FCjKxbQhqJDEC/ZIzYyMlXPn5yOXUo76cktNGPbzRmIkaM/YbSW3nN8Onam2Y2LaUtxa8RFzr1VjN7a6Wc1wPbtPXhmFc0pH56GWDjuUxqx7bWrW+LnOvzuAxo1pwX8lzu6mpZ89bfRF3fap2EmkHFgj6HjXlxJwzZdAt+1/5w2bV23jR54cS94bdAWSlLW94O/8qZSkpW4Eb5q+RElAI9kwkv9NlIC8Up9+CftbkpQFu4L32T/iRKckg7wS/3XKEEq7QWf7L2QEqyqIfBHuxWUwN0KX3TeQHHgKvihSxnFhcQ58MGJmylubOsO+04opbhSejSs61RKcWdtK9h23CaKS8uawbKjN1Lc+rgh7DpgNcW1N/NgVZPPKe5Ng1G5b1PCcC5MSp9BCcXG/WHRHygheScT9gyjhOZOmNOtmhKa6s4wZu81lBCtaAxTMt+ihOp/YMoYSsguhyF9KWFbXwAzDthACdm8NjAjZz4lXFV3ZcGO0ZRwLTkehnSqpoTqsUIYUu8LSpjW9oUpD1DC9NIeMKVzghKessGwpWApJTzFLWHMZEp4/pgFY05IUMKSuAnWZCyghGXrOTBnCCUs646HOU3WU0LyxUGw50FKSN5oAns6VFPC8WQODHqLEo47YNH5lFBsGwiLspdRwlDWFSYNoYSh8mSYlLuSEoLE+bBpOCUMw2BT/mpKCO6CUddTQjAFRtVfR3Hv2QwYdQvFvddzYFS99RTn5hXCqsspzn3RFFalfUpxraQFzOpJca38cNg1i+LaZbDrEIprT8GwhymOLa4Pu5qUU9yqOBKGXU9x7CpY9hnFrZmw7BiKW2UtYNkkilsjYFn2eopT8zNgWT+KU1VHwrQXKE79HqY1raS4tCIfpg2nODUItr1PcemzDJi2d4LiUj/YNpjiUjGMm0lxqStsK6ygOPR3GHcGxaWOMO4JikPvwrjM9RSHzoFxXSgOrciEcWMoDl0P6+ZR3ClrDOMaVFPceRDW9aY4dCisu5/iziKYV0xxZxSsK6ikuNMK1vWkuDMf5t1Dced6mDeX4k4LWJe5heJMMcxrS3HnVph3PsWdzjDvfooz5Tkw7xWKM7Nh32qKMzfCvD0p7nSEeT0pzpRmwrzrKc7MhH1/pjhzF+x7j+LMObBvDcWZtjAvn+JMRRbMa0txZiHsO4XizJOw7wqKMyNh31iKM71h37MUZ1rDvvkUZ+rDvu8orpTBviyKM0tgX1OKM2/DvoMpzsyAfZ0ozkyEfadQnLkJ9g2gODMI9g2jOHMm7LuN4kxf2DeB4kxv2PckxZnusO85ijNdYF8RxZnjYV8RxZljYF8RxZkOsK+I4kw72FdEcaYt7CuiOHMs7CuiONMN9hVRnDkN9hVRnBkA+4oozgyFfUUUZ0bCviKKM3fBviKKM+NhXxHFmamwr4jizPOwr4jizDzYV0RxZg3sK6I4k8iBeUUUdw6EeUUUdzrDvCKKOxfAvCKKOyNh3pMUdybBvLEUd2bBvOso7qyCeRdSHNoT1vWgONQT1rWnODQS1u1FcegpWJdRTXHnXzBvDcWd6nxY9zHFoY6w7lWKQyNh3Z8oDr0K68ZSHCrPgXG/pbjUBcZdQHHpDhh3PMWluTBuL4pLlYWwLa2c4tIpMG4RxaWpMO4FikvfZ8O2cRSn+sC2qyhOPQnbTqE4VZoH09pQ3DoDpuUlKE49A9tKKE6VN4Jpb1LcGgHTHqe49VU6LBtFcexUWHYaxbHZsOwgimuHwLD0zRTHJsOyYopjmxvDsEcprt0Pw4ZRXCvfC3Z1pTg3CXbtRnFu2/6w61uKc4/Drr9TnKs+BGaNpbj3EswaSAnB6bDqCEoIVhTAqJwKSgh+D6uKKSGoag+jxlHC8G46bDqHEoqhsKkFJRTlh8CmVZRQLMyFSUWUcEyCSSMpIekLizpTQrJ+HxiUX0UJyRtZMGgBJSxTYNCDlNBcA3supISm+hSYcxAlPKWHwZzllPAs3xPWTKWEaF4DGHMBJUxzC2DLXpRQ/SMPtiyihOqVHJgynhKuF7JgyamUkD2XB0MaVFFCVrwHDCmmhO3rdrDjbkroNvaAGb+khK9qCKzI3UKJwB/SYcQrlCi8kA8bhlIiMX9vmLAvJRorO8CEeZRobD4VFtxCicqUQkSvPSUyX3dD9L6mROehAkRtPCVCX3VFxLpRopSYXIBIZW2gRGppF0Tqz5RoJSbmI0JnU6K2pDOiU7+CErln2yAyz1OiV/XYvojIWRQLto5tgkjkbaKYsHFUAaIwnWLE6iuzEb4eFDO+6p+OsGWsptjxcXeEbQLFkJcRtuMohtyM0C2h2HEAQncHxYx3EL42FDOuRATmU4yoaooIXEExYhai0LCcYkN/RGIaxYTyQkSiE8WEpxCRTygW/BoRuYpiwPpsRKTRFkr0JiEy0ynROxyROZ4SuXcRoUWUqF2ECA2jRGxDPUSocTklWhMQqQmUaLVDpJpXUqL0NiI2nRKlAYhY2wQlOt/lImovUKIzDpHrRIlMdStE7w1KVJ6BAb0oUTkCFnxEicYsmHAuJRonwoSMJZQovAUjhlCi0BtG5K6ihO9DmHEDJXxnw4wGGylh+yIddtxLCdslMGTPrZRwrcyGJQ9RwjUcphxYRQnT2nzY8hQlTKNgTHtKiDY1gjUzKeG5D+YcnaCEZcuesOcJSlgmw6B9yijhqGwBi26jhGM6TMovoYShsjVsupAShnEwKu0DintrG8KqX1DcGwy7ZlBc+ygDdh1QQXHsJFh2P8WtZ2FagzUUl7buD9sGU1y6G8ZlfEJxp6QA1vWguDMA9r1McaU4Dfa1qaS4kTgOPphIceMJeKHJ9xQXNjeDH66huHATPJH9JSV4X+XCF7+iBK8f/PEIJWhz4JH6yynBqj4cPulBCdYf4JdHKUH6PA9+qb+CEpzqjvBNT0pw7oN/HqMEZVEO/NNgBSUYlUfBRydTgnEn/PRHShA+yoafGqykJG9be/iqFyV5t8Bf0yjJmpcJfzUsoSSnoh181puSnBvgt8cpySjOgN8afUOpuy0Hw3d9KHV3Lfz3OKWu3kqH/wo+o9RNWUvEQdvNlDq5CvFwPqUuZqYhJiZTau+b3REX2e9Raqv6JMRH8/WUWroNcdIrQamVf2QgVu6g1MbaZoiX9NmUmkv0QtzsvpJSY6MRP522UWro3SzE0HBKzXzfArH0DKVG+iGeCj+n1MAkxNWhZZRd+jAXsTWAsiulrRFjD1N2oT/iLGceZaemId72XUnZic/yEXOHbqDsUNlhiL3OWyk7kOiHFHBGNWX7bkBKuJKyXY8jRdxD2Y43s5EqHqf8lyW7IWVkzqL8zIY2SCEF71N+ovJXSClNv6T82G+QYg5cTfl/Y5Byjiyl/GAcUlCXUsp/PICUdNz3lH8bjxTVYS2FnICU1fZbykSksJbLGYEtC2Y9M3XCPTcNu/isXice1fW8q++dOnN+SSUjMQkprflihqny06dvOb1VBrYnbbe2p4+Zu5XhmoQUt/ubDEflG3efd1g2diWn4zUzShiaB9KQ6rIfo3srHunXADXX/NyJyxmCrYMgwNVVdKli9oh2qLW0Y+5bTMeWHw35t54b6MrGaX3yUVft7/iUDr2+O+Q/Dv6SLlQ8d2YuktNm1Ed0ZEwG5AeNnmXQql+/pCGC0P6BdQze5rMhPzZgA4M0/9q9EZjsfi9WMVhftoP81L6vMSirxh6KgO113WcM0PMNID+XNmwLA1Ax45RMuNBxykYGo+QsyPYc/D6T9f4VjeFM3vmvVjNpVeMKIduXOXQNk/Dt6LZwbL9Ri5mcdzpAdqzwzjLWzdane2UgBGknTi1lnc3vA9m5vR+rZu0V/6YRQpN/7jObWRcf9oXsWruXWTsr72uDkOX1nf49ayfx2ulpkBo59pFNrKHqd0cdkYYoZPV4eDVrbMUd+0NqLn/gm9y1DU9f2BQRSj/x1lnfcddWPdEzHVJLre79ljtR/cmYk7IQvbTWF06eX8kd2jr7uvZpkLrIPP66ojX8b1WLpg/7RQEMqfeLEdNnvr90E3+sevGLowd1qgdJSsuBjyxK8AeVC6de0akerMreq12XMy6/dvB5fTofcVAuzPpfTkq1f/bQtVEAAAAASUVORK5CYII=;" parent="1" vertex="1">
          <mxGeometry x="2199" y="-541" width="292" height="292" as="geometry" />
        </mxCell>
        <mxCell id="lMfvkDm7O5ewdK1zKt-M-9" value="" style="shape=image;verticalLabelPosition=bottom;labelBackgroundColor=default;verticalAlign=top;aspect=fixed;imageAspect=0;image=data:image/png,iVBORw0KGgoAAAANSUhEUgAAAgAAAAIACAMAAADDpiTIAAAAA3NCSVQICAjb4U/gAAAACXBIWXMAAA3XAAAN1wFCKJt4AAAAGXRFWHRTb2Z0d2FyZQB3d3cuaW5rc2NhcGUub3Jnm+48GgAAAuJQTFRF////pthkpthkpthkpthkpthkpthkpthkpthkpthkpthkpthkpthkpthkpthkpthkpthkpthkpthkpthkpthkpthkpthkpthkpthkpthkpthkpthkpthkpthkpthkpthkpthkpthkpthkpthkpthkpthkpthkpthkpthkpthkpthkpthkpthkpthkpthkpthkpthkpthkpthkpthkpthkpthkpthkpthkpthkpthkpthkpthkpthkpthkpthkpthkpthkpthkpthkpthkpthkpthkpthkpthkpthkpthkpthkpthkpthkpthkpthkpthkpthkpthkpthkpthkpthkpthkpthkpthkpthkpthkpthkpthkpthkpthkpthkpthkpthkpthkpthkpthkpthkpthkpthkpthkpthkpthkpthkpthkpthkpthkpthkpthkpthkpthkpthkpthkpthkpthkpthkpthkpthkpthkpthkpthkpthkpthkpthkpthkpthkpthkpthkpthkpthkpthkpthkpthkpthkpthkpthkpthkpthkpthkpthkpthkpthkpthkpthkpthkpthkpthkpthkpthkpthkpthkpthkpthkpthkpthkpthkpthkpthkpthkpthkpthkpthkpthkpthkpthkpthkpthkpthkpthkpthkpthkpthkpthkpthkpthkpthkpthkpthkpthkpthkpthkpthkpthkpthkpthkpthkpthkpthkpthkpthkpthkpthkpthkpthkpthkpthkpthkpthkpthkpthkpthkpthkpthkpthkpthkpthkpthkpthkpthkpthkpthkpthkpthkpthkpthkpthkpthkpthkpthkpthkpthkpthkpthkpthkpthkpthkpthkpthkpthkpthkpthkpthkpthkpthkpthkpthkpthkpthkpthkpthkpthkpthkpthkeNmc8gAAAPV0Uk5TAAECAwQFBgcICQoLDA0ODxAREhMUFRYXGBkaGxwdHh8gISIjJCUmJygpKissLS4vMDEyMzQ1Njc4OTo7PD0+P0BBQkNERUZHSElKS0xNTk9QUVJTVFVYWltcXV5fYGFiY2RmaGlqa2xtbm9wcXJzdHV2eHl6e3x9fn+AgYKDhIWGh4iJiouMjY6PkZKTlJWWl5iZmpucnZ6foKGio6Slpqeoqqytrq+wsbKztLW2t7i5uru8vb6/wMHCw8TFxsfIycrLzM3Oz9DR0tPU1dbY2drb3N3e3+Dh4uPk5ebn6Onq6+zt7u/w8fLz9PX29/j5+vv8/f4vceyhAAATP0lEQVR42u3dfXwU1b3H8dlNCGCgaDAhgBUKaHkSLeUKAlcU8QFEQCRUaxULDZeCkQfLpSnUi0qBimISDQ+hXFqwFYTWAAVBQan0KtpaLCFEntRCJAIhIZvM/9ciCAm7s3POmTPZ3fP5/s/vnNnv+0V2Z2ZnLSuG0/y+X75+rOR3Twyw4jIDnvhdybHXf3lfc4tIpf/H9vmsaxN/u2+z7sLuP+5PlxJpOq/W/ibHsuJt+1nHLu6+dl5T+hRN8tt2vbwQiKfdB16ov/u3k2lUMLl2g+TFkYBAXsPd59KoWHrXNHwJ7fy4ERDIv2zzNb3pVCRJf7PtuBUQpn/b/lsSrQqklx0uBXEhIFAQdvO9aFUgj9hxKyBC//YjtCqQ58O/iPZLMS8g8FKErT9PqwLZZsepgIj929toVSCr7PgUELl/exWtCuSJiK+j/XIMCwi8HHnfT9CqQG6z41GAU//27bQqkJanHF7KwhgVECh02HRlK1oVyUQ77gQ49m9PplOxV/PPTq/mkhgUEFjitOOtAToVS4cvHQUEY22/Qcf+v+xIo6K5r9rpFV0aYwKCS512W30ffSa2APr3X8AyaQHJaR169r87a9zkWfPyV67Mnzdr8risu/v37JAmfddGcBn9x4GA9FsnLNq877MzkUee+Wzf5kUTbk2n/7gQsNy1gHZ3TMrb9i/bdf61LW/SHe1c97+c/nVluLKAHpMLd35hS+WLnYWTeyj3P5wW9QkochaQOiK/zFZMWf6IVOf+i+g/JgV0zdlUbXuS6k05Xek/RgWsCCvgiuGLS21PU7p4+BVh+19B/7EmoNXE4ipbQ6qKJ7ai/8bIvY4CflNfQPcXT9racvLF7vX7/41j//fSnc8CgiM325qzeWSQ/mNMwMrzt9ynTS+1fUjp9LSv10taSf++CaiKKuDGwkrbp1QW3hi1/yr69zTDHAX8tlnWdtvXbM9q9lvH/ofRmZ8CTtu+5zT9x5KA2Ar9my2A/s0WQP+6MjQuBFQNpSmTBdC/2QLo32wB9K8798S0gKp7aMhkAfRvtgD6N1sA/fsm4Gws9n+W/n1Ki2Wx+T/AshZ040f6fByr7wE+7kM72hOYfjZ2PwWcnc5jADSn3WY7prO5HR3pzL3HYv1U8DFuBdOYabWxfzGodho9aUrKkvi4H2BJE7rSkdbb4uWOoG2tacv7dNsXP/cE7utGX17nrhN2HOXEXTTmbcacteMqZx+gMy/zUMiOs9T8gNa8y49r7bhL7aP05lUm1dlxmLoJNOdNpttxmil050Vm2nGbqbSnnvF2HIf3AcoZFYpnADU8JUgx/3nGjutU8tPxSun5hR3nKe9Oi/K59pAd9zn4bXqUTauP7ATIR/xclGQCr9oJkVe5UVAuM+wEyQy6lMngUKIACA2mTfG0/8xOmHzWnj5F02SnnUDZyW2CollkJ1QW0ahYxtoJlrF0KpIupxINwKkutCpwBuANO+HyBmcD3CfbTsBk06vbdDiZiABOdqBZlykWfW2/XDNxxPev/f6I7NUVumusWJ19bqmJa74U/afFNOsu4wRf2B1DUy6ePrhL6xfItt118QN9ytAdgv96HN26STux7wCVNPwKxsi9uurfO7LBUg+UCP37Ezw8wE3WCb2or33rsgEtfq+n/99f/gygb70mNGEd7Xp9CuiZcD8cGZito//Z4T7HBZ/hdJC3aSb0a795Eab82vv+fx1hqTyRIWXNaDhKpom8nluSI0xJ+pPX/f8pKcJSyVtExvD4kCi5qlzk019GxDlp5d72X54WcakMkc+D5VfRsWPmi7Tyc4dBHn+fbLrDUj8XGTSfjh3PAYo8BvjTVKf3Egc9vbXX6W936qcCk6o4H+iUFSKtLHQcNddLAHMdl1ooMmoFLUfOTULfAx/kOKuvlwD6Oi41SGRU3U307M1FgGNJjrMCR7zr/4jzpdwkocdXckkgYm4TamWrl5rUOtsqNO02mo6Q9UKv48oo05Z7B2B5lKVWCk1bT9Ph812xJ8E8G2Xc094BeDrKUs8KTav7Ll2rn1S17TlRxnl4QWB2lKXmiI3Lo+twaV0p9jIuiTKvwDsABVGWEnyIcSWPkg2XmYKtvB5l3jrvAES7jPu64LyZtH15UkQ/tpVEGfh37wD8PcpSJYLzjqTQ92V5WLgW52dvdPLyRFAnx6W6C897mL4vy3vCr+LPHOfleAkgx3GpnwnPe4++1U4CncuHjufndnsJYLfjOccPxQdyMqhhlkrU8qDDvAe8vRzs9PDvByXmLaXx+mkq83MApZHfSyV7fGvw3uTI715LJeadaErn9TJaqpbIF4Tn2h5nbsSlFkrNG03n9bJGrpZxHv6vHCWRnv8/Tm7cGjq/NK0kHwhaPSzsuCEani96ZkjYpYZVS47j4XGX5lHZWkKPh5mWXaPjewE14b7e+7j0k6x4jvSl2STfy8q2DWZlLLU1ZWnDu5DbrpQftonWLyZT5Ylwp5+69H/Tlrkav1t+MrflpX+3njqtMCuUSe/fZLJaL1V/HN+l+Vdjmnf+8XrNTxc/89pjnc8t1WX8H6vURk2m92+y3YNqTuz37ZcFvVlqO71fSIs4+1FAb3K2Bc1f+ChlG5lhNH8+C8wEsIDmz2ePmQD20Pz5D+51ZgKoy6D7cxlrGxqeF/J1Ck0FUEj351JqKoBSuv93OtvGpjPtf5UfmQvgR7Rv7lkAzgRcyEZzAWyk/a9y1FwAR2nfstJtg5NO/9ZgkwHwg4KWNcVkAFPoX/S79YmVJfRv/cVkAH+h/+BpkwGcDhoP4Du20fmO8QD6mw2gv/EARpsNgO+IZpsNgF+TnG02gNnGAygwG0CB8QDWmg1grfEA3jEbwDvGAzhgNoADxgM4YzaAM6b338o2PKY/Kaaz6QBMvzG4p+kAehoO4HumA/ie4QD6mg6gr+EABpoOYKDhAAabDsD020Kve8bwXGcRQgghhBBCCCGEEEIIIYQQQgghhBBCCCGExFICTWX+VfKVhidZ5lVrGoip5vv9dN6q7fur7eN7NhTMekjs+cf3mH5b+D1CL1f6Q7MKNuw5blfv375q3k/7xYCD4K3PHax/RKEt2W0BoANA2+wtDX5l/eBztzbukya75n0a7qBq35zQBADeAmgy4c3acP/+07yujVZ/+uKaiMf1z9EA8BLA6H9GnFCzuHF+daDZjArHI3vzZgB4BeDmNx1nVMxo5n//I8uiHVrdqtYA8AJA61VRf1u3bKTf7/xz3fzeb0l3AKgD6F7iYkxdrq+fCJqvdnd0FcMAoApgWIW7Qaub+9d/+91uD682BwBqAHJq3U7a3d6v/m84InCALwUAIA8g8JLAqCM3+NN/htizHXMBIA8gV2jWgQw/+k95S+wI68YAQBbAmDqxYW+l+ABgmeghnu4NADkAvYV/T2mZ/v6nih/jwUwAyADIPCg+bqru/gfWShzkNgDIANgmMa5W81PHAu9KHWUWAMQBZEnNe1fvCaEH5Y6yJAUAogBSSuQGPqj1AlCZ5GHmAEAUQI7kwDKdF4aelD3M8jQAiAFIK5ed+KS+/q+ukD7OhQAQA7BQemLF1doATJQ/zvJkAIgASC6XH/lf2gD8WeFA7wSACIA7FUZu1dV/65DCrvIAIAIgT2FkSNclgUdVDvRoEADuAQSPqswcrwnAa0pHOgAA7gEMUJq5UU//qVVKu/oVANwD+JXSzJortQDopXakGwDgHsAGtaH/oQXAMLVNfQAA9wA+UBuq5x7h8WqbKgeAewDlakOztQCYo3ioVwDALYArFIf+jxYASxV3dT0A3AK4XnHoci0ANiruajAA3AJQ/S21TVoAvKO4q1EAcAtglOLQdwAAAAAAAAAAAAAAAAAAAAAAAAAAAAAAAAAAAAAAAAAAAAAAAAAAAAAAAAAAAAAAAAAAAAAAAAAAAAAAAAAAAAAAAAAAAAAAAAAAAAAAAAAAAAAAAAAAAAAAAAAAAAAAAAAAAAAAAAAAAAAAAAAAAAAAAAAAAAAAAAAAAAAAAAAAAAAAAAAAAAAAAAAAAAAAAAAAAAAAAAAAAAAAAAAAAAAAAAAAAAAAAAAAAAAAAAAAAAAAAAAAAAAAAAAAAAAAAAAAAAAAAAAAAAAAAAAAAAAAAAAAAAAAAAAAAAAAAAAAAAAAAAAAAAAAAAAAAAAAAAAAAAAAAAAAAAAAAAAAAAAAAAAAAAAAAAAAAAAAAAAAAAAAAAAAAAAAAAAAAAAAAAAAAAAAAAAAAAAAAAAAAAAAAAAAAAAAAAAAAAAAAAAAAAAAAAAAAAAAAAAAAAAAAAAAAAAAAAAAAAAAAAAAAAAAAAAAAAAAAAAAAAAAAAAAAAAAAAAAAAAAAAAAAAAAAAAAAAAAAAAAAAAAAAAAAAAAAAAAiGkAOxV3NQIAbgGMUBy6UwuAVxV31Q8AbgH0Uxy6VguAFxR3dQ0A3AK4RnHoi1oAzFDbVCgJAG4BJIXUhv63FgAPqW3qkAUAtwCsQ2pDH9UC4DYd70wBoOMT191aAHRR29QrAHAPYI3a0J5aAASPKm1qKgDcA3hcaWZ5Ey0ArDylXXUCgHsAHZVmLtfTv3WnyqbeswDgHoD1V5WZwzUBSC5X2NQsAIgAmKkwsqKpJgBWkcKuegBABEA3hZH/q6t/lVPUey0AiACwPpIfeb82AEkfSm9qHADEADwsPfGjZG0A5Ot6PwgAMQCB/5OdeK+lMcWSm7rDAoAYAOt2yYGbdPZv3VArtan1FgBEAVjrpObV9tIKwHpZZlM1XQEgDqBrjcy8Qr39W20OS2zqKQsA4gCspyTGHW6jGYDVp1J4U2uDAJABEFwrPK2yj6U9Y0U39UELCwAyAKwWH4hOG2v5kDlie/q8owUAOQBWx8/Fhs3xo38rIHSxunqgBQBZANbAapFZawK+ALCar3a/p4qhFgDkAVhDK9yPWt3c8imB2W73tL+HBQAVAFaP/W4nzQ5Y/mXsGVd72n61BQA1ANbV213NOTPW8jU3u7k/bFmKBQBVAFbKMhdjjt5s+ZyM/Gj3ru/L0nl5yRwAlpW1L8qQUH6G5X+6OZ6sPj4lxQKANwCslCnHnWas62Y1Tga9G2lLVfOu1HyB2SgAlnXlvKpIE94dZDVaAoMWhfkOS2jrxEztdxgYBsCyMiduDfNH99CiQQGrURO4ZcGBS3dUUzw+3Y9bTIwD8FXSxxfXu0J4YMEtjdz+hTeEvUdkz13xh8VP/vD26wRPRtxtOgDBb3E1v+72Hz65+A8r5maP6J1hJUD6mg6gr2V2OpkOoJPhAFqaDqCl4QCsKrP7rzK9f+sfZgP4h/EAnjcbwPPGAxhuNoDhxgNIrTa5/+pU4wFYG0wGsIH+rf4mA+hP//LfN0yAFNO+pf5c1DhOP9r/dwpM7b+A7s8lZYeZ/e9Iofuvk3nIxP4PZdL8hfQsNa//0p70fjGtt5jW/5bWtH5pkheETKo/tCCZzhukS5ExBEJFXeg7TK7P+8SE+j/Ju56uI6XblLW7yyoTtfrKst1rp3Sj5ehXCNtkhsl8xZe/KNN1ihSXmh9uaBuu/KnlF4qt5LtfKl9xqV/QFgAIAAgACAAIAAgACAAIAAgACAAIAAgACAAIAAgACAAIAAgACAAIAAgACAAIAAgACAAIAAgACAAAAAAAAAAAAAAAAAAAAAAAAAAAAAAAAAAAAAAAAAAAAAAAAAAAAAAAAAAAAAAAAAAAAAAAAAAAAAAAAAAAAAAAAAAAAAAAAAAAAAAAAAAAAAAAAAAAAAAAAAAAAAAAAAAAAAAAAAAAAAAAAAAAAAAAAAAAAAAAAAAAGjW5iq3kuV8qT3GpXNrSkMcVW3nW/VLPKi41hbY0JEuxlcnul5qsuNQY2tKQW/xrZYziUv1oS0O+rdjKLf5Zu4a2NCQ5pNbKte6XulZtpVASbenIYaVW6pq4X6lJndJSh+hKS4qVWtkrstRepaWK6UpLfqLUytMiSz2ttNRP6EpL2ir9x9xHZKk+Sn9s2tKVnryl0Eqp2FKlCku9RVOakqPQynyxpeYrLJVDU5rS0Z+zAKpnAjrSlK5slC7l/YDYSoH3pZfaSE/acmOtbCtDRJcaIrtS7Y30pC9LJFvZIL7UBsmlltCSxrQ7JXdutrv4Ut3lzjyfakdLOiN3W1C+zFJytwVxM5DepJZJlHK8jcxSbY5LLFWWSkd6c5P4H4GawXJLDa4R/wNwEw3pzijhE8LSp+aFLz7UjaIf/Zkh2Mpi+aUWCy41g3b8SJFQKZuT5VdK3iy0VBHd+JKm6wVK2XWVylJX7RJYan1TuvEnQfeXalY1U1uq2Sr3l5uCNONbHql296ZspvpSM9296ax+hFb8zIDP3Xwou9+Lpe5388Hz8wF04m86RD9Xv6OXN0v12hH9WkMHGvE9Q/Y4dlKS5d1SWSWOS+0ZQhuN8l7wsaMROynPSfFyqZSc8ohLHX2Md3+NlRZTd4V9i7ZnVprXS6XNCvsfTt2uqS3ooTFzzaQ36l+3rXt7Wmc9S3We9nZ9bqE3JvElsBhIelbOwtU7P6k6vOuV56aNba9zqfZjpz33yq7DVZ/sXL0wJys9AV68/wfz80Ql1AobywAAAABJRU5ErkJggg==;" parent="1" vertex="1">
          <mxGeometry x="2799" y="-501" width="252" height="252" as="geometry" />
        </mxCell>
        <mxCell id="lMfvkDm7O5ewdK1zKt-M-22" value="" style="endArrow=classic;startArrow=classic;html=1;rounded=0;strokeWidth=11;" parent="1" edge="1">
          <mxGeometry width="50" height="50" relative="1" as="geometry">
            <mxPoint x="1425" y="512" as="sourcePoint" />
            <mxPoint x="1860" y="512" as="targetPoint" />
          </mxGeometry>
        </mxCell>
        <mxCell id="lMfvkDm7O5ewdK1zKt-M-23" value="" style="endArrow=classic;startArrow=classic;html=1;rounded=0;strokeWidth=13;" parent="1" edge="1">
          <mxGeometry width="50" height="50" relative="1" as="geometry">
            <mxPoint x="2356" y="136" as="sourcePoint" />
            <mxPoint x="2349" y="-210" as="targetPoint" />
          </mxGeometry>
        </mxCell>
        <mxCell id="lMfvkDm7O5ewdK1zKt-M-24" value="" style="endArrow=classic;startArrow=classic;html=1;rounded=0;strokeWidth=13;" parent="1" edge="1">
          <mxGeometry width="50" height="50" relative="1" as="geometry">
            <mxPoint x="2906" y="132" as="sourcePoint" />
            <mxPoint x="2899" y="-220" as="targetPoint" />
          </mxGeometry>
        </mxCell>
        <mxCell id="FvvUnZhEkorayf8Jf28f-102" value="" style="rounded=1;whiteSpace=wrap;html=1;fillColor=none;arcSize=2;strokeWidth=10;" parent="1" vertex="1">
          <mxGeometry x="576.5" y="-39.24000000000001" width="740" height="1040" as="geometry" />
        </mxCell>
        <mxCell id="RIdAFQ6ZEUcjRRq-e_PQ-12" style="edgeStyle=orthogonalEdgeStyle;rounded=0;orthogonalLoop=1;jettySize=auto;html=1;strokeWidth=10;" parent="1" edge="1">
          <mxGeometry relative="1" as="geometry">
            <mxPoint x="527" y="465.48" as="targetPoint" />
            <mxPoint x="177" y="464.9466666666665" as="sourcePoint" />
          </mxGeometry>
        </mxCell>
        <mxCell id="iBmOrdFq_I3-XjCz09oH-10" value="" style="html=1;overflow=block;blockSpacing=1;whiteSpace=wrap;shape=mxgraph.aws4.resourceIcon;resIcon=mxgraph.aws4.cloudfront;labelPosition=center;verticalLabelPosition=bottom;align=center;verticalAlign=top;strokeColor=#ffffff;pointerEvents=1;fontSize=33.3;fontFamily=Liberation Serif;fontColor=#3a414a;spacing=0;strokeOpacity=100;rounded=1;absoluteArcSize=1;arcSize=9;fillColor=#693cc5;strokeWidth=0.8;lucidId=bBu2eMRevDtM;" parent="1" vertex="1">
          <mxGeometry x="-70.5" y="368.88" width="195" height="195" as="geometry" />
        </mxCell>
        <mxCell id="iBmOrdFq_I3-XjCz09oH-17" value="" style="group;dropTarget=0;pointerEvents=0;" parent="1" vertex="1">
          <mxGeometry x="2570" y="-1120" width="1830" height="520" as="geometry" />
        </mxCell>
        <mxCell id="iBmOrdFq_I3-XjCz09oH-19" value="&lt;span style=&quot;font-size: 67px;&quot;&gt;&lt;b&gt;사용자&lt;/b&gt;&lt;/span&gt;" style="html=1;overflow=block;blockSpacing=1;whiteSpace=wrap;fontSize=50;fontFamily=Liberation Serif;fontColor=#3a414a;spacing=0;strokeColor=#3a414a;strokeOpacity=100;rounded=1;absoluteArcSize=1;arcSize=9;strokeWidth=0.8;fillColor=none;lucidId=nHu2nXPl3W.l;" parent="iBmOrdFq_I3-XjCz09oH-17" vertex="1">
          <mxGeometry x="179" y="226" width="212" height="110" as="geometry" />
        </mxCell>
        <mxCell id="iBmOrdFq_I3-XjCz09oH-8" value="Amazon S3" style="html=1;overflow=block;blockSpacing=1;whiteSpace=wrap;shape=mxgraph.aws3.s3;labelPosition=center;verticalLabelPosition=bottom;align=center;verticalAlign=top;pointerEvents=1;fontSize=33.3;fontFamily=Liberation Serif;fontColor=#3a414a;spacing=3.8;strokeColor=#3a414a;strokeOpacity=100;rounded=1;absoluteArcSize=1;arcSize=9;fillColor=#e05243;strokeWidth=0.8;lucidId=Iuu2jfeyGkmw;" parent="1" vertex="1">
          <mxGeometry x="477" y="-160" width="166.28" height="200.38" as="geometry" />
        </mxCell>
        <mxCell id="FvvUnZhEkorayf8Jf28f-105" value="" style="group" parent="1" connectable="0" vertex="1">
          <mxGeometry x="452" y="354.38" width="794" height="460" as="geometry" />
        </mxCell>
        <mxCell id="FvvUnZhEkorayf8Jf28f-104" value="" style="group" parent="FvvUnZhEkorayf8Jf28f-105" connectable="0" vertex="1">
          <mxGeometry width="794" height="460" as="geometry" />
        </mxCell>
        <mxCell id="cJsGasBhR2hVh_ApMWAC-4" value="" style="rounded=1;whiteSpace=wrap;html=1;fillColor=none;arcSize=2;strokeWidth=10;" parent="FvvUnZhEkorayf8Jf28f-104" vertex="1">
          <mxGeometry x="293" y="-260" width="482" height="330" as="geometry" />
        </mxCell>
        <mxCell id="iBmOrdFq_I3-XjCz09oH-9" value="" style="html=1;overflow=block;blockSpacing=1;whiteSpace=wrap;shape=image;fontSize=13;spacing=0;strokeColor=none;strokeOpacity=100;rounded=1;absoluteArcSize=1;arcSize=9;strokeWidth=10;image=https://images.lucid.app/images/a6ffe5eb-77f2-4b36-a746-bf7208614014/content;imageAspect=0;lucidId=Pzu2qxLOMXdK;" parent="FvvUnZhEkorayf8Jf28f-104" vertex="1">
          <mxGeometry x="470.88" y="-97" width="148.25" height="130" as="geometry" />
        </mxCell>
        <mxCell id="KclHnpviEIRePQRrepYE-2" value="" style="group" parent="FvvUnZhEkorayf8Jf28f-104" vertex="1" connectable="0">
          <mxGeometry y="60" width="794" height="460" as="geometry" />
        </mxCell>
        <mxCell id="FvvUnZhEkorayf8Jf28f-9" value="" style="rounded=1;whiteSpace=wrap;html=1;fillColor=none;arcSize=2;strokeWidth=10;" parent="KclHnpviEIRePQRrepYE-2" vertex="1">
          <mxGeometry x="274" y="130" width="520" height="330" as="geometry" />
        </mxCell>
        <mxCell id="cJsGasBhR2hVh_ApMWAC-2" value="" style="html=1;overflow=block;blockSpacing=1;whiteSpace=wrap;shape=image;fontSize=13;spacing=0;strokeColor=none;strokeOpacity=100;rounded=1;absoluteArcSize=1;arcSize=9;strokeWidth=0;image=https://images.lucid.app/images/d9b982a0-995f-487b-9331-1219af463c2b/content;imageAspect=0;lucidId=UUu2kVqWsmhi;" parent="KclHnpviEIRePQRrepYE-2" vertex="1">
          <mxGeometry x="10" y="50" width="520" height="242.5" as="geometry" />
        </mxCell>
        <mxCell id="FvvUnZhEkorayf8Jf28f-111" value="" style="html=1;overflow=block;blockSpacing=1;whiteSpace=wrap;shape=image;fontSize=13;spacing=0;strokeColor=none;strokeOpacity=100;rounded=1;absoluteArcSize=1;arcSize=9;strokeWidth=10;image=https://images.lucid.app/images/202ca4ca-7b95-41be-aa32-fabcf0f0b0a4/content;imageAspect=0;lucidId=JJu2~E.Qs-Mt;" parent="KclHnpviEIRePQRrepYE-2" vertex="1">
          <mxGeometry x="470.88" y="221.5" width="156.15" height="150" as="geometry" />
        </mxCell>
        <mxCell id="iBmOrdFq_I3-XjCz09oH-59" value="" style="html=1;overflow=block;blockSpacing=1;whiteSpace=wrap;shape=image;fontSize=13;spacing=0;strokeColor=none;strokeOpacity=100;rounded=1;absoluteArcSize=1;arcSize=9;strokeWidth=0;image=https://images.lucid.app/images/d9b982a0-995f-487b-9331-1219af463c2b/content;imageAspect=0;lucidId=UUu2kVqWsmhi;" parent="FvvUnZhEkorayf8Jf28f-104" vertex="1">
          <mxGeometry x="33.5" y="-390" width="520" height="242.5" as="geometry" />
        </mxCell>
        <mxCell id="lMfvkDm7O5ewdK1zKt-M-17" value="&lt;b&gt;웹뷰&lt;/b&gt;" style="html=1;overflow=block;blockSpacing=1;whiteSpace=wrap;fontSize=66.7;fontFamily=Liberation Serif;fontColor=#3a414a;spacing=0;strokeColor=#3a414a;strokeOpacity=100;rounded=1;absoluteArcSize=1;arcSize=9;strokeWidth=0.8;fillColor=none;lucidId=.uu2e8xy5YTz;" parent="FvvUnZhEkorayf8Jf28f-104" vertex="1">
          <mxGeometry x="364" y="-245" width="360" height="120" as="geometry" />
        </mxCell>
        <mxCell id="q31A73n6lXYL2_Dqn7QD-1" value="&lt;b&gt;CloudFront&lt;br&gt;&lt;/b&gt;" style="html=1;overflow=block;blockSpacing=1;whiteSpace=wrap;fontSize=50;fontFamily=Liberation Serif;fontColor=#3a414a;spacing=0;strokeColor=#3a414a;strokeOpacity=100;rounded=1;absoluteArcSize=1;arcSize=9;strokeWidth=0.8;fillColor=none;lucidId=nHu2nXPl3W.l;" parent="1" vertex="1">
          <mxGeometry x="-92.5" y="579.38" width="253.5" height="62" as="geometry" />
        </mxCell>
        <mxCell id="P9oJgNJOL5zkBP48cO2s-4" value="" style="endArrow=classic;html=1;rounded=0;exitX=0.096;exitY=0.551;exitDx=0;exitDy=0;exitPerimeter=0;entryX=0.16;entryY=0.741;entryDx=0;entryDy=0;entryPerimeter=0;strokeWidth=11;" edge="1" parent="1">
          <mxGeometry width="50" height="50" relative="1" as="geometry">
            <mxPoint x="-500" y="912" as="sourcePoint" />
            <mxPoint x="-141.20000000000073" y="641.3799999999999" as="targetPoint" />
          </mxGeometry>
        </mxCell>
        <mxCell id="P9oJgNJOL5zkBP48cO2s-5" value="" style="group" vertex="1" connectable="0" parent="1">
          <mxGeometry x="-868" y="758" width="302" height="420" as="geometry" />
        </mxCell>
        <mxCell id="P9oJgNJOL5zkBP48cO2s-3" value="&lt;span style=&quot;font-size: 67px;&quot;&gt;&lt;b&gt;제작자&lt;/b&gt;&lt;/span&gt;" style="html=1;overflow=block;blockSpacing=1;whiteSpace=wrap;fontSize=50;fontFamily=Liberation Serif;fontColor=#3a414a;spacing=0;strokeColor=#3a414a;strokeOpacity=100;rounded=1;absoluteArcSize=1;arcSize=9;strokeWidth=0.8;fillColor=none;lucidId=nHu2nXPl3W.l;" vertex="1" parent="P9oJgNJOL5zkBP48cO2s-5">
          <mxGeometry x="54" y="310" width="212" height="110" as="geometry" />
        </mxCell>
        <mxCell id="P9oJgNJOL5zkBP48cO2s-2" value="g" style="shape=image;verticalLabelPosition=bottom;labelBackgroundColor=default;verticalAlign=top;aspect=fixed;imageAspect=0;image=data:image/png,iVBORw0KGgoAAAANSUhEUgAAAgAAAAIACAYAAAD0eNT6AAAACXBIWXMAAA7DAAAOwwHHb6hkAAAAGXRFWHRTb2Z0d2FyZQB3d3cuaW5rc2NhcGUub3Jnm+48GgAAIABJREFUeJzs3Xd8HNW9N/7PbNeq92I1yyrulquMC+7kYlwoMf2X3JvcBMhzkyekBxIIyU35pZLkFsgNyQ0JGFMC2LQEjAs27t2WrWLLlqxi9b7Sanfn+cNAKDZezczumfJ5v14Df8Cc/X5Hc2bOnDlzjgQiq1rzWDzgLYOEUsihFMiIBQBIGIBk64SMamCwChs/2yc4Um0wX3PnSzRKkugAiKJqzfrpgHwrgKUApgOwX2GPIIBDkKTNkEJP4YU7Dkc8Ri0xX3PnS6QCGwBkfp9/1ImW+Nsl4CsApqos7Ygsyb9ET86T2LokoEV4mmO+aug/XyKNsAFA5rb6ibWSZPsVII/VuOTTsoR78eLtmzQuVx3mqxV95kukITYAyJxWP5kmSdLvJchrI/kzMvC8bB/5HJ7/dEckf+eKmG9E6CZfoghgA4DMZ+36CpssPwsgNzo/KNeHbFiHF+7YG53f+xDmG2GC8yWKEDYAyFQca59YHpKlvwKIj+4vy4OShHXBF+94JZq/ynyjRUy+RJHEBgCZhn3tEyshSy8AcAoKYQSybW1w062vRuPHmG/URTVfokhjA4BMwbl2fUVIDr0JSF7BoQzYbPLSkQh3FzNfYaKSL1E0sAFAxrfu6RSnP3BQllEgOpR3nA/ImI5Nt7dHpHTmK1pk8yWKEpvoAIjUcgwH/6CjmwMA5Dok/C5ShTNf4SKaL1G0sAFAhmZf/eT1iPCnYArdYF/75GqtC2W+uhGRfImiia8AyLg+/6jT2ZJQFYFJYDQi1Y70Zk3QbEY55qszGudLFGXsASDDcrbE367fmwMAyMXO+JbbtCqN+eqNtvkSRRsbAGRYEvAV6eK/9btJ8leZL/Ml0iNJdABESjjXrJ8uQT6oRVmeGCfyitIQn+QFZBl9PT7Un27H8NCIFsVDDtnKR1669YiaMpivckbIl0gEh+gAiJSQLi75qkpMrBvzV4zHpBl5sNk+2BkWCoVw/EA9dr1xCoMDflW/I9lCtwBQdYNgvqNnpHyJRGADgAzJBiyVVeyfmhmP6z81F/FJMZcu327D1DmFGFuSgRce34OO1j7FvyXJWKZ453fjYb6jYrR8iUTgGAAynjWPxcvAdKW7x8S6P/bm8H7xyV6s/XQFPLEupT8HWcJMXPN4rOICmO+oGC5fIkHYACDD8cJbJgF2pQO35q8Yj4SkmLD//8QkL+YvG69msJjd63GWMl/mS6QnbACQ4cgSFF9s3TFOTJqZN+r9Js3Kh9ut/I2ZjFCZ4n2Zb9iMmC+RKGwAkOGEQnKq0n3zx6V9ZEBYOOx2G/KK05X+LEKSTXHMzDd8RsyXSBQOAiTDkSDFSwpHiCUmKX9Vm5gUC0lW+uWsnKD0d5lv+IyYL5EobACQ4dgkuGSFNwin2wFJ4TXe5VFeXWyQ3Ir3Zb5hM2K+RKLwFQAREZEFsQeADEnUFJb8Xf4ukVmwB4CIiMiC2ANAhmMDoHSWODVPeO9+9x3t32W+0fldUfkSicIGAFmK1S7yzHd0+xJZCRsAZD1Wu9IzXyK6BDYAyJCsNkiMv2vu3yUSgYMAiYiILIg9AGQ4ageJqXlHbMRBccw3OvsSGQ17AIiIiCyIDQAiIiIL4isAMiTFXa4q+3kNNziN+Y5qX3blk5XwfCeDkKXk1c/kyXKwKCjhixJwo5JS8orTkF+ibNnX+po2NNS2K9oXsvyGJElvKNtVXg5JWq5kX+YbPjX5ysBf7TJ+K0n2M12b1jUAStczJIoeNgBItxKvf2ocgvINErBIBuYBSBEdE1EYOiRgFyR5qxyUn+95+Y4zogMiuhQ2AEhXMq95PHbI47oDsnw3gOmi4yFSTZIOICQ/GivFPdG0afWg6HCI3sUGAOlC5jWPxw65nf8XwNcAJIuOhygCOgHpZ7GI/Q0bAqQHbACQcMmrn7wtBOmXEpAlOhaiKGiWZdzb89JtG0QHQtbGBgAJE3fD4xmOgPMxAKtEx0IUdTI2BiX5s32bblc40pJIHTYASIiUtevnySE8DWCM6FiIBGqw2bCu48Xb9ogOhKyHEwFR1CWtfmqtHMJm8OZPlBcKYVvKqvWfFB0IWQ8bABRVSavX/7ME+TkAHtGxEOmEW5bwVNKqpz4lOhCyFr4CoKhJXf3UWhnys+AMlESXEoSMWztfuu1Z0YGQNbABQFGRsurJqyRJ2iIDbtGxEOnYkCSHFnW8dMde0YGQ+bEBQBGXecPjGYGg8wBk5IqOhcgAGpwB+8yWV29uEx0ImRvHAFDEBQLOx3jzJwpb3ogj9DvRQZD5sQFAEZW2ev3t4Hf+RKMkX5+y5ql1oqMgc+MrAIqYzGsejw26nbXgDH9ESjS5EFfCaYMpUjgamyImdHFuf01v/jabhIy8JCSkehET54bdzk4sEicYDMHXP4zeDh9aG7oQCmm6CnDOMPq/COD/17JQonexB4AiIvOax2NDbmcDNFrYJzUnAeVXj0PBxEx4vE4tiiTS1PCgH2crL+DQ1jPobOnVqtgOt8eed/6Zm31aFUj0LvYAUEQEPa47JFlWffP3xLqwYM0klMwYA0lie5X0y+11oWxWHkpn5qL6wHns2FiJ4UG/2mJTh4eCtwN4TIMQiT6ADQCKCEmW71ZbRkpWPK77zBwkpHi1CIkoKiRJwvhZecgem4pX/rgXnS19aou8C2wAUATwkYo0l3H9U+MQlGvVlJGSFY8b/20BXB62Ucm4hocCeP4/dqhtBMg2O4paXrjtrEZhEQHgZ4AUCUH5BjW7e2JdWPmZObz5k+G5PQ5c+y9z4PG61BQjyUGoqlNEl8IGAGlOAhZLF/+taFuwdhK7/ck0ElO9mL9mouL68E437aJox03mx0cs0pgsAU9dpXTv1OwElM4YA473IzMpm5WLY2/Voa2xR2kR8y/WLUnT7wzJ2tgDQJrKWf1MHoAUpftPWzyOo/3JdCRJwpSFY9UUkTbm2ifGaBUPEcAGAGksJMnjlHZz2m0SCidmiAibKOIKJ2XCbpMUvwYIOmzjRMRN5sVXAAQASFvzYrwTg2UhGaWSJKVAlmMVFRQKlivtv8/IT1I7WIpItzxeF9LzknDhXJeyAmTcnbV6/VxF+0rSgCzLnTYJ1SPwVrVvXKv620QyPjYALCxnzfrpoZB0qyTJSyEPTgdwcWJdWcVrRhXd9xz4R2aXkByDVqUNAEm6FcCtivaV5YuDCWXAicFg9ur1h2Rgsz0YeqrxlTsOKwuIjI4NAKv5/KPOrJb42yFLX5FlTJV0NKYoNt7DiSnI1GITPaJDAAA7gFkSMCtkt30ze/X6I7Is/bKlP/NJbF0SEB0cRQ8bABaSs/qptXITfgVA1WikSHG6HZyaikzN5XZeHMyvL9Mk4E858RcewKoN9za9dMsm0QFRdLABYAE5q59MQ8j2e8hYq7tLD5HF6LYOyhgHyBtzVm14XnI6P9f4/I0dokOiyOJXACaXu3J9BWT7IUhYKzoWIjIC+QZ5xH8wd9XTc0RHQpHFBoCJ5Vy3YXnIJr0OyLmiYwmXmtnSuHHT+2Yg+SGEtuSu2rBSdCAUOWwAmFTuqg0rJZv8igTEi77omfQCSTRqouvXKDevLMkv5K5+6toIHQ4SjA0AE8pdub5ChvwMZDhFx0JEBibDKct4hq8DzImDAE0m9xNPp8AW2iABxvuont0AZHaSIU/xWEB+Lmf1k9ObNt3eLjoY0g57AMzGEfoDgALRYRCRmci5Ntn+O9FRkLbYADCRvNUbroeBR/vr4J0nN24R34xLviFn1YbVoqMg7bABYBIzZz7qhCz/UvTFzboXR6IrE12/1G52yL/E4i18dWwSbACYRFtW0u3Q6Qx/RGQaxfnxLbeJDoK0wZacSUiS/BXRMRDRlRm9p0uWpa8C+LPoOEg9NgBMoGDN+ulyCFO1KMvtdWJMaRrikmNgs4++g6jldAda6hSudgaoWUyQyNSyxiYja1zqqPcLBULo6xpEY3U7/D71a/1IwLSxq56aVvfSrUdUF0ZCsQFgAnJIUrZE6Pt44tyYc10ZyipyFd3437X/1WpVDQAiurQxZemYdW2p4v1DwRBO7WnA/per4Ov3q4olCPkWAGwAGBwbACYgSVgKFav6JmfF49q75yAuOUZ9LFDexcmHfzI7kfXDZrdh4rwC5I9Px6uP7EXXhX7FZcnAMpXhkA5wEKDBla15MR4ypivd3xPn1uzmT0T6F5fixT/dPQeeWJfiMiRIMzOveTxWw7BIAPYAGNxIYLBMskl2pftXXFeGeA1v/mqfcNgLQGaml/qRkOLF7JVl2PHMMaVF2D0eZymAQxqFRAKwB8DggnYofino9jpRWmGYhQKJSEPjr8qDK0b5M6AUlMo0DIcEYA+AwdlCUqqs8LEgpzQNNofGbUA1jyjsAiCz01H9sDlsGFOahrojLYr2lyV59J8kkK6wAWB4cryk8KqQkKL9ekEcBEh0eXqrH/GpXsXl2mBL0DQYijq+ArAwWc2nA0RkeHJIdAQkEnsADM4GqU/pbXygYzAiTxVqezmJzExP9WOgy6e4TBmhXk2DoahjD4DByTa5Q+m+jdXtCAX5CEBkRaFgCE3VbYr3t8mS4msP6QMbAEYXRLXSXf2+AKp2N2gZDREZxMm361VNDSzZ5SoNwyEB+ArA4JwOb1Ug5AsCUDQXwIGXq5A3MR1xGg0IVD3Iie8AyMT0Uj/6OwZx8JUqNcUFvEMjih8+SB/YADC4qo1r+8atfuoQZMxSsv9Qvx+v/fde/NM9cxCvQSNAR185GdrIUADdrf3o7xzCyPAIRoaDCAxffFpzuB1wuu1wup2IS/EgKSMOTo+5q/LBV6px4FVl95uZ15Zixkrlc+hrSQ/1o69jEK89shfDAyOKy5AlHDj6908NaBAOCWTuq4ZFSJA2A7KiBgAA9LT048Wf7sCsVWUovSpP1WJAF+Oh0QgFQ2g9242m6nZcON2JzpZ++HqGRlWGN9GDpKw4ZBenILs0HRkFiar/jnpjlvNKVB6hYAin3m7AgZdPYXhgRGVjRNqsWWAkDBsAJiAFpadkm/xNNWUMDfixY8Mx7N14EjllaYhL9sIbP/q5wlvOdKoJwzJCwRDqj19A7d5GnK9qf+/pXqnBniEM9gyhqaodeLkaDrcDuePTUTxnDPInZZiuMWBFLWc6cfT12lHvN9jnR3+nD03VbZosBwwAQSm4QZOCSCg2AEyg5pWbDxeveuoIgGlqy/L7Ajh7WNnMYHRlfR2DOL7lDGr3N6rqgr2SwHAAZ4804+yRZrhjnSielYspS8dqNtaDoq+pqv1iA0+8w3Ubbz8qOghSjw0Ak7ABv5SBP4mOQw2zdPFeSm/bII5uPo3qXfWQQxdnbohWvv6BEVRuq8PJ7WdRWJ6FGSvLkJQVF6Vf14beZtBTygzjXGTg56JjIG2wAWASOf2ZTzbGX3gAMsaJjkUxCZCMfnX8kOHBEezfdAqndtRDlsXOvCjLMuoONePckRaMn5+PmWsmwK1iMZioUjl6TjfnlV7iUK4mtz9zw+hfRJAeGaT205Vs3bokULxqw702yBtFx0KALAO1e89j3/Mn4esfBqCfa78cknHyrXM4e7gFs6+fgOI5ufq5QX4MA4QYFiPnIcvyvVu3LtFmIAEJx5FBJlL70i2bAOl50XFYnX9wBJv/Zz+2//nwezd/PfL1DWP7nw/jzcf2Y1ijwWFkXhLwXM3Lt70sOg7SDhsAJuOWA5+FjLOi47Cq9nPdeOGnO3DuqHEGUp493IIXfrQNF+q6RIdC+tUgOV13iQ6CtMUGgMkce/mOLki2WyRg4N0BR0bZbDqIQc125kATXvrl2+hvHxAey2i3gS4fXvv1LtQdbBYei9bnhp7OKz3FMoptQArJN556/kbO/W8ybACYUPVLN++VJayDhMh9Z0YfULn1LLb97yFDL64UDISw9Y8HUbn9rOhQSC8kjMgS1lW9ctt+0aGQ9tgAMKnqTbe+KgNrJQP1BAA6CELBdvi1aux+9jggy6JDUf83kGXsfvo4Dv+tRnwwHzo5VOwqPn4N8hCwDcjA2upNt74KMiU2AEysetOtr4ZgWwqgXnQsZlW59SwOvmS+NVEObqrCSfYEWNk5OSQv5s3f3NgAMLnql27eC6drBgzydYAOnnrC3ur2N2HPsycidCTE2/30CZzVyZgAtUTHr1UeUfKcfcQ2g93+5sd5ACzgncE7N45ftWG1JMm/0utkQQa6QKKtrgvbHz/8Xre/Kckytv/pEOJTY5BWkCQ0FDU3UD39fXTeEKiBLN97kp/6WQYbABZy6qVbNi1evOXVC/Ett8my9FVJg7UDrMg/OIItf4j8gD+n247ErHgkpsfCHeuEw32xugaGAxgeGEFP2wB6WvowMhyMWAzBQAhb/3AIa761EC6jzBpIo3VYkqVfZAxkPMVJfqyFNdpi3qngfwbw58lrnpwaCkm3AlgmQZopA3bB4emeLAM7/nIEA52DEXmSS81NxNhZOcgpTUVyXiJsto//lVBIRldDD5qq2nHmQBM6z/dqHlNf+wB2/OUwln5O8YrTmtDxk/OoiM5DAoKyhP2AtNkmBTccf2dhn0rBcVH0sQFgYe9U/KMAMGnd03HyUKgUIZTaJDkVMuJCNlvyaMuUQvICSJivKCCd948CwOk953HuiLaT/NjsNhTNzsHkZUVIHpMwyn0lpBYmIbUwCVM+UYzO8704sfkMTu9vhBzUbu2Bc4dbcHpvI8ZVjNGszFFRc17o6bxSE4eMnbJN2jHa3WyhUFfIJvUhhE7YUO0Y9lcd/funBlREQibBBgABAE48c3M/gIPvbIpNXLXhe5CVNQAkSLq5Tl+Kf3AE+/56EpC1izJ/WhYq1k1AfKo2y/Sm5ibg6k+XY/rKUux+phINxy5oUi4A7PvrSeRPzRTyKkCCpPi46+m8UpMHJLxxctMt39M0ILI0NgBIUzYASp879XKRvpz9L1RhuM+vSZyeOBfm3zkF+dOyNCjto+LTvVjxhVmoP9yCHX85iuEB9XNCDfUO4+DGU5h7y2QNIhwdDgLUVx5kDvwMkCgM3S39qN6hzXQK6WOTsfa+hRG7+b9ffnkW1t63EOmF2oziP7W9Hj0X2HtMZAZsABCF4ehrtZBl9e/Uc8an4RNfqoA32aNBVOGJTYnBtffORd7kDNVlySEZx/52WoOoiEg0NgBIc2omSZEk/W0DnYOo29+kehKYvMkZuOaLs+GKsUc9B4fbjmX3zETu5AzVeZzZ24iBTl9U4zfLeaU2DyItsQFAdAXH36hTPaI+fWwylnx+Bmx2cVXOZrdh6eemq34dEAqGcGLzGY2iIiJR2AAgTald7lRvQsEQ6vape/r3xDqx+F+nw+ESP82Cw+3A0rtmwhPnUpVT3Z7GqK58qCZWPZ1XanLgxZq0xnOK6GM0HGvFcL9fVRnzPzUVcakxGkWknjfZg3l3TlFVxtDACBpPtGkUERGJwAYA6Ybap7xIbGd2NarKqWBaFgqmZQnP48NbYXkW8qZmqsrt9O7zUY1ZKdHHWqs8iLTGBgBpziwXxlAwhKZT7YrzsdttmHPzBBGhh2XOuomw2SXF+TVVthniNYDemCUPMj42AEg/RD+afWhrq+tGYFj52ihFc3IQl+YVnsfltoQML4pm5yjOb2QoiPb6nujFrJQOjrUmeRBpjA0A0pSZBgG2VHWoymXiirECoh6dySuKVOXYcrI9KnGa5Z6rJgderElrPKeILuNCTafifVPyE5EyyoV9REjOTUByrvI4W2qVHyMiEotrAZCu6Olprbu5T/G+RbOydZXLxxk7OxtdCpcR7mnqN0SeRoiRKNrYACAAwOLFf/T0xsZOkhEqgSQlhWQkKipIxnwzXGxHfAEM9QwrvnFkj0/VNJ5IyhmfhkOoUrTvUM8QRoaDcLojP8eBGc4rQEUeMuZPu27DN5XsapPQA1nuDtpQndLnq9y69V+GlIZB5sEGgIVNX7l+Fmy2tTKk67pleQogOwAJkM1zsVWqp7Vf8b5Ojx0pecraTyKk5ifC4XYoGvAoy0BvSz9SC4yTr4Etl4DlSna8uIyFBFsI6I71BspXPX1MluWX7JBePPjyzQe0DZOMgg0Ai5m07mmXawC3SDbcK8vy9Is3e/WL3GhBeu8f4g10DCkOJTErHpJdJ4mEQbJLSMyMRWd9j6L9B7t8SC2MbANAzWA+PZ1XOhmU6IAsT5eA6TLk706/bsNByNLD/lhsOPHMzepmvSJD4SBAC5mxasNq12DoOCT5cVmWp4uO58NEfJF1uU3N53+JmV7h8Y92S8yMVZzvyHAgKjEqJfrYapVHBM2AJD/uGgwdL7/u6etEB0PRwx4AC5hzw19TR/yBx2RZXqvbS5DOBIaDivd1x7o0jCQ6XHFOxfuO+JQfK9ITqUSC/FL5dRueDyLw2WMv39ElOiKKLPYAmNzMlesrAv6RgxLktaKffIz0ZBQYGlGch8NtvHa1y+NUnG9gaCQqMZrhvALE17MrbTbgBifsh8pXPzU7ckeB9IANABObce3TS2XJ9gaAfNGxGE0woHxchN1hvGqlJmY1x4r0SiqwhaStM67b8AnRkVDkGO9KRWGZsWrDaskmvyoBcaKfKIz4tGaWPMKl93z1Hl+4RNevUW5eCXhxJscFmBYbACY0e+XT5ZKM9QCM9TJaAiSdbKruGjqI32z56j2+qOQhhhuQn57N1wGm5JipcGIJ0q8Q5H8DoHxYNxHRP3hDIemvM6/b8B+iAyFtOSTgJ6KDINIj4z2sqaP3fPUeX7gMmkcueK8wHb4CICIisiCHQVujZELvLiWsB2pi0VMe4dJ7vnqPL1x6ioWIPQBEREQWZLwZS8jczPJ4ZJY8wqX3fPUeH5EAfAVAH+DyOpE1IRWxKTGwKZgcpq2mE6215phB1Gp1Q+/56j2+cCnNI6M4GeklKaPeLxQIYaDTh5bKdvh9yte4IPNhDwABADwJLpTfUIZxV+UquvG/68jGGlUNAKtf5I1K7/nqPb5wZE1Mx7Q1JYr3DwVCOL2zAYdfqMZQHxf9I/YAEICknHgs+fJsxKbEqC5LzVwnejoXzZJHuPSer97jC5fIPGwOG0oWFSBncgbe/PVe9DT1qyyRjI6DAC3Ok+DS7OZPRPoXmxqDpV+aDU+csSYKJe2xAWBx5TeU8eZPZDGxaV5Mvb5MdBgkGF8BWJjL60TRvFxt+0glFcXpaa50s+QRLr3nq/f4wqWjPIqvzsWRv56Ef5ADA62KgwAtLHtCquZL16pcs0VP12lV++olj3DpPV+9xxcuPeVht9uQNSEN9QdaNCyVjIQ9ABYWm+7VvEwO1tJXHuHSe756jy9cessjLs2rq+ND0cUeACuT3/uH1oWq2FfreJQySx7h0nu+eo8vXDrLQ9bLcSERHHd+crzoGDR3tLIdRyvbFe07dWIapk5M0ziiyKk+3YW9hy4o2re/Y1DjaIjISPrblV8D5kzPROm4ZA2jiSwr3RfC5fjCP08VHYPmHnvyBI4p/EPPLs/EZ2+fpHFEkfPmWw3Yp7ABcKGyHaFgCHa7vsYB6IVZ8giX3vPVe3zh0ksewWAIrac6FJe55hNFWLogT8OIIstK94Vw8RWAwWWqeI8/MhjAmR3nUbI4X8OIVNLTlVoNs+QRLr3nq/f4wqVhHqe3N6j6AiA7M1a7YEgIUzYA9DbQJpLGFSbCYZcQDCp7l3f0+WrkTElHbKo2cwGY5dibJY9w6T1fvccXLr3kMdDuw7HnqxWX6XDYUFSQqGFEkaeXY68nnAjI4Dweh6qKONznx9Zf7UN/u0/DqIhIrwbafdj6q30YHhhRXMa4wkS4XXYNoyIRTNkDcHGwrMI2mwEHxc6dmY2a0z2K9+9pHMDfHnobU28sQdHVuerGBJjl2Jslj3DpPV+9xxcugXkEgyGc2XYeR/9a/c7NX/lz7VWzctQFI4JZziENmbMBAPN22VzKonm5+MvTp1SV4e/3Y//jJ3Dk2SpkTUiFN9WLmMTRzxXeXtOtqptNL383td2FeskjXHrPV+/xhUtNLO013Tj5yplR7+fr8WOwfRAtpzow8s47f7XHY9G8MSpLEEMv54FemLYBYCXjS5JRVpyMKhXL8L5rZDCAhgPKviogoshpqWxHi8JR7FoqGZeEkqIk0WGQBjgGwCRuXFUsOgT1JJ1tZsnDLPnqPb5I56ET69aWiA6BNGLKBoAV6+cnlhagMC9B+LXNLMfeLHmES+/56j2+cImuX2q3gtx4XLO4QPsDEwVmOYe0ZMoGgBXZ7RI+96nJosNQTfQFTqvKLjp+s+Wr9/iilYdo93xmKux2M2RCgInHAFjxFL163hgsWZCLrTvOiw7FFKx2Duk9X73HFy6j5rHs6jzMrzDg6P/3MeqxjxT2AJjMvV+YgYwIrPJHRNaVme7F/71nuugwSGOm7QGwqqREN/79/nn44je2YNgfFB2OJbVVK/tcS6S26m7RIZBOedx2/Pt35yExwS06FNKYKRsAat63maGLqKwkGT/87nzc9/0dGBkJiQ4nbDYAkk7+ADYoPxdaK9vRqoPPtUZLab7R+Lup+XuY5bwSwemw4aFvX2WoVf8ux+r3hUvhKwCTmj0jE9+/bx48HlO28YgowjweB37wnXmYOztbdCgUIaZtAFh1lO77XTUnG7/+yWKkp8YIH/1sxGMv+ngYZYsWvccXLtF/r3C2zHQvfvvTxaa7+ZvlHNKKaRsAdFFZSTIe+89rsNCgU3cSUXQtXpCL3/92BUpM0O1PH4/9wxaQEO/C9++fhwOHL+C3jx7Gufpe0SERkc7k5sThs5+egsULckWHQlFiygaAmm4bM3f3zCzPxO9/uwJvbmvA089X4Uyd8hUEI0FP3W16ikXvonGs1NZpvfwt9RTLu4qLknDzjWVYcnWeqSf54X3ho0zZAKDLczhsuGZZAa5ZVoDTdd14c1sDDh1pRc3pLgSKCfFAAAAgAElEQVSDgte81NPVUS9xGEG0WgBq9tXL31MHcdjtEkqLkzGjPBNLFuahaGyi6JBIENM2AHRQz3Rv3NgkjBt7cVUvny+AhsY+NDb1o7d3GL6hAPr6RkZd5vHKdhw34Cdwl8JzSF/M8vdQmsfkiWmYPDFt1PvFxzsR43EgMcGNMWPikDcm3rJfB5nlHNKKNc8C+oiYGAdKi5NRWqxu4M+fnjhhmgYAkZ7MKM/Ap++YJDoMMhE2AEg32FNrTHwDED69xEEEmLQBwMEe4pjl2OvppqF30ThOPK/0lYcR8dh/FOcBICIisiBT9gAA5m2xGYGqY6+jP5yOQtG/KBwsnlekFo/9B7EHgIiIyIJM2wNAxmSGFnpaaTLSSo01jWp7dRfaq7sU76/3v5ve4yMSwZQNAA72EMcsx15NHlmTUjHpxhItw4m4E3+tQYfCBgAHAYbPLHkYEY/9R/EVABERkQWZsgcAMG+LzQjMcuzNkke49J6v3uMLl1nyMCIe+w8ybQOAjEeSLm56oCYOPeURLr3nq/f4wqWXOIgAvgIgIiKyJFP2AHCwhzhmOfZmySNces9X7/GFyyx5GBGP/UexB4CIiMiCTNkDAJi3xRYpPl8A5871oLllAN3dQwgEQorKqazsUL1wi16YJY9w6T1fvccXLqWxVFZ24JlnTyna1+GwITnZg6zMWBQUJCImxrSX/o+lp/NAD6x5FhAAoLq6EzvfbsT+/S04e64HoZAsOiTz1FCz5BEuveer9/jCcOjwBRw6fEF1OTabhMLCRMyelYX583JRUmKsSatIO2wAWEwgEMLmN8/hxY01qKvrER0OEUVZKCTjzJlunDnTjQ1Pn0LR2CSsXVuCpUvy4XDwrbCVmLIBwMEel7bz7UY89vsjaLkwAEB/ueopHqudQ3rPV+/xhUuPy0zX1XXj4Yf3YcOGk/jCF6Zj5ows0SFFhFnOIS2ZsgFAH9TbO4yHH96P3XuaRIdCRDrV3NyPBx54C9esGIt//ddpiI11ig6JIsy0DQCztthG6/Tpbjz00A50dPh0f0z09HSk9mlBL3mES+/56j2+cOkplkuSgb//vQ6HDl3AAw/MR1FRkuiINKXrYy8AX/iYWFVVJ+6/fxs6OnyiQyEiA2lrG8S3vrUVJ060iw6FIogNAJPat68Z3/rWVvT1+UWHEj5JZ5tZ8jBLvnqPL9J5RNnAwAi++93tOHCgRXQoFCGmbABYpH5eVm1tF37y410Y8QeFX+uMeuzNkke49J6v3uMLl+j6NdrNPxzEj3+0C/XneiNzQKLILOeQlkzZALCynp5hfP+hHRgeDooORRHRFzytKrvo+M2Wr97ji1YeIgwNBfCjH70Nny8gOhTSmGkbAFaqoO/3H789gK7OIeEXOjMce7PkES6956v3+MIlup4p2RrP9+E3D++LyPGIJrOcQ1ox6VcAEiAr/bMZ98/99s5G7H67CcbNQU9xW+0c0nu+eo8vXGryEGvHW41YvKQJFXNzRIeikFnOIe2YtgfAagKBEB77/VHRYRCRiT32P0cRDOpgynDShCl7ANR02xi1nbdl8zm0XRgwbPzAxdaopJMEbFB+Lugpj3DpPV+9xxcuNXnoQUtzP7ZtqcfS5QWiQxk1K94XroQ9ACbx0qZa0SEQkQW88Hy16BBII6bsAbCa6qpO1J3RZmEfV6wTGZNT4U2LgWQf/f7tVV3oqOrWJBYi+ofUsiSklY1+5b5QUMZgmw+txzswMqh+JP/Zuh7U1nahuJirCBqdaRsAZu2yuZQ9u5pU5+tOdGHSLaUouDoHkooVwU4+W4tOkzQArHQOAfrPV+/xhUtpHplT0jDhk8WKf1cOhHB2ayMqn67BcK+6CcJ272w0ZAPALOeQVhzPPVMlOgbNnaxUPn3lycp2GO2Y7NjeoGr/hLw4zPvWTHhTYzSKiIj0RnLYMHZ5HjLL07DzJwfQd75fcVlvbWtAjNdYiwVZ7b4QDmnttc9wSKeFuRNdWPKjqzS7+Z98thYnn1U2HmHCJ4tVPeEQ6Z1e6sdgmw9b7tuFYSNNFU6aM+0rAArPxFtK4U3T8MlfTR+b2WfdINJJ/fBmxGDizcU49FilNgWSIfErAAtzxTpRuMiok3oQkRoFS3Ph8PIZ0MocfOCyrowpqaoG/F0Ozymiy9NL/bA5bMickoqmPRdEh0KCsPlnYbHpMZpfjHTSw0mkS3qrH7HpXo1LJCNhD4CFyREY/snZtoguT3f1Q5ZZ7yyMYwAszNc2KDoEIhJooM0nOgQSiK8ALKz1WAdCwRBsERgHoBgfR4guT8P6EQqE0H68Q7sCyXD4CsDCAoMB1G9pROGKPE3L5TlFdHl6qR9nN59HYDCgm3go+tgDYHGVG2qQWZ4Gb7o+ZgHkxYjo8rSqH4OtPpx6ukaj0sio2ANgcSO9fuz68QFc9e2ZmjQCdDfIiUhH9FA/Blt92PXjAxjpG2GdszgdvfwlUfrO92Prt3bh7OsNCAVCosMhoggIBUKo+1s9tn77bfQ1Kl8HgMyDrwAIAODv8+Pw/5zAiSeqkDYlFd70GHgS3aMup6OqKwLREVFHVRdqXqwb9X5DPcPwtfrQptFywGQefAVAHxAYDKBF5cxgirs4pYsbkVlJkvL60X60A+1H1Y3aZ/Wi93Ncv64sqj946kQ7TlUqO4nHT0zF+ElpGkdkDu1tPuzYWi86DCIyuQWL85Gmk0HDemO0+5vjjn+ZEtUffOaJSlQpPEBTp2di3R0TNY7IHEIhGQ1ne1B/tkd0KIrx6YTMzujTXefmJ+DfvjobdruRs4gco93fOAjQJGw2CXd8JrqNOSKylk9/fhpv/ibCQYAmMn1WFirmj8GenY2iQ1GMlxYifbpqYS6mzcgUHQZpSEgDgBf5yPnCV2bj/LleNJ3vEx0KEV2CEa9/WTlxuOtLM0WHYQhG+vvyFYDJxMQ48KVvVMDlsosORRmJGzcTbwbkdttx731z4Y11ig6FNBb1BoAF60/UjS1Own3/vhAxMQ7h1zv+fYn+QXT9Gu3mcdvxjQfno7AoKTIHxGSMdv1jD4BJTZichm8+tACeGA7zIKLRc7vt+PqD8zG5PEN0KBQhbACY2ITJafjeTxcjKydOdChhEf20w41bNDYjSMvw4rs/WcSbv8kJaQCYueLoTeG4JPzo18swd0Gu8Asf/75E4uvZlbarFubiZ/+1AsVlKZE7CCZmpOsf+4ctwBvrxJfvm4tjh1rxxGNHcO6McScLIqLIGJOXgE/eORFzF+aKDoWiJOoNADWtHT4lqjNlegZ+9Jvl2LmlHptfOYPqk+rmFddacCjIPzKZWsAX1N0pXjoxFctWFmHBknxIXIxDFaPd39gDYDE2m4SFywqwcFkBmhr6sGNLPU4ea0NdTRf8/qDQ2Ia6hnR3cSTS0nDXkOgQ4HLZUVSajPGT07FwaT6yc+NFh0SCsAFgYTl58bj5U5MAAMFACOfqetDV4UNfrx/9vcPo6/OPuszG+l4c3NOsKB5fq0/RfkRGMdg6qHjfGRXZGJOfMOr94uNdiEtwIz7BheTUGBSMTYTdwfHfxJkA6R12hw1FJclASbKqciqPtuGQwgZAd00P/H1+uOJdqmIg0qORvhH0nu5VfP277sZSTJiSrmlMpD0j3d/YDCRNZWbHKt5XDslo3d+mYTRE+tG8rxWhoKx4f6N8zkvGwZkASVMpaV4kJLgV/31PbzwLOaT8IkmkR3JIRt3GOsX1IjHJjeTUGBGh0ygY7f7GMQCkKUkCisen4NBeZa8B+ur70Li9CXlLxmgcGZE4DVub0NfQr3j/kgmpGkZDdBFfAZDmJkxV956y8n9PYaBF+WApIj0ZaB7EyT+dUlUG3/1TJHAmQNLcrHljVHWDjfSNYP+PD2JkICAgeiLtjAwGsO/HBzHSP6K4Ptiki3WKjMFI9zf2AJDmMrJiMbZY3dcEfQ392Hn/bgyyJ4AMaqB5EDu/tRv955V3/QNAUWkK0jK8GkVF9A9sAFBELFlZpLqM/vp+7PjmLpzf0ghJllUPsOHGLRobQjLOv9mInd/cpfrmDwBLNahLRJcS/amAZUCSJcX7kjHMX5KPp/9wHAMKJhN6v5HeAI785jjqXjyHsWsKkTk7Ha54p0ZREmnH3+fHhb1tOLPpLPrOXbzxS1B2rXtXfIIbcxflaREeRYHR7m/8CoAiwuW247pPluLpPx7XpLzec3048ttjkGwSkooT4M3ywp3khiuJkwaROP5uP4a7hzHQPIie072af8J63bpSuFx2TcskehdnAqSIuWZtMV5/sRbdnRrOfx6S0V3dg+5qrmhI+qPltS0lLQbL14zTsESKBiPd3zgGgCLG5bbjjrumiQ6DyJDuuHsan/4potgAoIiac3Uups/NFh0GkaHMmj8Gs+bz0z+KLE4FTBH3ua/MQnqmV/jobG7cjLClZXjxz1+aDjIetX/7aGMPAEVcbLwL93y7Ak52ZxJ9LJfLji9+Zy7iE9yiQyEL4EyAFBXjylLwf+6rgN0uCX/C4sZNj5vdJuGub8xGocoluUkspX9/EdgDQFFTXpGNz9w7Eza7qNOdSJ9sdgn/+tVZmMn3/hRFbABQVM1fVoAvfvcqjm4meofDacM936rAVUvzRYdCFsNBgBR15RXZuO8Xi5GeFSu825UbN5FbanoMvv2zRZi1gE/+ZqD2fIg29gCQEAXFSXjg10sw46oc0aEQCTFz/hh87z+Wo6gsRXQoZFGcCZCEiUtw498euAr73zqP9Y8eQXeHhjMGEulUcloMbr97Gmbwfb8pGen+xrUASLhZC3MxdU42Nm+sxWvPVqO/V90CQkR6FJfgxrXrSrF0zTiOgSFdYAOAdMHltuPadWVYtrYYe7Y0YNsrZ1BX3SU6LCJVJAkYW5qCRSvHomJxHufCIF2J/nLAUN5FYqSuFVLG5bJj4ScKsfAThWi/MIhDbzei6mgbTp/sRF/PsOjwiK4oPsmNcRNSMX5qOqbPy0Fqhld0SBQlRru/sQeAdCst04sVN5RgxQ0lAICudh9am/vx5sbTOLCjUVGZyROSkDJR2UQrnZVd6DrZrWjf4ompKJmUpmjfmhPtqK3sULQv8w2fmnxnLhiDpWvGISM7DslpMYrKIIo2DgIkw0hOi0FyWgyqjrThoMIGQFp5KkpuK1a0b836WnQrvEFMnJ6BNXdOVLTvxr9U4rTCGyLzDZ+afMcUJKBsSrqifclcjHR/Yw8AWY+RaqgWmC8RXQLnASAiIrIgDgIkwxF1DvF3+buR+F0yD6OdQ3wFQJZitAqqFvMd3b5EVsJBgGRIos4h/i5/l+jjGOkc4hgAIiIiC+IrALIWq/URM9/R7UtkIRwESIaj9hwSta9SzNcY+xIZ7RziKwAiIiIL4iBAMiSrDRLj75r7d8k8jHQOsQeAiIjIgtgAICIisiAOAiTDcThsis+F0FAQksKdg4NBxb/rdCpfB575hs+I+ZJ5GO3+xh4AMhyP16l4X98Fn+J9hy4MKt7X41Xe1ma+4TNivkSicBAgGU5svEvxOdR5uAOhQAg2x+javqFACJ1HOxX/blyCS+GezHc0jJgvmYuR7m/sASDDycyNU7xvYCCAptcbR73f+dfOIzAQUPy7GbnxivdlvuEzYr5EorABQIaTkRsPm015O7v2z7UYavW9977uSttQiw+nn6hV/Hs2u4TMMcpvasx3dIyWL5EoUW8AhFspL7cReWIcyBuXpPgcGunx4+CDB+G7MHTF3/K1+HDwewcQ6B1R/HsFxclweVS8E2e+ps6XzMNo9zf2AJAhlZVnqNp/oL4fe768C+dfaYAcDH2kJsrBEOpfrsfue3dhoGFAXazT1cUKMN/RMlq+RCJwECAZ0szFuXjjmSpVZYz0+nHyPytR87/VSClPhScjBsDF0eCdRzrfeyes9nydcXWuyhKYrxJGypfMw0j3N/ZbkSHlFiVhTFEiGs/0qC4rMBBA684LGkT1UblFSRgzNlGbcpivIkbIl0gEvgIgw1p6Y4noEK5o2Se1i5H56o+W+RJFGwcBkmHNWpyP9OxY1edUpLaMMXGYcXUe82W+ZBFqz6loYw8AGZbNLuGGz08THcZl3fC5qbDZtavWzFdftM6XKNoENAAkQFa4CWkjkZ5NmZuNqVeNUX5ORWgrn5+LyRXZzJf5kqUY6/4mpAdAUrgRXcrtX5mJ1Eyv8C7hd7fk9Bjc8qXpzJf5kgUZ6f7GVwBkeN44J/75vgpdTMbi8jjw2e/ORWwE54ZnvuJEI1+iaOEgQDKFgrJkfOb+iveWkhWxORw2fOb+CuSXJjNf5ksWZLT7G3sAyDQmzM7EXT+YB3dM9J8UXR4HPvvgXEyYnRm132S+0SMiX6JIYwOATKV0egb+z08WIjnDG7XfTMnw4os/XYiJs7Oi9pvvYr6RJzJfokjiIEAynfyyZHztP5Zi6ryciHcLly8Yg6/951LkCewWZr7mzpeMxUj3N/GjaogiIDbBhc88MBcndjfjhUePor1Z3YIvH5Y+Jg7X3zUVE+fo46mQ+Zo7X6JIiHoDQE1rh70ANFqT5mZjwuwsHNzagK3P1aBJ5dzyY8YlYvFNJZi+KE+Xk8AwX3PnS/pmtPsbewDI9Gx2CbOW5WPWsnw01fXg0NbzqDncivM13QiF5I/f1yYhrzQZJeXpKF+UixwDLPzCfM2dL5FW2AAgS8kZm/jORX4Shn0BtDX2o62xHwO9fvh9F5eHdXsd8Ma7kD4mDhm5cbr4/lwp5mvufInUEHLms2ON9MAd40BucRJyi5NEhxIVzJco8ox0f+NngERERBbEQYBEREQaMNr9jT0AREREFsQGABERkQVxECAREZFGjHR/Yw8AERGRBXEQIBERkQaMdn9jDwAREZEFsQFARERkQRwESEREpBEj3d/YA0BERGRBHARIRESkAaPd39gDQEREZEFcB5Ms5Y2/nMQbfzmpaN/ld07A8jsnaBxRZDHf8BkxXyI1OAiQLMdq5x/zJYoeI51/fAVARERkQRwESJZitfOP+Y5uXyI1jHb+sQeAiIjIgtgAICIisiAOAiTLsdr5x3yJosdI5x97AIiIiCyIgwDJUqx2/jHf0e1LpIbRzj/2ABAREVkQGwBEREQWxEGAZDlWO/+YL1H0GOn8Yw8AERGRBXEQIFmK1c4/5ju6fYnUMNr5xx4AIiIiC+JywGQpS+6cgCUWWvKV+RLR5XAQIBERkUaMdH/jKwAiIiILin4PgAxAVthGkjWNhIiISDsGu7/xKwAiIiINGO3+xlcAREREFsRBgERERBox0v2NPQBEREQWxAYAERGRBXEQIBERkQaMdn9jDwAREZEFcRAgERGRRox0f2MPABERkQWxAUBERGRBHARIRESkAaPd37gcMFnK9j+fxPa/nFK079V3jsfV/5+xlpplvuEzYr5EanAQIFmO1c4/5ksUPUY6/zgGgIiIyILYACAiIrIgDgIkS7Ha+cd8R7cvkRpGO//YA0BERGRBHARI7+lr96HzfD+6LwwiMBzEyFAAAGBz2OCJcyExIwZJ2bFIzPQKjlQdq51/zNcaulsG0dMygJ5WH4b6/QgFQgAAp8cBp8eOxAwvUnLjEJ8WIzhSczPS+cfPAC2s83w/ave2oP5IG+qPdWB4YCSs/WISXMgpS0bhjAyUzM1Gck5shCMlog/rbOxHze5mnD3YhuaqLvj6/GHt54lzIm9yKgrK0zFuThZSxsRFOFLSKzYALGZkOIjjb9Tj2Ov1aDzZqagMX68fp/ddwOl9F7D50WPILk3GtH8qwORl+XB67BpHTETv8vsCOPFmA468dg7N1V2KyhjqH0HN7hbU7G7BG48cw5gJKZiyIh+Tl+fD6Wb9tRIOArQIvy+AAy+ewb7nazHYPQxAu+PZUt2FluoubP9TJebcWIJZ14/TbUPAaucf8x3dvnrl9wWw/4XT2PfXWvh6Lz7paxVv08lONJ3sxFuPn8Scm4oxY3URXDF8NlTCaOcf/8oWcGp7IzY/egx97b6I/o6vx49tfzyBg5vOYOnnJ2PCotyI/h6RFVRuOY8tvz8e8fo72D2MrY+dwIEXz2D5PVNRtiAnor9H4nEQoIn5ev145RcHULu7BUD0jnt/uw8bf7QPp7Y14p++PB0xCa4o/XJ4rHb+MV9j8vX48eqvDqJmVzOA6NbfF36wByVXZWPlV2fAE6+v+qt3Rjr/+BmgSTWe7MT/fuHN927+IlTvbMIf73kTLQrfVRJZVXNVF/5wz+b3bv4i1Oxqxh+/sAVNp1h/zYoNABOq2dWMp765A71tke0yDEdfuw9PfO0tVO9sEh0KkSGc2t6IJ7/2Fvo7hkSHgt7WQaz/xltCHyQocqLeAJBUbvTxTmyux4s/2IPgcFD1sdZqCw4HsfGHe1G5pSHS6V/RiC+gOA+HU58DGz+O1eqbw2lXnOuILygi5A848UY9Nv14H4J+fdXfF76/Gyc2i6+/eme0+sYeABOp2dWMV39xEKGgLDqUjwgFZbz80wOoeVtclyYAVU9VLi/HzOqdK0Z5I62/U2yPWdVbjXjl5wchh/RZf19933giMgchDQCjtI6MpOlkJ1768T7IQVn4E8Nl/34hGS//ZB+aq8S9U+y9MKg4frdBGwBWqm+uGKfifPsuDIoIGQDQWNmJV356AJD1W3/loIyXfrRXaP01AiPVN/YAmMBQ/whe+vE+BIbFd2FeychwEC9+fw98PeHNWqYlX69f1YDEhAxjT4FsBQkZyqe5bTrVJeS8HOrzX6y/foPU3x/seW8uAjI2NgBM4JWf7UePwKeX0epr9+FvDx+M+u/W7m5W9XokJY9TpupdSl684n3lkIzTe6Pfxf3qLw6it9VA9bfNh789fEh0GKQBDgI0uKrtjTizu0V49+Bot9q3m1H9VmNkDsolyCEZB56rVRxvTLwLscmeqMWrFavVt7gUDzxxyl8DHHiuFrIcvXfwp7adx+ldzcLr46jr784m1PDLno8wWn1jD4CB+X0BbHn0mOgwFHvzkWMYidJrixNv1KP9bK/i/XOnpGoYDUWMBOROVv63aqvrQeUb0RntPjIUxJZHjFt/tzxyDCND+n9tQZfHmQAN7NCLZzDQ7tP0eNrsErLKkpGYFQtvkhvAxSlCe5oH0FLdpekXBgPtPhx+8Qxm31yiWZmX0t00gG2/O67qOBWUp2sWT7RZrb7ll6fjjIrR6tt+dwxjJqciKTuyq1wefOE0BjuHDFt/+1oHcXjTGcxeF9n6azRGqm/GHNZMGBkO4uDztZqVl16UiFk3FaOoIuuyU3/6ev04s6cF+5+rQXud8qfp99v3TDXK1xZFbBWy4f4RPP/gLgyFuVTqJUlA0Zws7YKiiCqak4WtKp6sfb1+vPDALtz28CK4Y50aRvYPI0NB7H+2RrPyRNXf/c/VYPqaIji4iqAhsQFgUJVv1L+3qp8aMYkuLL5rCiYszYMkfXzbNSbBhUkr8jFxeR4q32jAtt8dUz0a2Nfrx6kt5zHlnwpUlXMp3U0DeP7BXeis71NVzpiJqUiM8NMgaSd5TBxyJqSgSeFy1wDQUd+H9fdux/UPzY1IT8DJNxvUNUrfIbr+DnYNo3JzA6auLFRVDonBQYAGVfl6vepjmV6YgDt+swQTl+Vf8eLxfpIkYdKKfNz+m8VIK0hQHcexl+tUHImPkkMyTvz9HJ780lZ01fepjm/SinxN44smq9a3SSvyVefeea4XT35pKypfr9d8YODRl+tMU38r36hXcSTMxWj1jYMADajrfD+aVTzdAEBaYQJu/dUiJGYp/7Y9KTsWt/7qaqQWJKiKpaW6Cz3NA6rKAC6unnbi7+fw53vexN9+cVCTJ6zYZA8mLM1TXQ5F18Tl+e+9A1djqNeP135+AH++502c+Hs9hjT4/r27eQCttd2qytBT/W2q7EC3BvWXoo+DAA2obm+LqmMYk+jC2oeu0mRqW3esE2sfmov1X9qq6uL41mMnkFmaNOr9BruGMdA1hJ7mAVyo7n5vGlWtzrFZnyw2/PtNK9Y3h9uOmTcVY8djJzQpr6OuF3//xQFItouD7BKyvIhN9sCbPPpGxoXqbnPVXxk4u7cF5WvHqY7HDIxU3zgGwIAajrSp2n/RXVNUPTl8WFJ2LBZ9fgr+9vMDisuoeasRNVGcFyAcCRleTFtdJDoMxbqbB9B2ukfx/m2ne9DTPGDY8Q/lq4twZOMZ9Gm4KqYcktF8slN1D5waeqy/9Yfa2AAwIDYAjEYGGo93KN49vSgR4yPQpT1heR4OaDi6WA8Wf2Gq4Z7+R4aCOPVmA46+XKe6m/n0rmac3tWMzJIkTFk5FuOX5sHpMc7xcMY4sOjuqXjpB3tEh6IZvdZfNdckEoeDAA2mv8MHf/+I4uM386biUQ0YCpckSZh5Y4nqv69etpIFORh3VbbWhyliRoaC2PdUNR678zVs/vUhtNV2a3YsWmu6sfnXh/DYna9h31PVhpr8pWRBDoqvyhZ+Pmm16bX+Dvf5MdCpfKVNs1D79402AT0AEiArTVXEIdKXrvP9io+fzS5hbEXkvmcvmpsFm82my+WIRyMhy4sV984QHUbYqrc1Ytt/H3vfBTgy9WSodwQ7/1CJwy+cwaJ7pqB00ZiI/I7WVnx1Btq+sBW9Blov41L0Xn+7GvoRm2K86bK1Zaz7G78CMJi+VuXvMzPLki87SYgWPAkuZJYmR6z8aHC47bjuO3PgjovMBDBa8vX4sfHB3Xjlh/ui+vQ10DmEV364Dxsf3K3JqPhI88S7sPL+2YZ7nfNheq+/aq5NJIaQBoBRukf0aGQwoPj4aTlw6HISMr3Cu0mVbna7hOu+M1vR1wjR1lzZiSfveRN1u8QtBFW3qwVP3L0FLQIHxIUra3wyVt4/G3a7JPw8M2v99Q+ORDw+I1B6/ERgD4DB+IcCiveNRvdcXKoxuwBtdgkrvj4jomKYKLgAABKKSURBVF2sWql9qwnPfWMn+tvFv3Ptb/fhuW/sRO0O/a8MVzQ3Cyu+NgM2u6jLrTp6r79+n/JrE4nBQYBGI+v/+Il+Uhrt5nTbsfp7FREZXa21mm2NePWH+xDyB4Uft3e34HAQr/5gH05tjs4qemqMX5aHVd+rgNNtF37czFh/rc4If9/3Yw+AwbhilI/b7O+I/BPjQBR+Q0sJWV588hcLUWiAJ/+a7Y147cf735vsSE9kWcbrPzuI2rf03xMwtiILN/18AeIzI9+lriW911+nimsTicEGgMGomf2rLwqjoI000rp4YQ5u+68lyDDAO/8LVV14/WcHdXnzf5cckvH3nx7Ahaou0aFcUWZZMm7/7yUYN984n3rqvf66vPofOEsfxEGABhOvYpBOa1VXREdt+3r8aK3qEt5NeqUtIdOLVd+rwMrvGme0/ysP7UFwWD/d/pfbgsNBvPLQHvh69P91gDvOieserMB1D1YgPj1G+LEzev1NyIyJWGxGovT4icAeAINJzo1TvG8oKKNuT4uG0XzQ2d0tun5C9aZ4MP9zk3Hn75ehaJ5xnvze/NUhXQz4C1d/+xC2PHxIdBhhGzc/G3c+thzzPzdJ0dz+0aL3+qvm2kRiRP2ljZrWjqhWkp7EpnjgiXNiuF/ZJzeHn6vF+OVXXjt8tOSQjMPP1ervbyQB2RNTMX5FHsqW5RnuW/DqLedR93az/o7rFZzZ2YyabY0oMchkQU6PHTPWlWDqmiJUbW7Aqdcb0FzZAeisPavX+uuJd8Fr+UmAjHd/46gNo5GAnMmpqNut7Emg40wvqt5owHiN17g/9XoDOs7qYx0AT7wLOVNSkVuejsKKTCQYdDGbEV8AO//nuOgwFNv56HEUVmQZav0Ah9uOSSsLMWllIXqbB1C3pwXnD7ej6Wi74ka3lvRaf3OmpGoYDUULGwAGlFuerrgBAAA7Hj2O7EmpSMzR5sbY0zSAnb9Td6MqrMhCSmH8qPfzxLngjLHDGeNAfIYXyXlxpnkSOfLCGQxo3PVvs0vILEtGQlYsYpIuzirn6/ajp2UArVVdmk7j3N/uw9EXTmPmraWalRlNCdmxmHb9OEy7/uIqd4OdQ+hq6Edf6yBGfAGM+IIY6h/9O/nOs304q6IrX4/1N7c8XZNYKLqENACM1p2pNwUVmdjxyDHF+w/3+vHKg7tx08NXwxWrbhDccP8IXn5gN4b7/Kr+rlf/n6lIiMJMZ0Yx4gvgyF+1e6WSVpSI8puKUTA387LTyQ71+nF2TwsOP1uLDo1WdTzy3GlMvX6coXoBLseb4tGkcdnTNIBzKhoAuqu/ElBYkakqDjMx0v2NgwANKGlMHLImpqgqo/NcH5778nb0NA0oLqOnaQDPfXk7uur7VMWSUZbMm/+HVG1uwJAGI+k9iS4s/8ZM3Pzfi1G2Iu9j55L3JLgwfkU+bnlkCZZ9fQY8Cernnff1DKNmy3nV5ZhJYk4s0ovVfXqqp/qbPTHVsK/ZrI4zARrU+BX5qo9l17k+PPelbah6vR6yHH7XrxyScepv9Xj2i9vQXd+nOo7J1xUqPxAmdeq1c6qPa2phAtb9djHKRjloTJIkjF+Rj0/+ZhFSC+JVx1H5ylnlB8KkJq8qNE39Hb9C/zNoRovR7m/sATCosuV5iElS/8nSUK8fm392EE/fvQWn/l7/sd8ZD/X4cepv9dhw9xa8+YuDGO7T5gm1ZEmu6nLMpKexH63V3arKSClMwI0PX62qZyUxJxY3Pnw1UgpGPzbj/VqrulQ9qZpRydI8uDVY2U90/fWmeFC6jA0Ao+IgQINyuO0ov6kYux47oUl5HXW9ePPnByHZpPe65N/9Jnqwaxi9zQNore7W/Dv/6TeXGO7TvEg7q2KAJ3CxUbXy+3NVzRr5LlesE9c+NBfPfWmbqklozu1pwdQbxqmOxyycHjumryvG7j9UalKeqPpbflMx66+BcRCggU1eMxbHN55Bf5uG63CHZLSe7ETrZZZ41fJvF5vmwZQ1RRqWaA7nD7apOs4L7pqi6ZiKxJxYzL9rMt782UHFZZw/2MYGwIdMuX4cjr1wBoOdGn7pEcX6G5/pxeQ1YzUs0RyMdH/jKwADc8Y4MO/uKaLDUGzBPVP59PBh8sUuc6VSixJQskz7Vyqly/OQVpyoeP8LJzt1N6mOaE6PHQvuMW79nX/PFNZfg+MgQIMbtzAHY+dlqz6u0d6K5mejaGFOZA6KgfW1DmK416/4uJbfVKL5LHEAIEkSpl4/TnFcw71+bXuqTGLcojEYe1WW8Po42u3d6w59kNrjGm3sATCBJV+bYailTePSY7Do3umiw9Cl3mblg+Vsdgn5Efweu2BuFmx25ZcpNbmZ2ZKvzzRW/c2IwaIvl4sOgzTABoAJuOOcWHH/bEN0xzncdnziwQpNvjE3o74Lyp+SM8qSI3pcPQkupJcmK96/r9U4S0VHkzvOieX3zTJO/X2gQpMvGEg8LgdsEhnjk7Hi/tmw2yXh3YOX22w2Ccvvm430UnWToJjZyMCI4uMbH4XJlBJULEft18Fc+nqVOSEFy745Ezabfuuv3S7hmu+w/l6Jke5v7AEwkYK5WVj8tRmqumkjxWaXsPRbM1F4VZboUHQtMBxUvG801kDwpir/jcCQ8tysYOyCHCz5xgxINn3W38Vfn4H8CtZfM+FywCZTsiwPrlgnNv9wn6qbiZYcbjuWfnsWCjlo6IokSd/1Q1X9ZQW+opKleXA47djy0wO6qr/LvzObN/8wGO3+xh4AEyqYm4VVP1+AOB0MLIpN82DNLxfy5h8mh0d5m3ywQ9uVAy9lQMVvOGM471g4xi7MweqfL0BsmvhVLeOzvFj9i4W8+ZsUGwAmlVGWjJv+ewkK54u78RYtzMFNjyxFWgnfGYZLzex9fRciP8hOzW84vepWrrOS9LJk3PTIUoxdIO5T2bELc3DTfy3hO38T40yAJuaOc+KaBytwdmcz3v6voxiI0nfYcRkxmHvXFIzld/6jFvfOIDsl2qu6MNTrj9iXAEM9frRXdSmOLz4zRtN4zM6T4MKKB+bgzLZG7H70OAbao1R/M72Yd88UFLDXThEj3d/YJ2cBhfOzkTszA5WbzuDos7XwdQ1H5HdiktyY8sliTFpTBIcJ1n8XISk3TvG+oaCM+j0tKF2Rr2FE/1C/u0XVXPKJKnKzsqJFY5BfkYUTL16sv0M9kam/3hQPptxUjIlrxhrik0RSj4MALcLhsWPquhJMXFOE2s0NqHm9ARcqOzSZnjVjfDLKVhZi3JJcXjhU8qZ44I5zKv5k7vhztSgZ5fK/4ZBDMo49V6u4DrrjXVH5SsGsHB47pt1Sgklri3B6y3lUvXoWraeUTxn9HgnInJiKkhV5KF6Wx/qrktHub+wBsBiH247xKwsxfmUh+poHUL+nBU2H29FytB3DYd50PIlupI9PxpgZ6SiYm4X47NgIR20hEpA1ORX1ClcE7DzTi9o3GlCicS9AzesN6Drbq3j/rCmpGkZjXQ6PHWXXFqDs2gL0NQ/g3O4WNB5sQ9uprrB7BtzxLmRNSUVOeTryKzJZfy2MDQALi8+OxaTrx2HS9RdXafN1DqG7oR/9rYMY8QUw4rv4GZLdZYM7zom4TC/is2IRl8F3uZGUU56uuAEAALsfPY7MSalIyNHmwt7bNIA9vzuuqoyc8nRNYqF/iM+OxeQbxmHyO6ss9rf60Nc8gP7WQQz3jyDoDwEAnDF2OGMciMvwIikvDjHsiaF3cBAgvScmxcOLgw7kV2RizyPHFO/v7/Xj9Qd3Y/XDV8MVq27kvb9/BK8/sBv+Pr/yeishomsU0EVxGTFsnOuAke5v/AyQSGcSxsQhY0KKqjK6z/Vh4xe3oed8v+IyepsGsOne7eiu71MVS+akVHYzE+kQlwMm0qGSa/JV15Xe8/146cvbUfN6PWQ5/NGeckhGzd/qsemL29Bzrk91HCXL81QcCSLjMNr9jWMAiHSoeHkeDv7pJIa61X3yNdzrx1s/O4jjz9Zi8k3FyJ+bBfdl5gkY6vGjYXcLjj9Xq2rA3/vFpHhQvIwNACI9YgOASIccbjsm31SM/Y+d0KS8rrpevPXzg5BsEtLLkhGX5UVMshsA4OsaRl/zANqru1V9538pk28qhp2flhHpEgcBEunUhDVjcWrjGW1ncAzJaDvZibaTnZf8z1rWzbhMLyasGathiUT6Z6T7GwcBEumUM8aBOXdPER2GYhX3TOHEMkQ6xkGARDpWuDAHBfOyVdebaG+FC3OQz7nkyWKMdn9jDwCRzi342gxdLO0crtiMGMz7crnoMIjoCtgAINI5V5wTi+6fbYjBdA63HUseqIA7PjIrEhKRdoQ0AIzSPUKkF+njk7HkO7Nhs0vCu/cvt9lsEq7+9iykcf14sjAj3d+i3wCQAciSwi3q0RLpRm5FFhZ8bQYkm01FHYrMJtlsWPD1mXzvT9ZmsPsb5wEgMpCiZXlwxTqx7d/3IzAcFB0OgIvd/ou+Oxu5nO+fyFD4FQCRweTOzcInfj4f/6+9u3mx8yzgMHwPOU0y+RCcJCbV2tChkSEpUl2ooELwCyl+UBDduRD/ELduXAm6dqWli9Kl4M5FcSVaS8RSQQM6aqZgG1NtYNy4Op5CJnNyDud9rgu6TPNyZ/E+/N4nk3OXz6x99j9/5Uxf/sFnvPyhzXu/uQQIG+ji3vv76o9v9uSn1ze5X/3sB/vKj252wTd/2Eh+EiBsqJPnHuvm9z7R7Vf+2q9++Nvu7v9rJb/vmYun+9h3rrf7RT/jH+Zt0vvNHQDYcE986kpXnr3U71/+Y6+9+HrvvHm8f0DovWzvnOr6N57uI197yk/4gwlwAIAJmJ0+0Y1vPt3e15/qjV/c7o2f/6m/vXZw/JvFW/WB6zvtfunJdj//xEb8LALgwaz8AHCcyw6bNK3AOpw4daJrz13t2nNXe/svd7v9yn77v/57+7+503/efveB/h8nz5/s8kcvdOXZi33ok5c79/jZR/zUMA2b9n6zAMBEnXv8bHvP77b3/G5V9w7+3T///FZ39+/17jv3u3/vflWz7VmPnZ519vJ27/vw+bZ3Tq3zsYEVcQkQBrG9c8rLHR6xTXq/+WuAADAgBwAAGJBLgACwBJv2frMAAMCAXAIEgCXZpPebBQAABuQAAAADcgkQAJZg095vFgAAGJBLgACwJJv0frMAAMCAHAAAYEAuAQLAEmza+21262d/WOlv+I/fHRzr1676eQHgQWza+23rhS+8dLjS3xEAWDt3AABgQA4AADCgmYt1ADAeCwAADMgCAAADsgAAwIAcAABgQD4BAMCALAAAMCALAAAMyAIAAANyAACAAfkEAAADml371rV1P8PSHbx6pzsP+c8yXrix084zF5b8RKungQalQWlQGpQGi8xufPf6up9h6W795FYHD/kHfenjl9r79t6Sn2j1NNCgNCgNSoPSYBF3AABgQA4AADCg2bof4FHY+t9/D/trp0ADDUqD0qA0KA0WmeQBoLbqcPQ/ag00KA1Kg9KgNPh/PgEAwIAmugBM9bx2NBpoUBqUBqVBaTDPAgAAA5rkAuCyhwalQWlQGpQGpcEiFgAAGJADAAAMaJKfAGq6k81RaKBBaVAalAalwTwLAAAMaJILgMseGpQGpUFpUBqUBotYAABgQA4AADCgSX4CqOlONkehgQalQWlQGpQG8ywAADCgSS4ALntoUBqUBqVBaVAaLGIBAIABOQAAwIAm+QmgpjvZHIUGGpQGpUFpUBrMswAAwIAmuQC47KFBaVAalAalQWmwiAUAAAbkAAAAA5rkJ4Ca7mRzFBpoUBqUBqVBaTDPAgAAA5rkAuCyhwalQWlQGpQGpcEiFgAAGJADAAAMaJKfAGq6k81RaKBBaVAalAalwTwLAAAMaJILgMseGpQGpUFpUBqUBotYAABgQA4AADCgSX4CqOlONkehgQalQWlQGpQG8ywAADCgSS4ALntoUBqUBqVBaVAaLGIBAIABOQAAwIAm+QmgpjvZHIUGGpQGpUFpUBrMswAAwIAmuQC47KFBaVAalAalQWmwiAUAAAbkAAAAA5rkJ4AOa+vwIUebw+U+ytpooEFpUBqUBqXBAhYAABiQAwAADGiSnwDc9tSgNCgNSoPSoDRYxAIAAAOa5AJQ0z2xHYUGGpQGpUFpUBrMm93+6evrfoale+vVN4/1a6fQRAMNSoPSoDQoDRbZ+uXnXp7oX3AAAN7LzCQCAONxCRAABmQBAIABWQAAYEAOAAAwIJ8AAGBAFgAAGJAFAAAGZAEAgAE5AADAgHwCAIABWQAAYEAWAAAY0Gyrvr/uhwAAVuu/Ky5PnKXE590AAAAASUVORK5CYII=;" vertex="1" parent="P9oJgNJOL5zkBP48cO2s-5">
          <mxGeometry width="302" height="302" as="geometry" />
        </mxCell>
        <mxCell id="P9oJgNJOL5zkBP48cO2s-6" value="" style="html=1;overflow=block;blockSpacing=1;whiteSpace=wrap;shape=image;fontSize=13;spacing=0;strokeColor=none;strokeOpacity=100;rounded=1;absoluteArcSize=1;arcSize=9;strokeWidth=0;image=https://images.lucid.app/images/750f09d8-2787-4223-a2d2-aaed327dabea/content;imageAspect=0;lucidId=cHu2LGg50TA5;" vertex="1" parent="1">
          <mxGeometry x="2450" y="-1120" width="350" height="319" as="geometry" />
        </mxCell>
        <mxCell id="P9oJgNJOL5zkBP48cO2s-7" value="" style="endArrow=classic;html=1;rounded=0;exitX=0.096;exitY=0.551;exitDx=0;exitDy=0;exitPerimeter=0;entryX=0.716;entryY=0.249;entryDx=0;entryDy=0;entryPerimeter=0;strokeWidth=11;" edge="1" parent="1" target="yKrpJMPBM3yrQ6L8E5i--3">
          <mxGeometry width="50" height="50" relative="1" as="geometry">
            <mxPoint x="2650" y="-780" as="sourcePoint" />
            <mxPoint x="3041" y="-600" as="targetPoint" />
          </mxGeometry>
        </mxCell>
        <mxCell id="P9oJgNJOL5zkBP48cO2s-8" value="" style="endArrow=classic;html=1;rounded=0;exitX=0.096;exitY=0.551;exitDx=0;exitDy=0;exitPerimeter=0;entryX=0.65;entryY=0.265;entryDx=0;entryDy=0;entryPerimeter=0;strokeWidth=11;" edge="1" parent="1" target="yKrpJMPBM3yrQ6L8E5i--3">
          <mxGeometry width="50" height="50" relative="1" as="geometry">
            <mxPoint x="2660" y="-770" as="sourcePoint" />
            <mxPoint x="2858" y="-510" as="targetPoint" />
          </mxGeometry>
        </mxCell>
      </root>
    </mxGraphModel>
  </diagram>
  <diagram id="NvSpmW7NQxoTM__MtVsj" name="워크플로우">
    <mxGraphModel dx="223" dy="621" grid="1" gridSize="10" guides="1" tooltips="1" connect="1" arrows="1" fold="1" page="1" pageScale="1" pageWidth="827" pageHeight="1169" math="0" shadow="0">
      <root>
        <mxCell id="0" />
        <mxCell id="1" parent="0" />
        <mxCell id="es4Gq8qPdxoEyCwxRX_K-1" value="" style="rounded=1;whiteSpace=wrap;html=1;" parent="1" vertex="1">
          <mxGeometry x="1200" y="293" width="220" height="260" as="geometry" />
        </mxCell>
        <mxCell id="es4Gq8qPdxoEyCwxRX_K-2" value="RTMP to HLS Stream" style="shape=image;verticalLabelPosition=bottom;labelBackgroundColor=default;verticalAlign=top;aspect=fixed;imageAspect=0;image=https://zivgitlab.uni-muenster.de/uploads/-/system/project/avatar/3512/ffmpeg.png;" parent="1" vertex="1">
          <mxGeometry x="1230" y="303" width="92" height="92" as="geometry" />
        </mxCell>
        <mxCell id="es4Gq8qPdxoEyCwxRX_K-3" value="방송 송출자" style="shape=umlActor;verticalLabelPosition=bottom;verticalAlign=top;html=1;outlineConnect=0;" parent="1" vertex="1">
          <mxGeometry x="960" y="319" width="30" height="60" as="geometry" />
        </mxCell>
        <mxCell id="es4Gq8qPdxoEyCwxRX_K-4" value="" style="shape=image;verticalLabelPosition=bottom;labelBackgroundColor=default;verticalAlign=top;aspect=fixed;imageAspect=0;image=https://upload.wikimedia.org/wikipedia/commons/thumb/1/14/Open_Broadcaster_Software_Logo.png/120px-Open_Broadcaster_Software_Logo.png;" parent="1" vertex="1">
          <mxGeometry x="1060" y="250" width="89" height="89" as="geometry" />
        </mxCell>
        <mxCell id="es4Gq8qPdxoEyCwxRX_K-5" value="RTMP Protocol" style="endArrow=classic;html=1;rounded=0;exitX=0.5;exitY=0.5;exitDx=0;exitDy=0;exitPerimeter=0;entryX=0;entryY=0.5;entryDx=0;entryDy=0;" parent="1" source="es4Gq8qPdxoEyCwxRX_K-3" target="es4Gq8qPdxoEyCwxRX_K-2" edge="1">
          <mxGeometry width="50" height="50" relative="1" as="geometry">
            <mxPoint x="1090" y="374" as="sourcePoint" />
            <mxPoint x="1140" y="324" as="targetPoint" />
          </mxGeometry>
        </mxCell>
        <mxCell id="es4Gq8qPdxoEyCwxRX_K-6" value="시청자" style="shape=umlActor;verticalLabelPosition=bottom;verticalAlign=top;html=1;outlineConnect=0;" parent="1" vertex="1">
          <mxGeometry x="960" y="450" width="30" height="60" as="geometry" />
        </mxCell>
        <mxCell id="es4Gq8qPdxoEyCwxRX_K-7" value="HTTP GET" style="endArrow=classic;html=1;rounded=0;" parent="1" source="es4Gq8qPdxoEyCwxRX_K-6" edge="1">
          <mxGeometry width="50" height="50" relative="1" as="geometry">
            <mxPoint x="1120" y="450" as="sourcePoint" />
            <mxPoint x="1230" y="480" as="targetPoint" />
          </mxGeometry>
        </mxCell>
        <mxCell id="es4Gq8qPdxoEyCwxRX_K-8" value="Send .m3u8, .ts files by HLS protocol" style="endArrow=classic;html=1;rounded=0;" parent="1" edge="1">
          <mxGeometry width="50" height="50" relative="1" as="geometry">
            <mxPoint x="1240" y="500" as="sourcePoint" />
            <mxPoint x="1000" y="500" as="targetPoint" />
          </mxGeometry>
        </mxCell>
        <mxCell id="0AKkjZOm7oXLazvZ14PO-1" value="" style="rounded=1;whiteSpace=wrap;html=1;" parent="1" vertex="1">
          <mxGeometry x="1890" y="203" width="310" height="440" as="geometry" />
        </mxCell>
        <mxCell id="0AKkjZOm7oXLazvZ14PO-3" value="방송 송출자" style="shape=umlActor;verticalLabelPosition=bottom;verticalAlign=top;html=1;outlineConnect=0;" parent="1" vertex="1">
          <mxGeometry x="1560" y="395" width="30" height="60" as="geometry" />
        </mxCell>
        <mxCell id="0AKkjZOm7oXLazvZ14PO-4" value="채팅 플러그인&#xa;" style="shape=image;verticalLabelPosition=bottom;labelBackgroundColor=default;verticalAlign=top;aspect=fixed;imageAspect=0;image=https://upload.wikimedia.org/wikipedia/commons/thumb/1/14/Open_Broadcaster_Software_Logo.png/120px-Open_Broadcaster_Software_Logo.png;" parent="1" vertex="1">
          <mxGeometry x="1590" y="190" width="79" height="79" as="geometry" />
        </mxCell>
        <mxCell id="0AKkjZOm7oXLazvZ14PO-6" value="시청자" style="shape=umlActor;verticalLabelPosition=bottom;verticalAlign=top;html=1;outlineConnect=0;" parent="1" vertex="1">
          <mxGeometry x="1560" y="526" width="30" height="60" as="geometry" />
        </mxCell>
        <mxCell id="0AKkjZOm7oXLazvZ14PO-7" value="채팅 입력" style="endArrow=classic;html=1;rounded=0;exitX=1;exitY=1;exitDx=0;exitDy=0;exitPerimeter=0;" parent="1" source="0AKkjZOm7oXLazvZ14PO-6" target="0AKkjZOm7oXLazvZ14PO-10" edge="1">
          <mxGeometry width="50" height="50" relative="1" as="geometry">
            <mxPoint x="1720" y="526" as="sourcePoint" />
            <mxPoint x="1830" y="556" as="targetPoint" />
          </mxGeometry>
        </mxCell>
        <mxCell id="0AKkjZOm7oXLazvZ14PO-10" value="" style="sketch=0;points=[[0,0,0],[0.25,0,0],[0.5,0,0],[0.75,0,0],[1,0,0],[0,1,0],[0.25,1,0],[0.5,1,0],[0.75,1,0],[1,1,0],[0,0.25,0],[0,0.5,0],[0,0.75,0],[1,0.25,0],[1,0.5,0],[1,0.75,0]];outlineConnect=0;fontColor=#232F3E;fillColor=#8C4FFF;strokeColor=#ffffff;dashed=0;verticalLabelPosition=bottom;verticalAlign=top;align=center;html=1;fontSize=12;fontStyle=0;aspect=fixed;shape=mxgraph.aws4.resourceIcon;resIcon=mxgraph.aws4.managed_streaming_for_kafka;" parent="1" vertex="1">
          <mxGeometry x="1910" y="386" width="78" height="78" as="geometry" />
        </mxCell>
        <mxCell id="0AKkjZOm7oXLazvZ14PO-13" value="채팅 조회" style="endArrow=classic;html=1;rounded=0;" parent="1" target="0AKkjZOm7oXLazvZ14PO-1" edge="1">
          <mxGeometry width="50" height="50" relative="1" as="geometry">
            <mxPoint x="1668" y="229" as="sourcePoint" />
            <mxPoint x="1988" y="211" as="targetPoint" />
          </mxGeometry>
        </mxCell>
        <mxCell id="0AKkjZOm7oXLazvZ14PO-14" value="채팅 메세지 전달" style="endArrow=classic;html=1;rounded=0;" parent="1" source="0AKkjZOm7oXLazvZ14PO-10" target="0AKkjZOm7oXLazvZ14PO-4" edge="1">
          <mxGeometry x="0.0015" width="50" height="50" relative="1" as="geometry">
            <mxPoint x="1910" y="510" as="sourcePoint" />
            <mxPoint x="1770" y="492" as="targetPoint" />
            <mxPoint as="offset" />
          </mxGeometry>
        </mxCell>
        <mxCell id="0AKkjZOm7oXLazvZ14PO-15" value="채팅 메세지 전달&lt;br&gt;" style="endArrow=classic;html=1;rounded=0;entryX=1;entryY=0.3333333333333333;entryDx=0;entryDy=0;entryPerimeter=0;" parent="1" source="0AKkjZOm7oXLazvZ14PO-10" target="0AKkjZOm7oXLazvZ14PO-6" edge="1">
          <mxGeometry width="50" height="50" relative="1" as="geometry">
            <mxPoint x="1910" y="526" as="sourcePoint" />
            <mxPoint x="1760" y="580" as="targetPoint" />
          </mxGeometry>
        </mxCell>
      </root>
    </mxGraphModel>
  </diagram>
  <diagram id="hB8bBAzU77oKhluePEHy" name="페이지-6">
    <mxGraphModel dx="1050" dy="621" grid="1" gridSize="10" guides="1" tooltips="1" connect="1" arrows="1" fold="1" page="1" pageScale="1" pageWidth="827" pageHeight="1169" math="0" shadow="0">
      <root>
        <mxCell id="0" />
        <mxCell id="1" parent="0" />
        <mxCell id="OmQhWT8YBF4gKL8qOy5S-5" value="" style="shape=umlLifeline;perimeter=lifelinePerimeter;whiteSpace=wrap;html=1;container=1;dropTarget=0;collapsible=0;recursiveResize=0;outlineConnect=0;portConstraint=eastwest;newEdgeStyle={&quot;curved&quot;:0,&quot;rounded&quot;:0};participant=umlActor;" parent="1" vertex="1">
          <mxGeometry x="60" y="50" width="20" height="480" as="geometry" />
        </mxCell>
        <mxCell id="OmQhWT8YBF4gKL8qOy5S-16" value="스트림 키 검증" style="html=1;verticalAlign=bottom;endArrow=block;curved=0;rounded=0;entryX=0;entryY=0;entryDx=0;entryDy=5;" parent="1" source="OmQhWT8YBF4gKL8qOy5S-6" target="OmQhWT8YBF4gKL8qOy5S-15" edge="1">
          <mxGeometry relative="1" as="geometry">
            <mxPoint x="300" y="235" as="sourcePoint" />
          </mxGeometry>
        </mxCell>
        <mxCell id="OmQhWT8YBF4gKL8qOy5S-10" value="OBS Studio 에서 RTMP 프로토콜 전송" style="html=1;verticalAlign=bottom;endArrow=block;curved=0;rounded=0;" parent="1" target="OmQhWT8YBF4gKL8qOy5S-6" edge="1">
          <mxGeometry width="80" relative="1" as="geometry">
            <mxPoint x="69.5" y="120" as="sourcePoint" />
            <mxPoint x="239.5" y="120" as="targetPoint" />
          </mxGeometry>
        </mxCell>
        <mxCell id="OmQhWT8YBF4gKL8qOy5S-7" value="Service 서버" style="shape=umlLifeline;perimeter=lifelinePerimeter;whiteSpace=wrap;html=1;container=1;dropTarget=0;collapsible=0;recursiveResize=0;outlineConnect=0;portConstraint=eastwest;newEdgeStyle={&quot;curved&quot;:0,&quot;rounded&quot;:0};" parent="1" vertex="1">
          <mxGeometry x="460" y="40" width="100" height="510" as="geometry" />
        </mxCell>
        <mxCell id="OmQhWT8YBF4gKL8qOy5S-15" value="" style="html=1;points=[[0,0,0,0,5],[0,1,0,0,-5],[1,0,0,0,5],[1,1,0,0,-5]];perimeter=orthogonalPerimeter;outlineConnect=0;targetShapes=umlLifeline;portConstraint=eastwest;newEdgeStyle={&quot;curved&quot;:0,&quot;rounded&quot;:0};" parent="OmQhWT8YBF4gKL8qOy5S-7" vertex="1">
          <mxGeometry x="45" y="120" width="10" height="40" as="geometry" />
        </mxCell>
        <mxCell id="OmQhWT8YBF4gKL8qOy5S-6" value="Streaming 서버" style="shape=umlLifeline;perimeter=lifelinePerimeter;whiteSpace=wrap;html=1;container=1;dropTarget=0;collapsible=0;recursiveResize=0;outlineConnect=0;portConstraint=eastwest;newEdgeStyle={&quot;curved&quot;:0,&quot;rounded&quot;:0};" parent="1" vertex="1">
          <mxGeometry x="230" y="40" width="100" height="500" as="geometry" />
        </mxCell>
        <mxCell id="OmQhWT8YBF4gKL8qOy5S-12" value="" style="html=1;points=[[0,0,0,0,5],[0,1,0,0,-5],[1,0,0,0,5],[1,1,0,0,-5]];perimeter=orthogonalPerimeter;outlineConnect=0;targetShapes=umlLifeline;portConstraint=eastwest;newEdgeStyle={&quot;curved&quot;:0,&quot;rounded&quot;:0};" parent="OmQhWT8YBF4gKL8qOy5S-6" vertex="1">
          <mxGeometry x="45" y="100" width="10" height="110" as="geometry" />
        </mxCell>
        <mxCell id="OmQhWT8YBF4gKL8qOy5S-13" value="handshake, decode 등의 작업 처리&lt;br&gt;" style="html=1;align=left;spacingLeft=2;endArrow=block;rounded=0;edgeStyle=orthogonalEdgeStyle;curved=0;rounded=0;" parent="OmQhWT8YBF4gKL8qOy5S-6" target="OmQhWT8YBF4gKL8qOy5S-12" edge="1">
          <mxGeometry relative="1" as="geometry">
            <mxPoint x="45" y="80" as="sourcePoint" />
            <Array as="points">
              <mxPoint x="75" y="110" />
            </Array>
          </mxGeometry>
        </mxCell>
        <mxCell id="OmQhWT8YBF4gKL8qOy5S-20" value="스트림 키 검증 성공" style="html=1;verticalAlign=bottom;endArrow=open;dashed=1;endSize=8;curved=0;rounded=0;exitX=0;exitY=1;exitDx=0;exitDy=-5;" parent="1" target="OmQhWT8YBF4gKL8qOy5S-12" edge="1">
          <mxGeometry relative="1" as="geometry">
            <mxPoint x="279.5" y="200" as="targetPoint" />
            <mxPoint x="530" y="200" as="sourcePoint" />
          </mxGeometry>
        </mxCell>
        <mxCell id="OmQhWT8YBF4gKL8qOy5S-21" value="Transcoding&amp;nbsp;서버" style="shape=umlLifeline;perimeter=lifelinePerimeter;whiteSpace=wrap;html=1;container=1;dropTarget=0;collapsible=0;recursiveResize=0;outlineConnect=0;portConstraint=eastwest;newEdgeStyle={&quot;curved&quot;:0,&quot;rounded&quot;:0};" parent="1" vertex="1">
          <mxGeometry x="610" y="40" width="100" height="510" as="geometry" />
        </mxCell>
        <mxCell id="OmQhWT8YBF4gKL8qOy5S-25" value="" style="html=1;points=[[0,0,0,0,5],[0,1,0,0,-5],[1,0,0,0,5],[1,1,0,0,-5]];perimeter=orthogonalPerimeter;outlineConnect=0;targetShapes=umlLifeline;portConstraint=eastwest;newEdgeStyle={&quot;curved&quot;:0,&quot;rounded&quot;:0};" parent="OmQhWT8YBF4gKL8qOy5S-21" vertex="1">
          <mxGeometry x="45" y="200" width="10" height="20" as="geometry" />
        </mxCell>
        <mxCell id="OmQhWT8YBF4gKL8qOy5S-27" value="" style="html=1;points=[[0,0,0,0,5],[0,1,0,0,-5],[1,0,0,0,5],[1,1,0,0,-5]];perimeter=orthogonalPerimeter;outlineConnect=0;targetShapes=umlLifeline;portConstraint=eastwest;newEdgeStyle={&quot;curved&quot;:0,&quot;rounded&quot;:0};" parent="OmQhWT8YBF4gKL8qOy5S-21" vertex="1">
          <mxGeometry x="45" y="230" width="10" height="40" as="geometry" />
        </mxCell>
        <mxCell id="OmQhWT8YBF4gKL8qOy5S-28" value="FFmpeg 명령어 생성" style="html=1;align=left;spacingLeft=2;endArrow=block;rounded=0;edgeStyle=orthogonalEdgeStyle;curved=0;rounded=0;" parent="OmQhWT8YBF4gKL8qOy5S-21" source="OmQhWT8YBF4gKL8qOy5S-21" target="OmQhWT8YBF4gKL8qOy5S-27" edge="1">
          <mxGeometry relative="1" as="geometry">
            <mxPoint x="60" y="210" as="sourcePoint" />
            <Array as="points" />
          </mxGeometry>
        </mxCell>
        <mxCell id="OmQhWT8YBF4gKL8qOy5S-35" value="" style="html=1;points=[[0,0,0,0,5],[0,1,0,0,-5],[1,0,0,0,5],[1,1,0,0,-5]];perimeter=orthogonalPerimeter;outlineConnect=0;targetShapes=umlLifeline;portConstraint=eastwest;newEdgeStyle={&quot;curved&quot;:0,&quot;rounded&quot;:0};" parent="OmQhWT8YBF4gKL8qOy5S-21" vertex="1">
          <mxGeometry x="45" y="300" width="10" height="30" as="geometry" />
        </mxCell>
        <mxCell id="OmQhWT8YBF4gKL8qOy5S-36" value="" style="html=1;points=[[0,0,0,0,5],[0,1,0,0,-5],[1,0,0,0,5],[1,1,0,0,-5]];perimeter=orthogonalPerimeter;outlineConnect=0;targetShapes=umlLifeline;portConstraint=eastwest;newEdgeStyle={&quot;curved&quot;:0,&quot;rounded&quot;:0};" parent="OmQhWT8YBF4gKL8qOy5S-21" vertex="1">
          <mxGeometry x="45" y="340" width="10" height="40" as="geometry" />
        </mxCell>
        <mxCell id="OmQhWT8YBF4gKL8qOy5S-37" value="S3 업로드 요청" style="html=1;align=left;spacingLeft=2;endArrow=block;rounded=0;edgeStyle=orthogonalEdgeStyle;curved=0;rounded=0;" parent="OmQhWT8YBF4gKL8qOy5S-21" source="OmQhWT8YBF4gKL8qOy5S-35" target="OmQhWT8YBF4gKL8qOy5S-36" edge="1">
          <mxGeometry relative="1" as="geometry">
            <mxPoint x="60" y="330" as="sourcePoint" />
            <Array as="points">
              <mxPoint x="80" y="315" />
              <mxPoint x="80" y="350" />
            </Array>
          </mxGeometry>
        </mxCell>
        <mxCell id="OmQhWT8YBF4gKL8qOy5S-23" value="HLS 형식으로 영상 변환 요청" style="html=1;verticalAlign=bottom;endArrow=block;curved=0;rounded=0;" parent="1" target="OmQhWT8YBF4gKL8qOy5S-25" edge="1">
          <mxGeometry relative="1" as="geometry">
            <mxPoint x="285" y="240" as="sourcePoint" />
            <mxPoint x="650" y="240" as="targetPoint" />
          </mxGeometry>
        </mxCell>
        <mxCell id="OmQhWT8YBF4gKL8qOy5S-26" value="FFmpeg" style="shape=umlLifeline;perimeter=lifelinePerimeter;whiteSpace=wrap;html=1;container=1;dropTarget=0;collapsible=0;recursiveResize=0;outlineConnect=0;portConstraint=eastwest;newEdgeStyle={&quot;curved&quot;:0,&quot;rounded&quot;:0};" parent="1" vertex="1">
          <mxGeometry x="827" y="230" width="100" height="250" as="geometry" />
        </mxCell>
        <mxCell id="OmQhWT8YBF4gKL8qOy5S-31" value="" style="html=1;points=[[0,0,0,0,5],[0,1,0,0,-5],[1,0,0,0,5],[1,1,0,0,-5]];perimeter=orthogonalPerimeter;outlineConnect=0;targetShapes=umlLifeline;portConstraint=eastwest;newEdgeStyle={&quot;curved&quot;:0,&quot;rounded&quot;:0};" parent="OmQhWT8YBF4gKL8qOy5S-26" vertex="1">
          <mxGeometry x="45" y="70" width="10" height="40" as="geometry" />
        </mxCell>
        <mxCell id="OmQhWT8YBF4gKL8qOy5S-32" value="FFmpeg 실행" style="html=1;verticalAlign=bottom;endArrow=block;curved=0;rounded=0;entryX=0;entryY=0;entryDx=0;entryDy=5;" parent="1" target="OmQhWT8YBF4gKL8qOy5S-31" edge="1">
          <mxGeometry relative="1" as="geometry">
            <mxPoint x="660" y="305" as="sourcePoint" />
          </mxGeometry>
        </mxCell>
        <mxCell id="OmQhWT8YBF4gKL8qOy5S-34" value="영상 변환 작업 로그" style="html=1;verticalAlign=bottom;endArrow=open;dashed=1;endSize=8;curved=0;rounded=0;" parent="1" edge="1">
          <mxGeometry relative="1" as="geometry">
            <mxPoint x="870" y="340" as="sourcePoint" />
            <mxPoint x="660" y="340" as="targetPoint" />
          </mxGeometry>
        </mxCell>
        <mxCell id="OmQhWT8YBF4gKL8qOy5S-38" value="Aws S3" style="shape=umlLifeline;perimeter=lifelinePerimeter;whiteSpace=wrap;html=1;container=1;dropTarget=0;collapsible=0;recursiveResize=0;outlineConnect=0;portConstraint=eastwest;newEdgeStyle={&quot;curved&quot;:0,&quot;rounded&quot;:0};" parent="1" vertex="1">
          <mxGeometry x="950" y="40" width="100" height="415" as="geometry" />
        </mxCell>
      </root>
    </mxGraphModel>
  </diagram>
</mxfile>
